<?xml version="1.0" encoding="UTF-8" standalone="no"?><svg width="1440" height="1024" viewBox="0 0 1440 1024" fill="none" xmlns="http://www.w3.org/2000/svg">
<rect width="1440" height="1024" fill="white"/>
<rect width="1440" height="171" fill="#D9D9D9"/>
<path d="M61.2273 58.0909H66.2727L78.1364 87.0682H78.5455L90.4091 58.0909H95.4545V93H91.5V66.4773H91.1591L80.25 93H76.4318L65.5227 66.4773H65.1818V93H61.2273V58.0909ZM114.362 93.5455C111.839 93.5455 109.663 92.9886 107.834 91.875C106.016 90.75 104.612 89.1818 103.624 87.1705C102.646 85.1477 102.158 82.7955 102.158 80.1136C102.158 77.4318 102.646 75.0682 103.624 73.0227C104.612 70.9659 105.987 69.3636 107.749 68.2159C109.521 67.0568 111.589 66.4773 113.953 66.4773C115.317 66.4773 116.663 66.7045 117.993 67.1591C119.322 67.6136 120.533 68.3523 121.624 69.375C122.714 70.3864 123.584 71.7273 124.232 73.3977C124.879 75.0682 125.203 77.125 125.203 79.5682V81.2727H105.021V77.7955H121.112C121.112 76.3182 120.817 75 120.226 73.8409C119.646 72.6818 118.817 71.767 117.737 71.0966C116.669 70.4261 115.408 70.0909 113.953 70.0909C112.351 70.0909 110.964 70.4886 109.794 71.2841C108.635 72.0682 107.743 73.0909 107.118 74.3523C106.493 75.6136 106.18 76.9659 106.18 78.4091V80.7273C106.18 82.7045 106.521 84.3807 107.203 85.7557C107.896 87.1193 108.857 88.1591 110.084 88.875C111.311 89.5795 112.737 89.9318 114.362 89.9318C115.419 89.9318 116.374 89.7841 117.226 89.4886C118.089 89.1818 118.834 88.7273 119.459 88.125C120.084 87.5114 120.567 86.75 120.908 85.8409L124.794 86.9318C124.385 88.25 123.697 89.4091 122.732 90.4091C121.766 91.3977 120.572 92.1705 119.152 92.7273C117.732 93.2727 116.135 93.5455 114.362 93.5455ZM135.345 58.0909V93H131.322V58.0909H135.345ZM153.349 93.5455C150.986 93.5455 148.912 92.983 147.128 91.858C145.355 90.733 143.969 89.1591 142.969 87.1364C141.98 85.1136 141.486 82.75 141.486 80.0455C141.486 77.3182 141.98 74.9375 142.969 72.9034C143.969 70.8693 145.355 69.2898 147.128 68.1648C148.912 67.0398 150.986 66.4773 153.349 66.4773C155.713 66.4773 157.781 67.0398 159.554 68.1648C161.338 69.2898 162.724 70.8693 163.713 72.9034C164.713 74.9375 165.213 77.3182 165.213 80.0455C165.213 82.75 164.713 85.1136 163.713 87.1364C162.724 89.1591 161.338 90.733 159.554 91.858C157.781 92.983 155.713 93.5455 153.349 93.5455ZM153.349 89.9318C155.145 89.9318 156.622 89.4716 157.781 88.5511C158.94 87.6307 159.798 86.4205 160.355 84.9205C160.912 83.4205 161.19 81.7955 161.19 80.0455C161.19 78.2955 160.912 76.6648 160.355 75.1534C159.798 73.642 158.94 72.4205 157.781 71.4886C156.622 70.5568 155.145 70.0909 153.349 70.0909C151.554 70.0909 150.077 70.5568 148.918 71.4886C147.759 72.4205 146.901 73.642 146.344 75.1534C145.787 76.6648 145.509 78.2955 145.509 80.0455C145.509 81.7955 145.787 83.4205 146.344 84.9205C146.901 86.4205 147.759 87.6307 148.918 88.5511C150.077 89.4716 151.554 89.9318 153.349 89.9318ZM171.354 93V66.8182H175.24V70.7727H175.513C175.99 69.4773 176.854 68.4261 178.104 67.6193C179.354 66.8125 180.763 66.4091 182.331 66.4091C182.626 66.4091 182.996 66.4148 183.439 66.4261C183.882 66.4375 184.217 66.4545 184.445 66.4773V70.5682C184.308 70.5341 183.996 70.483 183.507 70.4148C183.03 70.3352 182.524 70.2955 181.99 70.2955C180.717 70.2955 179.581 70.5625 178.581 71.0966C177.592 71.6193 176.808 72.3466 176.229 73.2784C175.661 74.1989 175.376 75.25 175.376 76.4318V93H171.354ZM199.393 93.5455C196.871 93.5455 194.695 92.9886 192.865 91.875C191.047 90.75 189.643 89.1818 188.655 87.1705C187.678 85.1477 187.189 82.7955 187.189 80.1136C187.189 77.4318 187.678 75.0682 188.655 73.0227C189.643 70.9659 191.018 69.3636 192.78 68.2159C194.553 67.0568 196.621 66.4773 198.984 66.4773C200.348 66.4773 201.695 66.7045 203.024 67.1591C204.354 67.6136 205.564 68.3523 206.655 69.375C207.746 70.3864 208.615 71.7273 209.263 73.3977C209.911 75.0682 210.234 77.125 210.234 79.5682V81.2727H190.053V77.7955H206.143C206.143 76.3182 205.848 75 205.257 73.8409C204.678 72.6818 203.848 71.767 202.768 71.0966C201.7 70.4261 200.439 70.0909 198.984 70.0909C197.382 70.0909 195.996 70.4886 194.825 71.2841C193.666 72.0682 192.774 73.0909 192.149 74.3523C191.524 75.6136 191.212 76.9659 191.212 78.4091V80.7273C191.212 82.7045 191.553 84.3807 192.234 85.7557C192.928 87.1193 193.888 88.1591 195.115 88.875C196.342 89.5795 197.768 89.9318 199.393 89.9318C200.45 89.9318 201.405 89.7841 202.257 89.4886C203.121 89.1818 203.865 88.7273 204.49 88.125C205.115 87.5114 205.598 86.75 205.939 85.8409L209.825 86.9318C209.416 88.25 208.729 89.4091 207.763 90.4091C206.797 91.3977 205.604 92.1705 204.183 92.7273C202.763 93.2727 201.166 93.5455 199.393 93.5455ZM216.354 93V66.8182H220.24V70.9091H220.581C221.126 69.5114 222.007 68.4261 223.223 67.6534C224.439 66.8693 225.899 66.4773 227.604 66.4773C229.331 66.4773 230.768 66.8693 231.916 67.6534C233.075 68.4261 233.979 69.5114 234.626 70.9091H234.899C235.57 69.5568 236.575 68.483 237.916 67.6875C239.257 66.8807 240.865 66.4773 242.74 66.4773C245.081 66.4773 246.996 67.2102 248.484 68.6761C249.973 70.1307 250.717 72.3977 250.717 75.4773V93H246.695V75.4773C246.695 73.5455 246.166 72.1648 245.109 71.3352C244.053 70.5057 242.808 70.0909 241.376 70.0909C239.536 70.0909 238.109 70.6477 237.098 71.7614C236.087 72.8636 235.581 74.2614 235.581 75.9545V93H231.49V75.0682C231.49 73.5795 231.007 72.3807 230.041 71.4716C229.075 70.5511 227.831 70.0909 226.308 70.0909C225.263 70.0909 224.286 70.3693 223.376 70.9261C222.479 71.483 221.751 72.2557 221.195 73.2443C220.649 74.2216 220.376 75.3523 220.376 76.6364V93H216.354ZM269.05 93.5455C266.527 93.5455 264.351 92.9886 262.521 91.875C260.703 90.75 259.3 89.1818 258.311 87.1705C257.334 85.1477 256.845 82.7955 256.845 80.1136C256.845 77.4318 257.334 75.0682 258.311 73.0227C259.3 70.9659 260.675 69.3636 262.436 68.2159C264.209 67.0568 266.277 66.4773 268.641 66.4773C270.004 66.4773 271.351 66.7045 272.68 67.1591C274.01 67.6136 275.22 68.3523 276.311 69.375C277.402 70.3864 278.271 71.7273 278.919 73.3977C279.567 75.0682 279.891 77.125 279.891 79.5682V81.2727H259.709V77.7955H275.8C275.8 76.3182 275.504 75 274.913 73.8409C274.334 72.6818 273.504 71.767 272.425 71.0966C271.357 70.4261 270.095 70.0909 268.641 70.0909C267.038 70.0909 265.652 70.4886 264.482 71.2841C263.322 72.0682 262.43 73.0909 261.805 74.3523C261.18 75.6136 260.868 76.9659 260.868 78.4091V80.7273C260.868 82.7045 261.209 84.3807 261.891 85.7557C262.584 87.1193 263.544 88.1591 264.771 88.875C265.999 89.5795 267.425 89.9318 269.05 89.9318C270.107 89.9318 271.061 89.7841 271.913 89.4886C272.777 89.1818 273.521 88.7273 274.146 88.125C274.771 87.5114 275.254 86.75 275.595 85.8409L279.482 86.9318C279.072 88.25 278.385 89.4091 277.419 90.4091C276.453 91.3977 275.26 92.1705 273.839 92.7273C272.419 93.2727 270.822 93.5455 269.05 93.5455ZM295.896 93.5455C293.714 93.5455 291.788 92.9943 290.118 91.892C288.447 90.7784 287.141 89.2102 286.197 87.1875C285.254 85.1534 284.783 82.75 284.783 79.9773C284.783 77.2273 285.254 74.8409 286.197 72.8182C287.141 70.7955 288.453 69.233 290.135 68.1307C291.817 67.0284 293.76 66.4773 295.964 66.4773C297.669 66.4773 299.016 66.7614 300.004 67.3295C301.004 67.8864 301.766 68.5227 302.288 69.2386C302.822 69.9432 303.237 70.5227 303.533 70.9773H303.874V58.0909H307.896V93H304.01V88.9773H303.533C303.237 89.4545 302.817 90.0568 302.271 90.7841C301.726 91.5 300.947 92.142 299.936 92.7102C298.925 93.267 297.578 93.5455 295.896 93.5455ZM296.442 89.9318C298.055 89.9318 299.419 89.5114 300.533 88.6705C301.646 87.8182 302.493 86.642 303.072 85.142C303.652 83.6307 303.942 81.8864 303.942 79.9091C303.942 77.9545 303.658 76.2443 303.089 74.7784C302.521 73.3011 301.68 72.1534 300.567 71.3352C299.453 70.5057 298.078 70.0909 296.442 70.0909C294.737 70.0909 293.317 70.5284 292.18 71.4034C291.055 72.267 290.209 73.4432 289.641 74.9318C289.084 76.4091 288.805 78.0682 288.805 79.9091C288.805 81.7727 289.089 83.4659 289.658 84.9886C290.237 86.5 291.089 87.7045 292.214 88.6023C293.351 89.4886 294.76 89.9318 296.442 89.9318ZM318.413 102.818C317.732 102.818 317.124 102.761 316.589 102.648C316.055 102.545 315.686 102.443 315.482 102.341L316.504 98.7955C317.482 99.0455 318.345 99.1364 319.095 99.0682C319.845 99 320.51 98.6648 321.089 98.0625C321.68 97.4716 322.22 96.5114 322.709 95.1818L323.459 93.1364L313.777 66.8182H318.141L325.368 87.6818H325.641L332.868 66.8182H337.232L326.118 96.8182C325.618 98.1705 324.999 99.2898 324.26 100.176C323.521 101.074 322.663 101.739 321.686 102.17C320.72 102.602 319.629 102.818 318.413 102.818Z" fill="black"/>
<path d="M630.657 94V76.5455H632.77V84.3182H642.077V76.5455H644.191V94H642.077V86.1932H632.77V94H630.657ZM653.468 94.2727C652.286 94.2727 651.249 93.9915 650.357 93.429C649.471 92.8665 648.777 92.0795 648.277 91.0682C647.783 90.0568 647.536 88.875 647.536 87.5227C647.536 86.1591 647.783 84.9687 648.277 83.9517C648.777 82.9347 649.471 82.1449 650.357 81.5824C651.249 81.0199 652.286 80.7386 653.468 80.7386C654.65 80.7386 655.684 81.0199 656.57 81.5824C657.462 82.1449 658.155 82.9347 658.65 83.9517C659.15 84.9687 659.4 86.1591 659.4 87.5227C659.4 88.875 659.15 90.0568 658.65 91.0682C658.155 92.0795 657.462 92.8665 656.57 93.429C655.684 93.9915 654.65 94.2727 653.468 94.2727ZM653.468 92.4659C654.365 92.4659 655.104 92.2358 655.684 91.7756C656.263 91.3153 656.692 90.7102 656.971 89.9602C657.249 89.2102 657.388 88.3977 657.388 87.5227C657.388 86.6477 657.249 85.8324 656.971 85.0767C656.692 84.321 656.263 83.7102 655.684 83.2443C655.104 82.7784 654.365 82.5455 653.468 82.5455C652.57 82.5455 651.831 82.7784 651.252 83.2443C650.672 83.7102 650.243 84.321 649.965 85.0767C649.686 85.8324 649.547 86.6477 649.547 87.5227C649.547 88.3977 649.686 89.2102 649.965 89.9602C650.243 90.7102 650.672 91.3153 651.252 91.7756C651.831 92.2358 652.57 92.4659 653.468 92.4659ZM662.47 94V80.9091H664.413V82.9545H664.583C664.856 82.2557 665.297 81.7131 665.904 81.3267C666.512 80.9347 667.243 80.7386 668.095 80.7386C668.958 80.7386 669.677 80.9347 670.251 81.3267C670.831 81.7131 671.282 82.2557 671.606 82.9545H671.743C672.078 82.2784 672.581 81.7415 673.251 81.3438C673.922 80.9403 674.725 80.7386 675.663 80.7386C676.833 80.7386 677.791 81.1051 678.535 81.8381C679.279 82.5653 679.652 83.6989 679.652 85.2386V94H677.64V85.2386C677.64 84.2727 677.376 83.5824 676.848 83.1676C676.319 82.7528 675.697 82.5455 674.981 82.5455C674.061 82.5455 673.348 82.8239 672.842 83.3807C672.336 83.9318 672.083 84.6307 672.083 85.4773V94H670.038V85.0341C670.038 84.2898 669.797 83.6903 669.314 83.2358C668.831 82.7756 668.208 82.5455 667.447 82.5455C666.924 82.5455 666.436 82.6847 665.981 82.9631C665.532 83.2415 665.169 83.6278 664.89 84.1222C664.618 84.6108 664.481 85.1761 664.481 85.8182V94H662.47ZM688.818 94.2727C687.556 94.2727 686.468 93.9943 685.554 93.4375C684.645 92.875 683.943 92.0909 683.449 91.0852C682.96 90.0739 682.716 88.8977 682.716 87.5568C682.716 86.2159 682.96 85.0341 683.449 84.0114C683.943 82.983 684.63 82.1818 685.511 81.608C686.397 81.0284 687.431 80.7386 688.613 80.7386C689.295 80.7386 689.968 80.8523 690.633 81.0795C691.298 81.3068 691.903 81.6761 692.449 82.1875C692.994 82.6932 693.429 83.3636 693.752 84.1989C694.076 85.0341 694.238 86.0625 694.238 87.2841V88.1364H684.147V86.3977H692.193C692.193 85.6591 692.045 85 691.75 84.4205C691.46 83.8409 691.045 83.3835 690.505 83.0483C689.971 82.7131 689.341 82.5455 688.613 82.5455C687.812 82.5455 687.119 82.7443 686.534 83.142C685.954 83.5341 685.508 84.0455 685.196 84.6761C684.883 85.3068 684.727 85.983 684.727 86.7045V87.8636C684.727 88.8523 684.897 89.6903 685.238 90.3778C685.585 91.0597 686.065 91.5795 686.679 91.9375C687.292 92.2898 688.005 92.4659 688.818 92.4659C689.346 92.4659 689.824 92.392 690.25 92.2443C690.681 92.0909 691.054 91.8636 691.366 91.5625C691.679 91.2557 691.92 90.875 692.091 90.4205L694.034 90.9659C693.829 91.625 693.485 92.2045 693.002 92.7045C692.52 93.1989 691.923 93.5852 691.213 93.8636C690.502 94.1364 689.704 94.2727 688.818 94.2727Z" fill="black"/>
<path d="M819.078 76.5455H821.499L826.34 84.6932H826.544L831.385 76.5455H833.806L827.499 86.8068V94H825.385V86.8068L819.078 76.5455ZM839.733 94.2727C838.551 94.2727 837.515 93.9915 836.623 93.429C835.736 92.8665 835.043 92.0795 834.543 91.0682C834.049 90.0568 833.801 88.875 833.801 87.5227C833.801 86.1591 834.049 84.9687 834.543 83.9517C835.043 82.9347 835.736 82.1449 836.623 81.5824C837.515 81.0199 838.551 80.7386 839.733 80.7386C840.915 80.7386 841.949 81.0199 842.836 81.5824C843.728 82.1449 844.421 82.9347 844.915 83.9517C845.415 84.9687 845.665 86.1591 845.665 87.5227C845.665 88.875 845.415 90.0568 844.915 91.0682C844.421 92.0795 843.728 92.8665 842.836 93.429C841.949 93.9915 840.915 94.2727 839.733 94.2727ZM839.733 92.4659C840.631 92.4659 841.37 92.2358 841.949 91.7756C842.529 91.3153 842.958 90.7102 843.236 89.9602C843.515 89.2102 843.654 88.3977 843.654 87.5227C843.654 86.6477 843.515 85.8324 843.236 85.0767C842.958 84.321 842.529 83.7102 841.949 83.2443C841.37 82.7784 840.631 82.5455 839.733 82.5455C838.836 82.5455 838.097 82.7784 837.517 83.2443C836.938 83.7102 836.509 84.321 836.23 85.0767C835.952 85.8324 835.813 86.6477 835.813 87.5227C835.813 88.3977 835.952 89.2102 836.23 89.9602C836.509 90.7102 836.938 91.3153 837.517 91.7756C838.097 92.2358 838.836 92.4659 839.733 92.4659ZM856.985 88.6477V80.9091H858.997V94H856.985V91.7841H856.849C856.542 92.4489 856.065 93.0142 855.417 93.4801C854.77 93.9403 853.951 94.1705 852.963 94.1705C852.145 94.1705 851.417 93.9915 850.781 93.6335C850.145 93.2699 849.645 92.7244 849.281 91.9972C848.917 91.2642 848.735 90.3409 848.735 89.2273V80.9091H850.747V89.0909C850.747 90.0455 851.014 90.8068 851.548 91.375C852.088 91.9432 852.775 92.2273 853.61 92.2273C854.11 92.2273 854.619 92.0994 855.136 91.8438C855.659 91.5881 856.096 91.196 856.449 90.6676C856.806 90.1392 856.985 89.4659 856.985 88.6477ZM862.681 94V80.9091H864.624V82.8864H864.76C864.999 82.2386 865.431 81.7131 866.056 81.3097C866.681 80.9062 867.385 80.7045 868.169 80.7045C868.317 80.7045 868.502 80.7074 868.723 80.7131C868.945 80.7187 869.113 80.7273 869.226 80.7386V82.7841C869.158 82.767 869.002 82.7415 868.757 82.7074C868.519 82.6676 868.266 82.6477 867.999 82.6477C867.363 82.6477 866.794 82.7812 866.294 83.0483C865.8 83.3097 865.408 83.6733 865.118 84.1392C864.834 84.5994 864.692 85.125 864.692 85.7159V94H862.681ZM884.02 94H878.633V76.5455H884.258C885.951 76.5455 887.4 76.8949 888.605 77.5938C889.809 78.2869 890.733 79.2841 891.375 80.5852C892.017 81.8807 892.338 83.4318 892.338 85.2386C892.338 87.0568 892.014 88.6222 891.366 89.9347C890.718 91.2415 889.775 92.2472 888.537 92.9517C887.298 93.6506 885.792 94 884.02 94ZM880.747 92.125H883.883C885.326 92.125 886.522 91.8466 887.471 91.2898C888.42 90.733 889.127 89.9403 889.593 88.9119C890.059 87.8835 890.292 86.6591 890.292 85.2386C890.292 83.8295 890.062 82.6165 889.602 81.5994C889.142 80.5767 888.454 79.7926 887.539 79.2472C886.625 78.696 885.485 78.4205 884.122 78.4205H880.747V92.125ZM899.463 94.3068C898.633 94.3068 897.88 94.1506 897.204 93.8381C896.528 93.5199 895.991 93.0625 895.593 92.4659C895.196 91.8636 894.997 91.1364 894.997 90.2841C894.997 89.5341 895.145 88.9261 895.44 88.4602C895.735 87.9886 896.13 87.6193 896.625 87.3523C897.119 87.0852 897.664 86.8864 898.261 86.7557C898.863 86.6193 899.468 86.5114 900.076 86.4318C900.872 86.3295 901.517 86.2528 902.011 86.2017C902.511 86.1449 902.875 86.0511 903.102 85.9205C903.335 85.7898 903.451 85.5625 903.451 85.2386V85.1705C903.451 84.3295 903.221 83.6761 902.761 83.2102C902.306 82.7443 901.616 82.5114 900.69 82.5114C899.73 82.5114 898.977 82.7216 898.431 83.142C897.886 83.5625 897.502 84.0114 897.281 84.4886L895.372 83.8068C895.713 83.0114 896.167 82.392 896.735 81.9489C897.309 81.5 897.934 81.1875 898.61 81.0114C899.292 80.8295 899.963 80.7386 900.622 80.7386C901.042 80.7386 901.525 80.7898 902.071 80.892C902.622 80.9886 903.153 81.1903 903.664 81.4972C904.181 81.804 904.61 82.267 904.951 82.8864C905.292 83.5057 905.463 84.3352 905.463 85.375V94H903.451V92.2273H903.349C903.213 92.5114 902.985 92.8153 902.667 93.1392C902.349 93.4631 901.926 93.7386 901.397 93.9659C900.869 94.1932 900.224 94.3068 899.463 94.3068ZM899.77 92.5C900.565 92.5 901.235 92.3438 901.781 92.0312C902.332 91.7188 902.747 91.3153 903.025 90.821C903.309 90.3267 903.451 89.8068 903.451 89.2614V87.4205C903.366 87.5227 903.179 87.6165 902.889 87.7017C902.605 87.7812 902.275 87.8523 901.9 87.9148C901.531 87.9716 901.17 88.0227 900.818 88.0682C900.471 88.108 900.19 88.142 899.974 88.1705C899.451 88.2386 898.963 88.3494 898.508 88.5028C898.059 88.6506 897.696 88.875 897.417 89.1761C897.145 89.4716 897.008 89.875 897.008 90.3864C897.008 91.0852 897.267 91.6136 897.784 91.9716C898.306 92.3239 898.968 92.5 899.77 92.5ZM914.827 80.9091V82.6136H908.043V80.9091H914.827ZM910.02 77.7727H912.032V90.25C912.032 90.8182 912.114 91.2443 912.279 91.5284C912.449 91.8068 912.665 91.9943 912.926 92.0909C913.194 92.1818 913.475 92.2273 913.77 92.2273C913.992 92.2273 914.174 92.2159 914.316 92.1932C914.458 92.1648 914.571 92.142 914.657 92.125L915.066 93.9318C914.929 93.983 914.739 94.0341 914.495 94.0852C914.25 94.142 913.941 94.1705 913.566 94.1705C912.998 94.1705 912.441 94.0483 911.895 93.804C911.355 93.5597 910.907 93.1875 910.549 92.6875C910.196 92.1875 910.02 91.5568 910.02 90.7955V77.7727ZM921.705 94.3068C920.875 94.3068 920.123 94.1506 919.446 93.8381C918.77 93.5199 918.233 93.0625 917.836 92.4659C917.438 91.8636 917.239 91.1364 917.239 90.2841C917.239 89.5341 917.387 88.9261 917.682 88.4602C917.978 87.9886 918.373 87.6193 918.867 87.3523C919.361 87.0852 919.907 86.8864 920.503 86.7557C921.105 86.6193 921.711 86.5114 922.319 86.4318C923.114 86.3295 923.759 86.2528 924.253 86.2017C924.753 86.1449 925.117 86.0511 925.344 85.9205C925.577 85.7898 925.694 85.5625 925.694 85.2386V85.1705C925.694 84.3295 925.463 83.6761 925.003 83.2102C924.549 82.7443 923.858 82.5114 922.932 82.5114C921.972 82.5114 921.219 82.7216 920.674 83.142C920.128 83.5625 919.745 84.0114 919.523 84.4886L917.614 83.8068C917.955 83.0114 918.409 82.392 918.978 81.9489C919.551 81.5 920.176 81.1875 920.853 81.0114C921.534 80.8295 922.205 80.7386 922.864 80.7386C923.284 80.7386 923.767 80.7898 924.313 80.892C924.864 80.9886 925.395 81.1903 925.907 81.4972C926.424 81.804 926.853 82.267 927.194 82.8864C927.534 83.5057 927.705 84.3352 927.705 85.375V94H925.694V92.2273H925.591C925.455 92.5114 925.228 92.8153 924.909 93.1392C924.591 93.4631 924.168 93.7386 923.64 93.9659C923.111 94.1932 922.466 94.3068 921.705 94.3068ZM922.012 92.5C922.807 92.5 923.478 92.3438 924.023 92.0312C924.574 91.7188 924.989 91.3153 925.267 90.821C925.551 90.3267 925.694 89.8068 925.694 89.2614V87.4205C925.608 87.5227 925.421 87.6165 925.131 87.7017C924.847 87.7812 924.517 87.8523 924.142 87.9148C923.773 87.9716 923.412 88.0227 923.06 88.0682C922.713 88.108 922.432 88.142 922.216 88.1705C921.694 88.2386 921.205 88.3494 920.75 88.5028C920.301 88.6506 919.938 88.875 919.659 89.1761C919.387 89.4716 919.25 89.875 919.25 90.3864C919.25 91.0852 919.509 91.6136 920.026 91.9716C920.549 92.3239 921.211 92.5 922.012 92.5Z" fill="black"/>
<path d="M1054.64 76.5455H1057.17L1063.1 91.0341H1063.3L1069.24 76.5455H1071.76V94H1069.78V80.7386H1069.61L1064.16 94H1062.25L1056.79 80.7386H1056.62V94H1054.64V76.5455ZM1083.97 88.6477V80.9091H1085.99V94H1083.97V91.7841H1083.84C1083.53 92.4489 1083.05 93.0142 1082.41 93.4801C1081.76 93.9403 1080.94 94.1705 1079.95 94.1705C1079.13 94.1705 1078.41 93.9915 1077.77 93.6335C1077.13 93.2699 1076.63 92.7244 1076.27 91.9972C1075.91 91.2642 1075.72 90.3409 1075.72 89.2273V80.9091H1077.74V89.0909C1077.74 90.0455 1078 90.8068 1078.54 91.375C1079.08 91.9432 1079.76 92.2273 1080.6 92.2273C1081.1 92.2273 1081.61 92.0994 1082.12 91.8438C1082.65 91.5881 1083.08 91.196 1083.44 90.6676C1083.79 90.1392 1083.97 89.4659 1083.97 88.6477ZM1098.94 83.8409L1097.13 84.3523C1097.02 84.0511 1096.85 83.7585 1096.63 83.4744C1096.42 83.1847 1096.12 82.946 1095.75 82.7585C1095.37 82.571 1094.89 82.4773 1094.31 82.4773C1093.5 82.4773 1092.84 82.6619 1092.3 83.0312C1091.77 83.3949 1091.51 83.858 1091.51 84.4205C1091.51 84.9205 1091.69 85.3153 1092.06 85.6051C1092.42 85.8949 1092.99 86.1364 1093.76 86.3295L1095.7 86.8068C1096.87 87.0909 1097.75 87.5256 1098.32 88.1108C1098.89 88.6903 1099.18 89.4375 1099.18 90.3523C1099.18 91.1023 1098.96 91.7727 1098.53 92.3636C1098.11 92.9545 1097.51 93.4205 1096.74 93.7614C1095.98 94.1023 1095.08 94.2727 1094.07 94.2727C1092.73 94.2727 1091.63 93.983 1090.75 93.4034C1089.88 92.8239 1089.32 91.9773 1089.09 90.8636L1091 90.3864C1091.18 91.0909 1091.52 91.6193 1092.03 91.9716C1092.54 92.3239 1093.21 92.5 1094.03 92.5C1094.97 92.5 1095.71 92.3011 1096.27 91.9034C1096.82 91.5 1097.1 91.017 1097.1 90.4545C1097.1 90 1096.94 89.6193 1096.62 89.3125C1096.31 89 1095.82 88.767 1095.16 88.6136L1092.98 88.1023C1091.78 87.8182 1090.9 87.3778 1090.33 86.7812C1089.78 86.179 1089.5 85.4261 1089.5 84.5227C1089.5 83.7841 1089.71 83.1307 1090.12 82.5625C1090.54 81.9943 1091.11 81.5483 1091.83 81.2244C1092.56 80.9006 1093.38 80.7386 1094.31 80.7386C1095.6 80.7386 1096.62 81.0227 1097.36 81.5909C1098.1 82.1591 1098.63 82.9091 1098.94 83.8409ZM1102.21 94V80.9091H1104.22V94H1102.21ZM1103.23 78.7273C1102.84 78.7273 1102.5 78.5938 1102.22 78.3267C1101.94 78.0597 1101.8 77.7386 1101.8 77.3636C1101.8 76.9886 1101.94 76.6676 1102.22 76.4006C1102.5 76.1335 1102.84 76 1103.23 76C1103.62 76 1103.96 76.1335 1104.24 76.4006C1104.52 76.6676 1104.66 76.9886 1104.66 77.3636C1104.66 77.7386 1104.52 78.0597 1104.24 78.3267C1103.96 78.5938 1103.62 78.7273 1103.23 78.7273ZM1113.22 94.2727C1111.99 94.2727 1110.94 93.983 1110.05 93.4034C1109.16 92.8239 1108.48 92.0256 1108.01 91.0085C1107.53 89.9915 1107.29 88.8295 1107.29 87.5227C1107.29 86.1932 1107.53 85.0199 1108.02 84.0028C1108.52 82.9801 1109.2 82.1818 1110.09 81.608C1110.97 81.0284 1112.01 80.7386 1113.19 80.7386C1114.11 80.7386 1114.94 80.9091 1115.68 81.25C1116.41 81.5909 1117.02 82.0682 1117.49 82.6818C1117.96 83.2955 1118.26 84.0114 1118.37 84.8295H1116.36C1116.2 84.233 1115.86 83.7045 1115.34 83.2443C1114.81 82.7784 1114.11 82.5455 1113.22 82.5455C1112.44 82.5455 1111.75 82.75 1111.16 83.1591C1110.57 83.5625 1110.12 84.1335 1109.79 84.8722C1109.46 85.6051 1109.3 86.4659 1109.3 87.4545C1109.3 88.4659 1109.46 89.3466 1109.78 90.0966C1110.1 90.8466 1110.56 91.429 1111.14 91.8438C1111.73 92.2585 1112.43 92.4659 1113.22 92.4659C1113.74 92.4659 1114.22 92.375 1114.64 92.1932C1115.07 92.0114 1115.43 91.75 1115.73 91.4091C1116.02 91.0682 1116.23 90.6591 1116.36 90.1818H1118.37C1118.26 90.9545 1117.97 91.6506 1117.53 92.2699C1117.08 92.8835 1116.49 93.3722 1115.76 93.7358C1115.03 94.0938 1114.19 94.2727 1113.22 94.2727Z" fill="black"/>
<path d="M1270.2 80.9091C1270.1 80.0455 1269.69 79.375 1268.96 78.8977C1268.23 78.4205 1267.34 78.1818 1266.28 78.1818C1265.51 78.1818 1264.83 78.3068 1264.25 78.5568C1263.68 78.8068 1263.23 79.1506 1262.91 79.5881C1262.59 80.0256 1262.43 80.5227 1262.43 81.0795C1262.43 81.5455 1262.54 81.946 1262.76 82.2812C1262.99 82.6108 1263.28 82.8864 1263.63 83.108C1263.98 83.3239 1264.35 83.5028 1264.74 83.6449C1265.13 83.7812 1265.48 83.892 1265.8 83.9773L1267.58 84.4545C1268.03 84.5739 1268.54 84.7386 1269.09 84.9489C1269.66 85.1591 1270.19 85.446 1270.7 85.8097C1271.22 86.1676 1271.65 86.6278 1271.98 87.1903C1272.32 87.7528 1272.49 88.4432 1272.49 89.2614C1272.49 90.2045 1272.24 91.0568 1271.74 91.8182C1271.26 92.5795 1270.54 93.1847 1269.6 93.6335C1268.66 94.0824 1267.52 94.3068 1266.18 94.3068C1264.93 94.3068 1263.85 94.1051 1262.93 93.7017C1262.02 93.2983 1261.31 92.7358 1260.78 92.0142C1260.27 91.2926 1259.97 90.4545 1259.91 89.5H1262.09C1262.15 90.1591 1262.37 90.7045 1262.75 91.1364C1263.15 91.5625 1263.64 91.8807 1264.24 92.0909C1264.84 92.2955 1265.49 92.3977 1266.18 92.3977C1266.99 92.3977 1267.71 92.267 1268.35 92.0057C1268.99 91.7386 1269.5 91.3693 1269.88 90.8977C1270.25 90.4205 1270.44 89.8636 1270.44 89.2273C1270.44 88.6477 1270.28 88.1761 1269.95 87.8125C1269.63 87.4489 1269.2 87.1534 1268.68 86.9261C1268.15 86.6989 1267.58 86.5 1266.96 86.3295L1264.82 85.7159C1263.45 85.3239 1262.37 84.7642 1261.58 84.0369C1260.78 83.3097 1260.38 82.358 1260.38 81.1818C1260.38 80.2045 1260.65 79.3523 1261.18 78.625C1261.71 77.892 1262.43 77.3239 1263.32 76.9205C1264.23 76.5114 1265.24 76.3068 1266.35 76.3068C1267.47 76.3068 1268.47 76.5085 1269.35 76.9119C1270.22 77.3097 1270.92 77.8551 1271.43 78.5483C1271.95 79.2415 1272.22 80.0284 1272.25 80.9091H1270.2ZM1281.18 94.2727C1279.92 94.2727 1278.83 93.9943 1277.91 93.4375C1277 92.875 1276.3 92.0909 1275.81 91.0852C1275.32 90.0739 1275.07 88.8977 1275.07 87.5568C1275.07 86.2159 1275.32 85.0341 1275.81 84.0114C1276.3 82.983 1276.99 82.1818 1277.87 81.608C1278.76 81.0284 1279.79 80.7386 1280.97 80.7386C1281.65 80.7386 1282.33 80.8523 1282.99 81.0795C1283.66 81.3068 1284.26 81.6761 1284.81 82.1875C1285.35 82.6932 1285.79 83.3636 1286.11 84.1989C1286.44 85.0341 1286.6 86.0625 1286.6 87.2841V88.1364H1276.51V86.3977H1284.55C1284.55 85.6591 1284.4 85 1284.11 84.4205C1283.82 83.8409 1283.4 83.3835 1282.86 83.0483C1282.33 82.7131 1281.7 82.5455 1280.97 82.5455C1280.17 82.5455 1279.48 82.7443 1278.89 83.142C1278.31 83.5341 1277.87 84.0455 1277.56 84.6761C1277.24 85.3068 1277.09 85.983 1277.09 86.7045V87.8636C1277.09 88.8523 1277.26 89.6903 1277.6 90.3778C1277.94 91.0597 1278.42 91.5795 1279.04 91.9375C1279.65 92.2898 1280.36 92.4659 1281.18 92.4659C1281.71 92.4659 1282.18 92.392 1282.61 92.2443C1283.04 92.0909 1283.41 91.8636 1283.73 91.5625C1284.04 91.2557 1284.28 90.875 1284.45 90.4205L1286.39 90.9659C1286.19 91.625 1285.84 92.2045 1285.36 92.7045C1284.88 93.1989 1284.28 93.5852 1283.57 93.8636C1282.86 94.1364 1282.06 94.2727 1281.18 94.2727ZM1293.51 94.3068C1292.68 94.3068 1291.93 94.1506 1291.25 93.8381C1290.57 93.5199 1290.04 93.0625 1289.64 92.4659C1289.24 91.8636 1289.04 91.1364 1289.04 90.2841C1289.04 89.5341 1289.19 88.9261 1289.49 88.4602C1289.78 87.9886 1290.18 87.6193 1290.67 87.3523C1291.17 87.0852 1291.71 86.8864 1292.31 86.7557C1292.91 86.6193 1293.52 86.5114 1294.12 86.4318C1294.92 86.3295 1295.56 86.2528 1296.06 86.2017C1296.56 86.1449 1296.92 86.0511 1297.15 85.9205C1297.38 85.7898 1297.5 85.5625 1297.5 85.2386V85.1705C1297.5 84.3295 1297.27 83.6761 1296.81 83.2102C1296.35 82.7443 1295.66 82.5114 1294.74 82.5114C1293.78 82.5114 1293.02 82.7216 1292.48 83.142C1291.93 83.5625 1291.55 84.0114 1291.33 84.4886L1289.42 83.8068C1289.76 83.0114 1290.21 82.392 1290.78 81.9489C1291.36 81.5 1291.98 81.1875 1292.66 81.0114C1293.34 80.8295 1294.01 80.7386 1294.67 80.7386C1295.09 80.7386 1295.57 80.7898 1296.12 80.892C1296.67 80.9886 1297.2 81.1903 1297.71 81.4972C1298.23 81.804 1298.66 82.267 1299 82.8864C1299.34 83.5057 1299.51 84.3352 1299.51 85.375V94H1297.5V92.2273H1297.4C1297.26 92.5114 1297.03 92.8153 1296.71 93.1392C1296.4 93.4631 1295.97 93.7386 1295.44 93.9659C1294.92 94.1932 1294.27 94.3068 1293.51 94.3068ZM1293.82 92.5C1294.61 92.5 1295.28 92.3438 1295.83 92.0312C1296.38 91.7188 1296.79 91.3153 1297.07 90.821C1297.36 90.3267 1297.5 89.8068 1297.5 89.2614V87.4205C1297.41 87.5227 1297.23 87.6165 1296.94 87.7017C1296.65 87.7812 1296.32 87.8523 1295.95 87.9148C1295.58 87.9716 1295.22 88.0227 1294.86 88.0682C1294.52 88.108 1294.24 88.142 1294.02 88.1705C1293.5 88.2386 1293.01 88.3494 1292.56 88.5028C1292.11 88.6506 1291.74 88.875 1291.46 89.1761C1291.19 89.4716 1291.06 89.875 1291.06 90.3864C1291.06 91.0852 1291.31 91.6136 1291.83 91.9716C1292.35 92.3239 1293.02 92.5 1293.82 92.5ZM1303.18 94V80.9091H1305.12V82.8864H1305.26C1305.5 82.2386 1305.93 81.7131 1306.56 81.3097C1307.18 80.9062 1307.89 80.7045 1308.67 80.7045C1308.82 80.7045 1309 80.7074 1309.22 80.7131C1309.44 80.7187 1309.61 80.7273 1309.73 80.7386V82.7841C1309.66 82.767 1309.5 82.7415 1309.26 82.7074C1309.02 82.6676 1308.77 82.6477 1308.5 82.6477C1307.86 82.6477 1307.29 82.7812 1306.79 83.0483C1306.3 83.3097 1305.91 83.6733 1305.62 84.1392C1305.33 84.5994 1305.19 85.125 1305.19 85.7159V94H1303.18ZM1317.03 94.2727C1315.8 94.2727 1314.75 93.983 1313.86 93.4034C1312.97 92.8239 1312.29 92.0256 1311.81 91.0085C1311.34 89.9915 1311.1 88.8295 1311.1 87.5227C1311.1 86.1932 1311.34 85.0199 1311.83 84.0028C1312.33 82.9801 1313.01 82.1818 1313.89 81.608C1314.78 81.0284 1315.81 80.7386 1317 80.7386C1317.92 80.7386 1318.75 80.9091 1319.48 81.25C1320.22 81.5909 1320.83 82.0682 1321.3 82.6818C1321.77 83.2955 1322.06 84.0114 1322.18 84.8295H1320.17C1320.01 84.233 1319.67 83.7045 1319.14 83.2443C1318.62 82.7784 1317.92 82.5455 1317.03 82.5455C1316.25 82.5455 1315.56 82.75 1314.97 83.1591C1314.38 83.5625 1313.93 84.1335 1313.6 84.8722C1313.27 85.6051 1313.11 86.4659 1313.11 87.4545C1313.11 88.4659 1313.27 89.3466 1313.59 90.0966C1313.91 90.8466 1314.37 91.429 1314.95 91.8438C1315.54 92.2585 1316.23 92.4659 1317.03 92.4659C1317.55 92.4659 1318.03 92.375 1318.45 92.1932C1318.88 92.0114 1319.24 91.75 1319.54 91.4091C1319.83 91.0682 1320.04 90.6591 1320.17 90.1818H1322.18C1322.06 90.9545 1321.78 91.6506 1321.33 92.2699C1320.89 92.8835 1320.3 93.3722 1319.57 93.7358C1318.84 94.0938 1318 94.2727 1317.03 94.2727ZM1327.13 86.125V94H1325.12V76.5455H1327.13V82.9545H1327.3C1327.61 82.2784 1328.07 81.7415 1328.68 81.3438C1329.3 80.9403 1330.12 80.7386 1331.15 80.7386C1332.04 80.7386 1332.83 80.9176 1333.5 81.2756C1334.17 81.6278 1334.69 82.1705 1335.06 82.9034C1335.43 83.6307 1335.62 84.5568 1335.62 85.6818V94H1333.61V85.8182C1333.61 84.7784 1333.34 83.9744 1332.8 83.4062C1332.26 82.8324 1331.52 82.5455 1330.57 82.5455C1329.91 82.5455 1329.32 82.6847 1328.8 82.9631C1328.28 83.2415 1327.87 83.6477 1327.57 84.1818C1327.28 84.7159 1327.13 85.3636 1327.13 86.125Z" fill="black"/>
<rect x="702" y="236" width="657" height="447" fill="#D9D9D9"/>
<rect x="57" y="234" width="450" height="558" fill="#D9D9D9"/>
<rect x="57" y="857" width="1312" height="142" fill="#D9D9D9"/>
<path d="M716.659 206.909C716.557 206.045 716.142 205.375 715.415 204.898C714.688 204.42 713.795 204.182 712.739 204.182C711.966 204.182 711.29 204.307 710.71 204.557C710.136 204.807 709.688 205.151 709.364 205.588C709.045 206.026 708.886 206.523 708.886 207.08C708.886 207.545 708.997 207.946 709.219 208.281C709.446 208.611 709.736 208.886 710.088 209.108C710.44 209.324 710.81 209.503 711.196 209.645C711.582 209.781 711.938 209.892 712.261 209.977L714.034 210.455C714.489 210.574 714.994 210.739 715.551 210.949C716.114 211.159 716.651 211.446 717.162 211.81C717.679 212.168 718.105 212.628 718.44 213.19C718.776 213.753 718.943 214.443 718.943 215.261C718.943 216.205 718.696 217.057 718.202 217.818C717.713 218.58 716.997 219.185 716.054 219.634C715.116 220.082 713.977 220.307 712.636 220.307C711.386 220.307 710.304 220.105 709.389 219.702C708.48 219.298 707.764 218.736 707.241 218.014C706.724 217.293 706.432 216.455 706.364 215.5H708.545C708.602 216.159 708.824 216.705 709.21 217.136C709.602 217.562 710.097 217.881 710.693 218.091C711.295 218.295 711.943 218.398 712.636 218.398C713.443 218.398 714.168 218.267 714.81 218.006C715.452 217.739 715.96 217.369 716.335 216.898C716.71 216.42 716.898 215.864 716.898 215.227C716.898 214.648 716.736 214.176 716.412 213.812C716.088 213.449 715.662 213.153 715.134 212.926C714.605 212.699 714.034 212.5 713.42 212.33L711.273 211.716C709.909 211.324 708.83 210.764 708.034 210.037C707.239 209.31 706.841 208.358 706.841 207.182C706.841 206.205 707.105 205.352 707.634 204.625C708.168 203.892 708.884 203.324 709.781 202.92C710.685 202.511 711.693 202.307 712.807 202.307C713.932 202.307 714.932 202.509 715.807 202.912C716.682 203.31 717.375 203.855 717.886 204.548C718.403 205.241 718.676 206.028 718.705 206.909H716.659ZM724.157 202.545V220H722.146V202.545H724.157ZM733.33 220.273C732.068 220.273 730.98 219.994 730.065 219.438C729.156 218.875 728.455 218.091 727.96 217.085C727.472 216.074 727.227 214.898 727.227 213.557C727.227 212.216 727.472 211.034 727.96 210.011C728.455 208.983 729.142 208.182 730.023 207.608C730.909 207.028 731.943 206.739 733.125 206.739C733.807 206.739 734.48 206.852 735.145 207.08C735.81 207.307 736.415 207.676 736.96 208.188C737.506 208.693 737.94 209.364 738.264 210.199C738.588 211.034 738.75 212.062 738.75 213.284V214.136H728.659V212.398H736.705C736.705 211.659 736.557 211 736.261 210.42C735.972 209.841 735.557 209.384 735.017 209.048C734.483 208.713 733.852 208.545 733.125 208.545C732.324 208.545 731.631 208.744 731.045 209.142C730.466 209.534 730.02 210.045 729.707 210.676C729.395 211.307 729.239 211.983 729.239 212.705V213.864C729.239 214.852 729.409 215.69 729.75 216.378C730.097 217.06 730.577 217.58 731.19 217.938C731.804 218.29 732.517 218.466 733.33 218.466C733.858 218.466 734.335 218.392 734.761 218.244C735.193 218.091 735.565 217.864 735.878 217.562C736.19 217.256 736.432 216.875 736.602 216.42L738.545 216.966C738.341 217.625 737.997 218.205 737.514 218.705C737.031 219.199 736.435 219.585 735.724 219.864C735.014 220.136 734.216 220.273 733.33 220.273ZM747.298 220.273C746.037 220.273 744.949 219.994 744.034 219.438C743.125 218.875 742.423 218.091 741.929 217.085C741.44 216.074 741.196 214.898 741.196 213.557C741.196 212.216 741.44 211.034 741.929 210.011C742.423 208.983 743.111 208.182 743.991 207.608C744.878 207.028 745.912 206.739 747.094 206.739C747.776 206.739 748.449 206.852 749.114 207.08C749.778 207.307 750.384 207.676 750.929 208.188C751.474 208.693 751.909 209.364 752.233 210.199C752.557 211.034 752.719 212.062 752.719 213.284V214.136H742.628V212.398H750.673C750.673 211.659 750.526 211 750.23 210.42C749.94 209.841 749.526 209.384 748.986 209.048C748.452 208.713 747.821 208.545 747.094 208.545C746.293 208.545 745.599 208.744 745.014 209.142C744.435 209.534 743.989 210.045 743.676 210.676C743.364 211.307 743.207 211.983 743.207 212.705V213.864C743.207 214.852 743.378 215.69 743.719 216.378C744.065 217.06 744.545 217.58 745.159 217.938C745.773 218.29 746.486 218.466 747.298 218.466C747.827 218.466 748.304 218.392 748.73 218.244C749.162 218.091 749.534 217.864 749.847 217.562C750.159 217.256 750.401 216.875 750.571 216.42L752.514 216.966C752.31 217.625 751.966 218.205 751.483 218.705C751 219.199 750.403 219.585 749.693 219.864C748.983 220.136 748.185 220.273 747.298 220.273ZM755.778 224.909V206.909H757.722V208.989H757.96C758.108 208.761 758.313 208.472 758.574 208.119C758.841 207.761 759.222 207.443 759.716 207.165C760.216 206.881 760.892 206.739 761.744 206.739C762.847 206.739 763.818 207.014 764.659 207.565C765.5 208.116 766.156 208.898 766.628 209.909C767.099 210.92 767.335 212.114 767.335 213.489C767.335 214.875 767.099 216.077 766.628 217.094C766.156 218.105 765.503 218.889 764.668 219.446C763.832 219.997 762.869 220.273 761.778 220.273C760.938 220.273 760.264 220.134 759.759 219.855C759.253 219.571 758.864 219.25 758.591 218.892C758.318 218.528 758.108 218.227 757.96 217.989H757.79V224.909H755.778ZM757.756 213.455C757.756 214.443 757.901 215.315 758.19 216.071C758.48 216.821 758.903 217.409 759.46 217.835C760.017 218.256 760.699 218.466 761.506 218.466C762.347 218.466 763.048 218.244 763.611 217.801C764.179 217.352 764.605 216.75 764.889 215.994C765.179 215.233 765.324 214.386 765.324 213.455C765.324 212.534 765.182 211.705 764.898 210.966C764.619 210.222 764.196 209.634 763.628 209.202C763.065 208.764 762.358 208.545 761.506 208.545C760.688 208.545 760 208.753 759.443 209.168C758.886 209.577 758.466 210.151 758.182 210.889C757.898 211.622 757.756 212.477 757.756 213.455ZM782.983 206.909V208.614H775.926V206.909H782.983ZM778.04 220V205.102C778.04 204.352 778.216 203.727 778.568 203.227C778.92 202.727 779.378 202.352 779.94 202.102C780.503 201.852 781.097 201.727 781.722 201.727C782.216 201.727 782.619 201.767 782.932 201.847C783.244 201.926 783.477 202 783.631 202.068L783.051 203.807C782.949 203.773 782.807 203.73 782.625 203.679C782.449 203.628 782.216 203.602 781.926 203.602C781.261 203.602 780.781 203.77 780.486 204.105C780.196 204.44 780.051 204.932 780.051 205.58V220H778.04ZM790.581 220.273C789.399 220.273 788.362 219.991 787.47 219.429C786.584 218.866 785.891 218.08 785.391 217.068C784.896 216.057 784.649 214.875 784.649 213.523C784.649 212.159 784.896 210.969 785.391 209.952C785.891 208.935 786.584 208.145 787.47 207.582C788.362 207.02 789.399 206.739 790.581 206.739C791.763 206.739 792.797 207.02 793.683 207.582C794.575 208.145 795.268 208.935 795.763 209.952C796.263 210.969 796.513 212.159 796.513 213.523C796.513 214.875 796.263 216.057 795.763 217.068C795.268 218.08 794.575 218.866 793.683 219.429C792.797 219.991 791.763 220.273 790.581 220.273ZM790.581 218.466C791.479 218.466 792.217 218.236 792.797 217.776C793.376 217.315 793.805 216.71 794.084 215.96C794.362 215.21 794.501 214.398 794.501 213.523C794.501 212.648 794.362 211.832 794.084 211.077C793.805 210.321 793.376 209.71 792.797 209.244C792.217 208.778 791.479 208.545 790.581 208.545C789.683 208.545 788.945 208.778 788.365 209.244C787.786 209.71 787.357 210.321 787.078 211.077C786.8 211.832 786.661 212.648 786.661 213.523C786.661 214.398 786.8 215.21 787.078 215.96C787.357 216.71 787.786 217.315 788.365 217.776C788.945 218.236 789.683 218.466 790.581 218.466ZM799.583 220V206.909H801.526V208.886H801.663C801.901 208.239 802.333 207.713 802.958 207.31C803.583 206.906 804.288 206.705 805.072 206.705C805.219 206.705 805.404 206.707 805.626 206.713C805.847 206.719 806.015 206.727 806.129 206.739V208.784C806.06 208.767 805.904 208.741 805.66 208.707C805.421 208.668 805.168 208.648 804.901 208.648C804.265 208.648 803.697 208.781 803.197 209.048C802.702 209.31 802.31 209.673 802.021 210.139C801.737 210.599 801.594 211.125 801.594 211.716V220H799.583ZM820.956 206.909V208.614H814.172V206.909H820.956ZM816.149 203.773H818.161V216.25C818.161 216.818 818.243 217.244 818.408 217.528C818.578 217.807 818.794 217.994 819.055 218.091C819.322 218.182 819.604 218.227 819.899 218.227C820.121 218.227 820.303 218.216 820.445 218.193C820.587 218.165 820.7 218.142 820.786 218.125L821.195 219.932C821.058 219.983 820.868 220.034 820.624 220.085C820.379 220.142 820.07 220.17 819.695 220.17C819.126 220.17 818.57 220.048 818.024 219.804C817.484 219.56 817.036 219.188 816.678 218.688C816.325 218.188 816.149 217.557 816.149 216.795V203.773ZM826.274 212.125V220H824.263V202.545H826.274V208.955H826.445C826.751 208.278 827.212 207.741 827.825 207.344C828.445 206.94 829.268 206.739 830.297 206.739C831.189 206.739 831.97 206.918 832.641 207.276C833.311 207.628 833.831 208.17 834.2 208.903C834.575 209.631 834.763 210.557 834.763 211.682V220H832.751V211.818C832.751 210.778 832.482 209.974 831.942 209.406C831.408 208.832 830.666 208.545 829.717 208.545C829.058 208.545 828.467 208.685 827.945 208.963C827.428 209.241 827.018 209.648 826.717 210.182C826.422 210.716 826.274 211.364 826.274 212.125ZM843.931 220.273C842.67 220.273 841.582 219.994 840.667 219.438C839.758 218.875 839.056 218.091 838.562 217.085C838.073 216.074 837.829 214.898 837.829 213.557C837.829 212.216 838.073 211.034 838.562 210.011C839.056 208.983 839.744 208.182 840.624 207.608C841.511 207.028 842.545 206.739 843.727 206.739C844.408 206.739 845.082 206.852 845.746 207.08C846.411 207.307 847.016 207.676 847.562 208.188C848.107 208.693 848.542 209.364 848.866 210.199C849.19 211.034 849.352 212.062 849.352 213.284V214.136H839.261V212.398H847.306C847.306 211.659 847.158 211 846.863 210.42C846.573 209.841 846.158 209.384 845.619 209.048C845.085 208.713 844.454 208.545 843.727 208.545C842.925 208.545 842.232 208.744 841.647 209.142C841.067 209.534 840.621 210.045 840.309 210.676C839.996 211.307 839.84 211.983 839.84 212.705V213.864C839.84 214.852 840.011 215.69 840.352 216.378C840.698 217.06 841.178 217.58 841.792 217.938C842.406 218.29 843.119 218.466 843.931 218.466C844.46 218.466 844.937 218.392 845.363 218.244C845.795 218.091 846.167 217.864 846.479 217.562C846.792 217.256 847.033 216.875 847.204 216.42L849.147 216.966C848.942 217.625 848.599 218.205 848.116 218.705C847.633 219.199 847.036 219.585 846.326 219.864C845.616 220.136 844.817 220.273 843.931 220.273ZM859.161 224.909V206.909H861.104V208.989H861.343C861.491 208.761 861.695 208.472 861.957 208.119C862.224 207.761 862.604 207.443 863.099 207.165C863.599 206.881 864.275 206.739 865.127 206.739C866.229 206.739 867.201 207.014 868.042 207.565C868.883 208.116 869.539 208.898 870.011 209.909C870.482 210.92 870.718 212.114 870.718 213.489C870.718 214.875 870.482 216.077 870.011 217.094C869.539 218.105 868.886 218.889 868.05 219.446C867.215 219.997 866.252 220.273 865.161 220.273C864.32 220.273 863.647 220.134 863.141 219.855C862.636 219.571 862.246 219.25 861.974 218.892C861.701 218.528 861.491 218.227 861.343 217.989H861.173V224.909H859.161ZM861.138 213.455C861.138 214.443 861.283 215.315 861.573 216.071C861.863 216.821 862.286 217.409 862.843 217.835C863.4 218.256 864.082 218.466 864.888 218.466C865.729 218.466 866.431 218.244 866.994 217.801C867.562 217.352 867.988 216.75 868.272 215.994C868.562 215.233 868.707 214.386 868.707 213.455C868.707 212.534 868.565 211.705 868.281 210.966C868.002 210.222 867.579 209.634 867.011 209.202C866.448 208.764 865.741 208.545 864.888 208.545C864.07 208.545 863.383 208.753 862.826 209.168C862.269 209.577 861.849 210.151 861.565 210.889C861.281 211.622 861.138 212.477 861.138 213.455ZM877.638 220.307C876.809 220.307 876.056 220.151 875.38 219.838C874.704 219.52 874.167 219.062 873.769 218.466C873.371 217.864 873.173 217.136 873.173 216.284C873.173 215.534 873.32 214.926 873.616 214.46C873.911 213.989 874.306 213.619 874.8 213.352C875.295 213.085 875.84 212.886 876.437 212.756C877.039 212.619 877.644 212.511 878.252 212.432C879.048 212.33 879.692 212.253 880.187 212.202C880.687 212.145 881.05 212.051 881.278 211.92C881.511 211.79 881.627 211.562 881.627 211.239V211.17C881.627 210.33 881.397 209.676 880.937 209.21C880.482 208.744 879.792 208.511 878.866 208.511C877.906 208.511 877.153 208.722 876.607 209.142C876.062 209.562 875.678 210.011 875.457 210.489L873.548 209.807C873.888 209.011 874.343 208.392 874.911 207.949C875.485 207.5 876.11 207.187 876.786 207.011C877.468 206.83 878.138 206.739 878.798 206.739C879.218 206.739 879.701 206.79 880.246 206.892C880.798 206.989 881.329 207.19 881.84 207.497C882.357 207.804 882.786 208.267 883.127 208.886C883.468 209.506 883.638 210.335 883.638 211.375V220H881.627V218.227H881.525C881.388 218.511 881.161 218.815 880.843 219.139C880.525 219.463 880.102 219.739 879.573 219.966C879.045 220.193 878.4 220.307 877.638 220.307ZM877.945 218.5C878.741 218.5 879.411 218.344 879.957 218.031C880.508 217.719 880.923 217.315 881.201 216.821C881.485 216.327 881.627 215.807 881.627 215.261V213.42C881.542 213.523 881.354 213.616 881.065 213.702C880.781 213.781 880.451 213.852 880.076 213.915C879.707 213.972 879.346 214.023 878.994 214.068C878.647 214.108 878.366 214.142 878.15 214.17C877.627 214.239 877.138 214.349 876.684 214.503C876.235 214.651 875.871 214.875 875.593 215.176C875.32 215.472 875.184 215.875 875.184 216.386C875.184 217.085 875.442 217.614 875.96 217.972C876.482 218.324 877.144 218.5 877.945 218.5ZM896.582 209.841L894.776 210.352C894.662 210.051 894.494 209.759 894.273 209.474C894.057 209.185 893.761 208.946 893.386 208.759C893.011 208.571 892.531 208.477 891.946 208.477C891.145 208.477 890.477 208.662 889.943 209.031C889.415 209.395 889.151 209.858 889.151 210.42C889.151 210.92 889.332 211.315 889.696 211.605C890.06 211.895 890.628 212.136 891.401 212.33L893.344 212.807C894.514 213.091 895.386 213.526 895.96 214.111C896.534 214.69 896.821 215.437 896.821 216.352C896.821 217.102 896.605 217.773 896.173 218.364C895.747 218.955 895.151 219.42 894.384 219.761C893.616 220.102 892.724 220.273 891.707 220.273C890.372 220.273 889.267 219.983 888.392 219.403C887.517 218.824 886.963 217.977 886.73 216.864L888.639 216.386C888.821 217.091 889.165 217.619 889.67 217.972C890.182 218.324 890.849 218.5 891.673 218.5C892.611 218.5 893.355 218.301 893.906 217.903C894.463 217.5 894.741 217.017 894.741 216.455C894.741 216 894.582 215.619 894.264 215.312C893.946 215 893.457 214.767 892.798 214.614L890.616 214.102C889.418 213.818 888.537 213.378 887.974 212.781C887.418 212.179 887.139 211.426 887.139 210.523C887.139 209.784 887.347 209.131 887.761 208.562C888.182 207.994 888.753 207.548 889.474 207.224C890.202 206.901 891.026 206.739 891.946 206.739C893.241 206.739 894.259 207.023 894.997 207.591C895.741 208.159 896.27 208.909 896.582 209.841ZM905.542 206.909V208.614H898.758V206.909H905.542ZM900.735 203.773H902.746V216.25C902.746 216.818 902.829 217.244 902.994 217.528C903.164 217.807 903.38 217.994 903.641 218.091C903.908 218.182 904.19 218.227 904.485 218.227C904.707 218.227 904.888 218.216 905.031 218.193C905.173 218.165 905.286 218.142 905.371 218.125L905.781 219.932C905.644 219.983 905.454 220.034 905.21 220.085C904.965 220.142 904.656 220.17 904.281 220.17C903.712 220.17 903.156 220.048 902.61 219.804C902.07 219.56 901.621 219.188 901.263 218.688C900.911 218.188 900.735 217.557 900.735 216.795V203.773ZM916.817 206.909L919.954 212.261L923.09 206.909H925.408L921.181 213.455L925.408 220H923.09L919.954 214.92L916.817 220H914.499L918.658 213.455L914.499 206.909H916.817ZM939.972 220.273C938.881 220.273 937.918 219.997 937.082 219.446C936.247 218.889 935.594 218.105 935.122 217.094C934.651 216.077 934.415 214.875 934.415 213.489C934.415 212.114 934.651 210.92 935.122 209.909C935.594 208.898 936.25 208.116 937.091 207.565C937.932 207.014 938.903 206.739 940.006 206.739C940.858 206.739 941.531 206.881 942.026 207.165C942.526 207.443 942.906 207.761 943.168 208.119C943.435 208.472 943.642 208.761 943.79 208.989H943.96V202.545H945.972V220H944.028V217.989H943.79C943.642 218.227 943.432 218.528 943.159 218.892C942.886 219.25 942.497 219.571 941.991 219.855C941.486 220.134 940.813 220.273 939.972 220.273ZM940.244 218.466C941.051 218.466 941.733 218.256 942.29 217.835C942.847 217.409 943.27 216.821 943.56 216.071C943.849 215.315 943.994 214.443 943.994 213.455C943.994 212.477 943.852 211.622 943.568 210.889C943.284 210.151 942.864 209.577 942.307 209.168C941.75 208.753 941.063 208.545 940.244 208.545C939.392 208.545 938.682 208.764 938.114 209.202C937.551 209.634 937.128 210.222 936.844 210.966C936.565 211.705 936.426 212.534 936.426 213.455C936.426 214.386 936.568 215.233 936.852 215.994C937.142 216.75 937.568 217.352 938.131 217.801C938.699 218.244 939.403 218.466 940.244 218.466ZM953.787 220.307C952.957 220.307 952.205 220.151 951.528 219.838C950.852 219.52 950.315 219.062 949.918 218.466C949.52 217.864 949.321 217.136 949.321 216.284C949.321 215.534 949.469 214.926 949.764 214.46C950.06 213.989 950.455 213.619 950.949 213.352C951.443 213.085 951.989 212.886 952.585 212.756C953.188 212.619 953.793 212.511 954.401 212.432C955.196 212.33 955.841 212.253 956.335 212.202C956.835 212.145 957.199 212.051 957.426 211.92C957.659 211.79 957.776 211.562 957.776 211.239V211.17C957.776 210.33 957.545 209.676 957.085 209.21C956.631 208.744 955.94 208.511 955.014 208.511C954.054 208.511 953.301 208.722 952.756 209.142C952.21 209.562 951.827 210.011 951.605 210.489L949.696 209.807C950.037 209.011 950.491 208.392 951.06 207.949C951.634 207.5 952.259 207.187 952.935 207.011C953.616 206.83 954.287 206.739 954.946 206.739C955.366 206.739 955.849 206.79 956.395 206.892C956.946 206.989 957.477 207.19 957.989 207.497C958.506 207.804 958.935 208.267 959.276 208.886C959.616 209.506 959.787 210.335 959.787 211.375V220H957.776V218.227H957.673C957.537 218.511 957.31 218.815 956.991 219.139C956.673 219.463 956.25 219.739 955.722 219.966C955.193 220.193 954.548 220.307 953.787 220.307ZM954.094 218.5C954.889 218.5 955.56 218.344 956.105 218.031C956.656 217.719 957.071 217.315 957.349 216.821C957.634 216.327 957.776 215.807 957.776 215.261V213.42C957.69 213.523 957.503 213.616 957.213 213.702C956.929 213.781 956.599 213.852 956.224 213.915C955.855 213.972 955.494 214.023 955.142 214.068C954.795 214.108 954.514 214.142 954.298 214.17C953.776 214.239 953.287 214.349 952.832 214.503C952.384 214.651 952.02 214.875 951.741 215.176C951.469 215.472 951.332 215.875 951.332 216.386C951.332 217.085 951.591 217.614 952.108 217.972C952.631 218.324 953.293 218.5 954.094 218.5ZM964.285 224.909C963.944 224.909 963.64 224.881 963.373 224.824C963.106 224.773 962.921 224.722 962.819 224.67L963.33 222.898C963.819 223.023 964.251 223.068 964.626 223.034C965.001 223 965.333 222.832 965.623 222.531C965.918 222.236 966.188 221.756 966.433 221.091L966.808 220.068L961.967 206.909H964.148L967.762 217.341H967.898L971.512 206.909H973.694L968.137 221.909C967.887 222.585 967.577 223.145 967.208 223.588C966.839 224.037 966.41 224.369 965.921 224.585C965.438 224.801 964.893 224.909 964.285 224.909ZM985.621 209.841L983.815 210.352C983.701 210.051 983.533 209.759 983.312 209.474C983.096 209.185 982.8 208.946 982.425 208.759C982.05 208.571 981.57 208.477 980.985 208.477C980.184 208.477 979.516 208.662 978.982 209.031C978.454 209.395 978.19 209.858 978.19 210.42C978.19 210.92 978.371 211.315 978.735 211.605C979.099 211.895 979.667 212.136 980.44 212.33L982.383 212.807C983.553 213.091 984.425 213.526 984.999 214.111C985.573 214.69 985.86 215.437 985.86 216.352C985.86 217.102 985.644 217.773 985.212 218.364C984.786 218.955 984.19 219.42 983.423 219.761C982.656 220.102 981.763 220.273 980.746 220.273C979.411 220.273 978.306 219.983 977.431 219.403C976.556 218.824 976.002 217.977 975.769 216.864L977.678 216.386C977.86 217.091 978.204 217.619 978.71 217.972C979.221 218.324 979.888 218.5 980.712 218.5C981.65 218.5 982.394 218.301 982.945 217.903C983.502 217.5 983.781 217.017 983.781 216.455C983.781 216 983.621 215.619 983.303 215.312C982.985 215 982.496 214.767 981.837 214.614L979.656 214.102C978.457 213.818 977.576 213.378 977.013 212.781C976.457 212.179 976.178 211.426 976.178 210.523C976.178 209.784 976.386 209.131 976.8 208.562C977.221 207.994 977.792 207.548 978.513 207.224C979.241 206.901 980.065 206.739 980.985 206.739C982.281 206.739 983.298 207.023 984.036 207.591C984.781 208.159 985.309 208.909 985.621 209.841ZM990.354 220.136C989.933 220.136 989.572 219.986 989.271 219.685C988.97 219.384 988.82 219.023 988.82 218.602C988.82 218.182 988.97 217.821 989.271 217.52C989.572 217.219 989.933 217.068 990.354 217.068C990.774 217.068 991.135 217.219 991.436 217.52C991.737 217.821 991.888 218.182 991.888 218.602C991.888 218.881 991.817 219.136 991.675 219.369C991.538 219.602 991.354 219.79 991.121 219.932C990.893 220.068 990.638 220.136 990.354 220.136ZM990.354 210.42C989.933 210.42 989.572 210.27 989.271 209.969C988.97 209.668 988.82 209.307 988.82 208.886C988.82 208.466 988.97 208.105 989.271 207.804C989.572 207.503 989.933 207.352 990.354 207.352C990.774 207.352 991.135 207.503 991.436 207.804C991.737 208.105 991.888 208.466 991.888 208.886C991.888 209.165 991.817 209.42 991.675 209.653C991.538 209.886 991.354 210.074 991.121 210.216C990.893 210.352 990.638 210.42 990.354 210.42Z" fill="black"/>
<path d="M57.6136 191.545H60.0341L64.875 199.693H65.0795L69.9205 191.545H72.3409L66.0341 201.807V209H63.9205V201.807L57.6136 191.545ZM78.2685 209.273C77.0866 209.273 76.0497 208.991 75.1577 208.429C74.2713 207.866 73.5781 207.08 73.0781 206.068C72.5838 205.057 72.3366 203.875 72.3366 202.523C72.3366 201.159 72.5838 199.969 73.0781 198.952C73.5781 197.935 74.2713 197.145 75.1577 196.582C76.0497 196.02 77.0866 195.739 78.2685 195.739C79.4503 195.739 80.4844 196.02 81.3707 196.582C82.2628 197.145 82.956 197.935 83.4503 198.952C83.9503 199.969 84.2003 201.159 84.2003 202.523C84.2003 203.875 83.9503 205.057 83.4503 206.068C82.956 207.08 82.2628 207.866 81.3707 208.429C80.4844 208.991 79.4503 209.273 78.2685 209.273ZM78.2685 207.466C79.1662 207.466 79.9048 207.236 80.4844 206.776C81.0639 206.315 81.4929 205.71 81.7713 204.96C82.0497 204.21 82.1889 203.398 82.1889 202.523C82.1889 201.648 82.0497 200.832 81.7713 200.077C81.4929 199.321 81.0639 198.71 80.4844 198.244C79.9048 197.778 79.1662 197.545 78.2685 197.545C77.3707 197.545 76.6321 197.778 76.0526 198.244C75.473 198.71 75.044 199.321 74.7656 200.077C74.4872 200.832 74.348 201.648 74.348 202.523C74.348 203.398 74.4872 204.21 74.7656 204.96C75.044 205.71 75.473 206.315 76.0526 206.776C76.6321 207.236 77.3707 207.466 78.2685 207.466ZM95.5206 203.648V195.909H97.532V209H95.5206V206.784H95.3842C95.0774 207.449 94.6001 208.014 93.9524 208.48C93.3047 208.94 92.4865 209.17 91.4979 209.17C90.6797 209.17 89.9524 208.991 89.3161 208.634C88.6797 208.27 88.1797 207.724 87.8161 206.997C87.4524 206.264 87.2706 205.341 87.2706 204.227V195.909H89.282V204.091C89.282 205.045 89.549 205.807 90.0831 206.375C90.6229 206.943 91.3104 207.227 92.1456 207.227C92.6456 207.227 93.1541 207.099 93.6712 206.844C94.1939 206.588 94.6314 206.196 94.9837 205.668C95.3416 205.139 95.5206 204.466 95.5206 203.648ZM101.216 209V195.909H103.159V197.886H103.295C103.534 197.239 103.966 196.713 104.591 196.31C105.216 195.906 105.92 195.705 106.705 195.705C106.852 195.705 107.037 195.707 107.259 195.713C107.48 195.719 107.648 195.727 107.761 195.739V197.784C107.693 197.767 107.537 197.741 107.293 197.707C107.054 197.668 106.801 197.648 106.534 197.648C105.898 197.648 105.33 197.781 104.83 198.048C104.335 198.31 103.943 198.673 103.653 199.139C103.369 199.599 103.227 200.125 103.227 200.716V209H101.216ZM117.168 209V191.545H123.066C124.435 191.545 125.555 191.793 126.424 192.287C127.299 192.776 127.947 193.438 128.367 194.273C128.788 195.108 128.998 196.04 128.998 197.068C128.998 198.097 128.788 199.031 128.367 199.872C127.952 200.713 127.31 201.384 126.441 201.884C125.572 202.378 124.458 202.625 123.1 202.625H118.873V200.75H123.032C123.969 200.75 124.722 200.588 125.29 200.264C125.859 199.94 126.271 199.503 126.526 198.952C126.788 198.395 126.918 197.767 126.918 197.068C126.918 196.369 126.788 195.744 126.526 195.193C126.271 194.642 125.856 194.21 125.282 193.898C124.708 193.58 123.947 193.42 122.998 193.42H119.282V209H117.168ZM134.141 191.545V209H132.13V191.545H134.141ZM141.678 209.307C140.848 209.307 140.095 209.151 139.419 208.838C138.743 208.52 138.206 208.062 137.808 207.466C137.411 206.864 137.212 206.136 137.212 205.284C137.212 204.534 137.359 203.926 137.655 203.46C137.95 202.989 138.345 202.619 138.839 202.352C139.334 202.085 139.879 201.886 140.476 201.756C141.078 201.619 141.683 201.511 142.291 201.432C143.087 201.33 143.732 201.253 144.226 201.202C144.726 201.145 145.089 201.051 145.317 200.92C145.55 200.79 145.666 200.562 145.666 200.239V200.17C145.666 199.33 145.436 198.676 144.976 198.21C144.521 197.744 143.831 197.511 142.905 197.511C141.945 197.511 141.192 197.722 140.646 198.142C140.101 198.562 139.717 199.011 139.496 199.489L137.587 198.807C137.928 198.011 138.382 197.392 138.95 196.949C139.524 196.5 140.149 196.187 140.825 196.011C141.507 195.83 142.178 195.739 142.837 195.739C143.257 195.739 143.74 195.79 144.286 195.892C144.837 195.989 145.368 196.19 145.879 196.497C146.396 196.804 146.825 197.267 147.166 197.886C147.507 198.506 147.678 199.335 147.678 200.375V209H145.666V207.227H145.564C145.428 207.511 145.2 207.815 144.882 208.139C144.564 208.463 144.141 208.739 143.612 208.966C143.084 209.193 142.439 209.307 141.678 209.307ZM141.984 207.5C142.78 207.5 143.45 207.344 143.996 207.031C144.547 206.719 144.962 206.315 145.24 205.821C145.524 205.327 145.666 204.807 145.666 204.261V202.42C145.581 202.523 145.393 202.616 145.104 202.702C144.82 202.781 144.49 202.852 144.115 202.915C143.746 202.972 143.385 203.023 143.033 203.068C142.686 203.108 142.405 203.142 142.189 203.17C141.666 203.239 141.178 203.349 140.723 203.503C140.274 203.651 139.911 203.875 139.632 204.176C139.359 204.472 139.223 204.875 139.223 205.386C139.223 206.085 139.482 206.614 139.999 206.972C140.521 207.324 141.183 207.5 141.984 207.5ZM152.175 213.909C151.835 213.909 151.531 213.881 151.263 213.824C150.996 213.773 150.812 213.722 150.71 213.67L151.221 211.898C151.71 212.023 152.141 212.068 152.516 212.034C152.891 212 153.224 211.832 153.513 211.531C153.809 211.236 154.079 210.756 154.323 210.091L154.698 209.068L149.857 195.909H152.039L155.653 206.341H155.789L159.403 195.909H161.585L156.028 210.909C155.778 211.585 155.468 212.145 155.099 212.588C154.729 213.037 154.3 213.369 153.812 213.585C153.329 213.801 152.783 213.909 152.175 213.909ZM166.251 191.545V209H164.239V191.545H166.251ZM169.935 209V195.909H171.946V209H169.935ZM170.957 193.727C170.565 193.727 170.227 193.594 169.943 193.327C169.665 193.06 169.526 192.739 169.526 192.364C169.526 191.989 169.665 191.668 169.943 191.401C170.227 191.134 170.565 191 170.957 191C171.349 191 171.685 191.134 171.963 191.401C172.247 191.668 172.389 191.989 172.389 192.364C172.389 192.739 172.247 193.06 171.963 193.327C171.685 193.594 171.349 193.727 170.957 193.727ZM184.903 198.841L183.096 199.352C182.982 199.051 182.815 198.759 182.593 198.474C182.377 198.185 182.082 197.946 181.707 197.759C181.332 197.571 180.852 197.477 180.266 197.477C179.465 197.477 178.798 197.662 178.263 198.031C177.735 198.395 177.471 198.858 177.471 199.42C177.471 199.92 177.653 200.315 178.016 200.605C178.38 200.895 178.948 201.136 179.721 201.33L181.664 201.807C182.835 202.091 183.707 202.526 184.281 203.111C184.854 203.69 185.141 204.437 185.141 205.352C185.141 206.102 184.925 206.773 184.494 207.364C184.067 207.955 183.471 208.42 182.704 208.761C181.937 209.102 181.045 209.273 180.028 209.273C178.692 209.273 177.587 208.983 176.712 208.403C175.837 207.824 175.283 206.977 175.05 205.864L176.96 205.386C177.141 206.091 177.485 206.619 177.991 206.972C178.502 207.324 179.17 207.5 179.994 207.5C180.931 207.5 181.675 207.301 182.227 206.903C182.783 206.5 183.062 206.017 183.062 205.455C183.062 205 182.903 204.619 182.585 204.312C182.266 204 181.778 203.767 181.119 203.614L178.937 203.102C177.738 202.818 176.857 202.378 176.295 201.781C175.738 201.179 175.46 200.426 175.46 199.523C175.46 198.784 175.667 198.131 176.082 197.562C176.502 196.994 177.073 196.548 177.795 196.224C178.522 195.901 179.346 195.739 180.266 195.739C181.562 195.739 182.579 196.023 183.317 196.591C184.062 197.159 184.59 197.909 184.903 198.841ZM193.862 195.909V197.614H187.078V195.909H193.862ZM189.055 192.773H191.067V205.25C191.067 205.818 191.149 206.244 191.314 206.528C191.484 206.807 191.7 206.994 191.962 207.091C192.229 207.182 192.51 207.227 192.805 207.227C193.027 207.227 193.209 207.216 193.351 207.193C193.493 207.165 193.607 207.142 193.692 207.125L194.101 208.932C193.964 208.983 193.774 209.034 193.53 209.085C193.286 209.142 192.976 209.17 192.601 209.17C192.033 209.17 191.476 209.048 190.93 208.804C190.391 208.56 189.942 208.188 189.584 207.688C189.232 207.188 189.055 206.557 189.055 205.795V192.773ZM205.926 198.841L204.119 199.352C204.006 199.051 203.838 198.759 203.616 198.474C203.401 198.185 203.105 197.946 202.73 197.759C202.355 197.571 201.875 197.477 201.29 197.477C200.489 197.477 199.821 197.662 199.287 198.031C198.759 198.395 198.494 198.858 198.494 199.42C198.494 199.92 198.676 200.315 199.04 200.605C199.403 200.895 199.972 201.136 200.744 201.33L202.688 201.807C203.858 202.091 204.73 202.526 205.304 203.111C205.878 203.69 206.165 204.437 206.165 205.352C206.165 206.102 205.949 206.773 205.517 207.364C205.091 207.955 204.494 208.42 203.727 208.761C202.96 209.102 202.068 209.273 201.051 209.273C199.716 209.273 198.611 208.983 197.736 208.403C196.861 207.824 196.307 206.977 196.074 205.864L197.983 205.386C198.165 206.091 198.509 206.619 199.014 206.972C199.526 207.324 200.193 207.5 201.017 207.5C201.955 207.5 202.699 207.301 203.25 206.903C203.807 206.5 204.085 206.017 204.085 205.455C204.085 205 203.926 204.619 203.608 204.312C203.29 204 202.801 203.767 202.142 203.614L199.96 203.102C198.761 202.818 197.881 202.378 197.318 201.781C196.761 201.179 196.483 200.426 196.483 199.523C196.483 198.784 196.69 198.131 197.105 197.562C197.526 196.994 198.097 196.548 198.818 196.224C199.545 195.901 200.369 195.739 201.29 195.739C202.585 195.739 203.602 196.023 204.341 196.591C205.085 197.159 205.614 197.909 205.926 198.841Z" fill="black"/>
<path d="M1010.5 464C1010.31 463.426 1010.06 462.912 1009.76 462.457C1009.46 461.997 1009.1 461.605 1008.67 461.281C1008.26 460.957 1007.79 460.71 1007.26 460.54C1006.73 460.369 1006.15 460.284 1005.52 460.284C1004.49 460.284 1003.55 460.551 1002.7 461.085C1001.85 461.619 1001.18 462.406 1000.68 463.446C1000.18 464.486 999.93 465.761 999.93 467.273C999.93 468.784 1000.18 470.06 1000.69 471.099C1001.19 472.139 1001.88 472.926 1002.74 473.46C1003.61 473.994 1004.58 474.261 1005.66 474.261C1006.66 474.261 1007.54 474.048 1008.3 473.622C1009.07 473.19 1009.66 472.582 1010.09 471.798C1010.52 471.009 1010.74 470.08 1010.74 469.011L1011.38 469.148H1006.13V467.273H1012.78V469.148C1012.78 470.585 1012.48 471.835 1011.86 472.898C1011.25 473.96 1010.41 474.784 1009.34 475.369C1008.27 475.949 1007.04 476.239 1005.66 476.239C1004.11 476.239 1002.75 475.875 1001.58 475.148C1000.42 474.42 999.51 473.386 998.857 472.045C998.209 470.705 997.885 469.114 997.885 467.273C997.885 465.892 998.07 464.651 998.439 463.548C998.814 462.44 999.342 461.497 1000.02 460.719C1000.71 459.94 1001.51 459.344 1002.44 458.929C1003.38 458.514 1004.4 458.307 1005.52 458.307C1006.44 458.307 1007.3 458.446 1008.1 458.724C1008.9 458.997 1009.61 459.386 1010.23 459.892C1010.87 460.392 1011.39 460.991 1011.81 461.69C1012.23 462.384 1012.52 463.153 1012.68 464H1010.5ZM1016.13 476V462.909H1018.07V464.886H1018.21C1018.45 464.239 1018.88 463.713 1019.5 463.31C1020.13 462.906 1020.83 462.705 1021.62 462.705C1021.77 462.705 1021.95 462.707 1022.17 462.713C1022.39 462.719 1022.56 462.727 1022.68 462.739V464.784C1022.61 464.767 1022.45 464.741 1022.21 464.707C1021.97 464.668 1021.72 464.648 1021.45 464.648C1020.81 464.648 1020.24 464.781 1019.74 465.048C1019.25 465.31 1018.86 465.673 1018.57 466.139C1018.28 466.599 1018.14 467.125 1018.14 467.716V476H1016.13ZM1028.91 476.307C1028.08 476.307 1027.33 476.151 1026.65 475.838C1025.98 475.52 1025.44 475.062 1025.04 474.466C1024.64 473.864 1024.45 473.136 1024.45 472.284C1024.45 471.534 1024.59 470.926 1024.89 470.46C1025.18 469.989 1025.58 469.619 1026.07 469.352C1026.57 469.085 1027.11 468.886 1027.71 468.756C1028.31 468.619 1028.92 468.511 1029.53 468.432C1030.32 468.33 1030.97 468.253 1031.46 468.202C1031.96 468.145 1032.32 468.051 1032.55 467.92C1032.78 467.79 1032.9 467.562 1032.9 467.239V467.17C1032.9 466.33 1032.67 465.676 1032.21 465.21C1031.76 464.744 1031.07 464.511 1030.14 464.511C1029.18 464.511 1028.43 464.722 1027.88 465.142C1027.34 465.562 1026.95 466.011 1026.73 466.489L1024.82 465.807C1025.16 465.011 1025.62 464.392 1026.18 463.949C1026.76 463.5 1027.38 463.187 1028.06 463.011C1028.74 462.83 1029.41 462.739 1030.07 462.739C1030.49 462.739 1030.97 462.79 1031.52 462.892C1032.07 462.989 1032.6 463.19 1033.11 463.497C1033.63 463.804 1034.06 464.267 1034.4 464.886C1034.74 465.506 1034.91 466.335 1034.91 467.375V476H1032.9V474.227H1032.8C1032.66 474.511 1032.43 474.815 1032.12 475.139C1031.8 475.463 1031.38 475.739 1030.85 475.966C1030.32 476.193 1029.67 476.307 1028.91 476.307ZM1029.22 474.5C1030.01 474.5 1030.68 474.344 1031.23 474.031C1031.78 473.719 1032.2 473.315 1032.47 472.821C1032.76 472.327 1032.9 471.807 1032.9 471.261V469.42C1032.82 469.523 1032.63 469.616 1032.34 469.702C1032.05 469.781 1031.72 469.852 1031.35 469.915C1030.98 469.972 1030.62 470.023 1030.27 470.068C1029.92 470.108 1029.64 470.142 1029.42 470.17C1028.9 470.239 1028.41 470.349 1027.96 470.503C1027.51 470.651 1027.14 470.875 1026.87 471.176C1026.59 471.472 1026.46 471.875 1026.46 472.386C1026.46 473.085 1026.72 473.614 1027.23 473.972C1027.76 474.324 1028.42 474.5 1029.22 474.5ZM1038.58 480.909V462.909H1040.53V464.989H1040.76C1040.91 464.761 1041.12 464.472 1041.38 464.119C1041.65 463.761 1042.03 463.443 1042.52 463.165C1043.02 462.881 1043.7 462.739 1044.55 462.739C1045.65 462.739 1046.62 463.014 1047.46 463.565C1048.3 464.116 1048.96 464.898 1049.43 465.909C1049.9 466.92 1050.14 468.114 1050.14 469.489C1050.14 470.875 1049.9 472.077 1049.43 473.094C1048.96 474.105 1048.31 474.889 1047.47 475.446C1046.64 475.997 1045.67 476.273 1044.58 476.273C1043.74 476.273 1043.07 476.134 1042.56 475.855C1042.06 475.571 1041.67 475.25 1041.4 474.892C1041.12 474.528 1040.91 474.227 1040.76 473.989H1040.59V480.909H1038.58ZM1040.56 469.455C1040.56 470.443 1040.71 471.315 1041 472.071C1041.28 472.821 1041.71 473.409 1042.26 473.835C1042.82 474.256 1043.5 474.466 1044.31 474.466C1045.15 474.466 1045.85 474.244 1046.42 473.801C1046.98 473.352 1047.41 472.75 1047.69 471.994C1047.98 471.233 1048.13 470.386 1048.13 469.455C1048.13 468.534 1047.99 467.705 1047.7 466.966C1047.42 466.222 1047 465.634 1046.43 465.202C1045.87 464.764 1045.16 464.545 1044.31 464.545C1043.49 464.545 1042.8 464.753 1042.25 465.168C1041.69 465.577 1041.27 466.151 1040.99 466.889C1040.7 467.622 1040.56 468.477 1040.56 469.455ZM1055.22 468.125V476H1053.21V458.545H1055.22V464.955H1055.39C1055.7 464.278 1056.16 463.741 1056.77 463.344C1057.39 462.94 1058.21 462.739 1059.24 462.739C1060.13 462.739 1060.92 462.918 1061.59 463.276C1062.26 463.628 1062.78 464.17 1063.15 464.903C1063.52 465.631 1063.71 466.557 1063.71 467.682V476H1061.7V467.818C1061.7 466.778 1061.43 465.974 1060.89 465.406C1060.35 464.832 1059.61 464.545 1058.66 464.545C1058 464.545 1057.41 464.685 1056.89 464.963C1056.37 465.241 1055.96 465.648 1055.66 466.182C1055.37 466.716 1055.22 467.364 1055.22 468.125Z" fill="black"/>
<rect x="1024" y="704" width="335" height="88" fill="#D9D9D9"/>
<path d="M1120.79 755H1118.57L1124.98 737.545H1127.16L1133.57 755H1131.35L1126.14 740.307H1126L1120.79 755ZM1121.6 748.182H1130.54V750.057H1121.6V748.182ZM1140.96 755.273C1139.87 755.273 1138.91 754.997 1138.07 754.446C1137.24 753.889 1136.58 753.105 1136.11 752.094C1135.64 751.077 1135.4 749.875 1135.4 748.489C1135.4 747.114 1135.64 745.92 1136.11 744.909C1136.58 743.898 1137.24 743.116 1138.08 742.565C1138.92 742.014 1139.89 741.739 1140.99 741.739C1141.85 741.739 1142.52 741.881 1143.01 742.165C1143.51 742.443 1143.89 742.761 1144.16 743.119C1144.42 743.472 1144.63 743.761 1144.78 743.989H1144.95V737.545H1146.96V755H1145.02V752.989H1144.78C1144.63 753.227 1144.42 753.528 1144.15 753.892C1143.87 754.25 1143.49 754.571 1142.98 754.855C1142.47 755.134 1141.8 755.273 1140.96 755.273ZM1141.23 753.466C1142.04 753.466 1142.72 753.256 1143.28 752.835C1143.83 752.409 1144.26 751.821 1144.55 751.071C1144.84 750.315 1144.98 749.443 1144.98 748.455C1144.98 747.477 1144.84 746.622 1144.56 745.889C1144.27 745.151 1143.85 744.577 1143.3 744.168C1142.74 743.753 1142.05 743.545 1141.23 743.545C1140.38 743.545 1139.67 743.764 1139.1 744.202C1138.54 744.634 1138.12 745.222 1137.83 745.966C1137.55 746.705 1137.41 747.534 1137.41 748.455C1137.41 749.386 1137.56 750.233 1137.84 750.994C1138.13 751.75 1138.56 752.352 1139.12 752.801C1139.69 753.244 1140.39 753.466 1141.23 753.466ZM1155.87 755.273C1154.78 755.273 1153.81 754.997 1152.98 754.446C1152.14 753.889 1151.49 753.105 1151.02 752.094C1150.55 751.077 1150.31 749.875 1150.31 748.489C1150.31 747.114 1150.55 745.92 1151.02 744.909C1151.49 743.898 1152.14 743.116 1152.99 742.565C1153.83 742.014 1154.8 741.739 1155.9 741.739C1156.75 741.739 1157.43 741.881 1157.92 742.165C1158.42 742.443 1158.8 742.761 1159.06 743.119C1159.33 743.472 1159.54 743.761 1159.68 743.989H1159.85V737.545H1161.87V755H1159.92V752.989H1159.68C1159.54 753.227 1159.33 753.528 1159.05 753.892C1158.78 754.25 1158.39 754.571 1157.89 754.855C1157.38 755.134 1156.71 755.273 1155.87 755.273ZM1156.14 753.466C1156.95 753.466 1157.63 753.256 1158.18 752.835C1158.74 752.409 1159.16 751.821 1159.45 751.071C1159.74 750.315 1159.89 749.443 1159.89 748.455C1159.89 747.477 1159.75 746.622 1159.46 745.889C1159.18 745.151 1158.76 744.577 1158.2 744.168C1157.64 743.753 1156.96 743.545 1156.14 743.545C1155.29 743.545 1154.58 743.764 1154.01 744.202C1153.45 744.634 1153.02 745.222 1152.74 745.966C1152.46 746.705 1152.32 747.534 1152.32 748.455C1152.32 749.386 1152.46 750.233 1152.75 750.994C1153.04 751.75 1153.46 752.352 1154.03 752.801C1154.59 753.244 1155.3 753.466 1156.14 753.466ZM1186.69 737.545V755H1184.65L1175.14 741.295H1174.97V755H1172.85V737.545H1174.9L1184.44 751.284H1184.61V737.545H1186.69ZM1196.14 755.273C1194.88 755.273 1193.79 754.994 1192.87 754.438C1191.96 753.875 1191.26 753.091 1190.77 752.085C1190.28 751.074 1190.04 749.898 1190.04 748.557C1190.04 747.216 1190.28 746.034 1190.77 745.011C1191.26 743.983 1191.95 743.182 1192.83 742.608C1193.72 742.028 1194.75 741.739 1195.93 741.739C1196.62 741.739 1197.29 741.852 1197.95 742.08C1198.62 742.307 1199.22 742.676 1199.77 743.188C1200.31 743.693 1200.75 744.364 1201.07 745.199C1201.4 746.034 1201.56 747.062 1201.56 748.284V749.136H1191.47V747.398H1199.51C1199.51 746.659 1199.37 746 1199.07 745.42C1198.78 744.841 1198.37 744.384 1197.83 744.048C1197.29 743.713 1196.66 743.545 1195.93 743.545C1195.13 743.545 1194.44 743.744 1193.85 744.142C1193.27 744.534 1192.83 745.045 1192.52 745.676C1192.2 746.307 1192.05 746.983 1192.05 747.705V748.864C1192.05 749.852 1192.22 750.69 1192.56 751.378C1192.91 752.06 1193.39 752.58 1194 752.938C1194.61 753.29 1195.33 753.466 1196.14 753.466C1196.67 753.466 1197.14 753.392 1197.57 753.244C1198 753.091 1198.37 752.864 1198.69 752.562C1199 752.256 1199.24 751.875 1199.41 751.42L1201.35 751.966C1201.15 752.625 1200.81 753.205 1200.32 753.705C1199.84 754.199 1199.24 754.585 1198.53 754.864C1197.82 755.136 1197.02 755.273 1196.14 755.273ZM1207.58 755L1203.6 741.909H1205.71L1208.54 751.932H1208.68L1211.47 741.909H1213.62L1216.38 751.898H1216.52L1219.35 741.909H1221.46L1217.47 755H1215.49L1212.63 744.943H1212.43L1209.56 755H1207.58ZM1236.53 755H1231.14V737.545H1236.77C1238.46 737.545 1239.91 737.895 1241.11 738.594C1242.32 739.287 1243.24 740.284 1243.88 741.585C1244.52 742.881 1244.85 744.432 1244.85 746.239C1244.85 748.057 1244.52 749.622 1243.87 750.935C1243.23 752.241 1242.28 753.247 1241.04 753.952C1239.81 754.651 1238.3 755 1236.53 755ZM1233.25 753.125H1236.39C1237.83 753.125 1239.03 752.847 1239.98 752.29C1240.93 751.733 1241.64 750.94 1242.1 749.912C1242.57 748.884 1242.8 747.659 1242.8 746.239C1242.8 744.83 1242.57 743.616 1242.11 742.599C1241.65 741.577 1240.96 740.793 1240.05 740.247C1239.13 739.696 1237.99 739.42 1236.63 739.42H1233.25V753.125ZM1251.97 755.307C1251.14 755.307 1250.39 755.151 1249.71 754.838C1249.04 754.52 1248.5 754.062 1248.1 753.466C1247.7 752.864 1247.5 752.136 1247.5 751.284C1247.5 750.534 1247.65 749.926 1247.95 749.46C1248.24 748.989 1248.64 748.619 1249.13 748.352C1249.63 748.085 1250.17 747.886 1250.77 747.756C1251.37 747.619 1251.98 747.511 1252.58 747.432C1253.38 747.33 1254.02 747.253 1254.52 747.202C1255.02 747.145 1255.38 747.051 1255.61 746.92C1255.84 746.79 1255.96 746.562 1255.96 746.239V746.17C1255.96 745.33 1255.73 744.676 1255.27 744.21C1254.81 743.744 1254.12 743.511 1253.2 743.511C1252.24 743.511 1251.48 743.722 1250.94 744.142C1250.39 744.562 1250.01 745.011 1249.79 745.489L1247.88 744.807C1248.22 744.011 1248.68 743.392 1249.24 742.949C1249.82 742.5 1250.44 742.187 1251.12 742.011C1251.8 741.83 1252.47 741.739 1253.13 741.739C1253.55 741.739 1254.03 741.79 1254.58 741.892C1255.13 741.989 1255.66 742.19 1256.17 742.497C1256.69 742.804 1257.12 743.267 1257.46 743.886C1257.8 744.506 1257.97 745.335 1257.97 746.375V755H1255.96V753.227H1255.86C1255.72 753.511 1255.49 753.815 1255.18 754.139C1254.86 754.463 1254.43 754.739 1253.91 754.966C1253.38 755.193 1252.73 755.307 1251.97 755.307ZM1252.28 753.5C1253.07 753.5 1253.74 753.344 1254.29 753.031C1254.84 752.719 1255.25 752.315 1255.53 751.821C1255.82 751.327 1255.96 750.807 1255.96 750.261V748.42C1255.87 748.523 1255.69 748.616 1255.4 748.702C1255.11 748.781 1254.78 748.852 1254.41 748.915C1254.04 748.972 1253.68 749.023 1253.33 749.068C1252.98 749.108 1252.7 749.142 1252.48 749.17C1251.96 749.239 1251.47 749.349 1251.02 749.503C1250.57 749.651 1250.2 749.875 1249.93 750.176C1249.65 750.472 1249.52 750.875 1249.52 751.386C1249.52 752.085 1249.77 752.614 1250.29 752.972C1250.81 753.324 1251.48 753.5 1252.28 753.5ZM1267.33 741.909V743.614H1260.55V741.909H1267.33ZM1262.53 738.773H1264.54V751.25C1264.54 751.818 1264.62 752.244 1264.79 752.528C1264.96 752.807 1265.17 752.994 1265.43 753.091C1265.7 753.182 1265.98 753.227 1266.28 753.227C1266.5 753.227 1266.68 753.216 1266.82 753.193C1266.97 753.165 1267.08 753.142 1267.16 753.125L1267.57 754.932C1267.44 754.983 1267.25 755.034 1267 755.085C1266.76 755.142 1266.45 755.17 1266.07 755.17C1265.51 755.17 1264.95 755.048 1264.4 754.804C1263.86 754.56 1263.41 754.188 1263.06 753.688C1262.7 753.188 1262.53 752.557 1262.53 751.795V738.773ZM1274.21 755.307C1273.38 755.307 1272.63 755.151 1271.95 754.838C1271.28 754.52 1270.74 754.062 1270.34 753.466C1269.95 752.864 1269.75 752.136 1269.75 751.284C1269.75 750.534 1269.89 749.926 1270.19 749.46C1270.49 748.989 1270.88 748.619 1271.37 748.352C1271.87 748.085 1272.41 747.886 1273.01 747.756C1273.61 747.619 1274.22 747.511 1274.83 747.432C1275.62 747.33 1276.27 747.253 1276.76 747.202C1277.26 747.145 1277.62 747.051 1277.85 746.92C1278.08 746.79 1278.2 746.562 1278.2 746.239V746.17C1278.2 745.33 1277.97 744.676 1277.51 744.21C1277.06 743.744 1276.37 743.511 1275.44 743.511C1274.48 743.511 1273.73 743.722 1273.18 744.142C1272.64 744.562 1272.25 745.011 1272.03 745.489L1270.12 744.807C1270.46 744.011 1270.92 743.392 1271.49 742.949C1272.06 742.5 1272.68 742.187 1273.36 742.011C1274.04 741.83 1274.71 741.739 1275.37 741.739C1275.79 741.739 1276.28 741.79 1276.82 741.892C1277.37 741.989 1277.9 742.19 1278.41 742.497C1278.93 742.804 1279.36 743.267 1279.7 743.886C1280.04 744.506 1280.21 745.335 1280.21 746.375V755H1278.2V753.227H1278.1C1277.96 753.511 1277.74 753.815 1277.42 754.139C1277.1 754.463 1276.68 754.739 1276.15 754.966C1275.62 755.193 1274.97 755.307 1274.21 755.307ZM1274.52 753.5C1275.31 753.5 1275.99 753.344 1276.53 753.031C1277.08 752.719 1277.5 752.315 1277.78 751.821C1278.06 751.327 1278.2 750.807 1278.2 750.261V748.42C1278.12 748.523 1277.93 748.616 1277.64 748.702C1277.35 748.781 1277.03 748.852 1276.65 748.915C1276.28 748.972 1275.92 749.023 1275.57 749.068C1275.22 749.108 1274.94 749.142 1274.72 749.17C1274.2 749.239 1273.71 749.349 1273.26 749.503C1272.81 749.651 1272.45 749.875 1272.17 750.176C1271.89 750.472 1271.76 750.875 1271.76 751.386C1271.76 752.085 1272.02 752.614 1272.53 752.972C1273.06 753.324 1273.72 753.5 1274.52 753.5Z" fill="black"/>
</svg>
