<?xml version="1.0" encoding="UTF-8" standalone="no"?><svg width="1440" height="1024" viewBox="0 0 1440 1024" fill="none" xmlns="http://www.w3.org/2000/svg">
<rect width="1440" height="1024" fill="white"/>
<rect width="1440" height="171" fill="#D9D9D9"/>
<path d="M61.2273 58.0909H66.2727L78.1364 87.0682H78.5455L90.4091 58.0909H95.4545V93H91.5V66.4773H91.1591L80.25 93H76.4318L65.5227 66.4773H65.1818V93H61.2273V58.0909ZM114.362 93.5455C111.839 93.5455 109.663 92.9886 107.834 91.875C106.016 90.75 104.612 89.1818 103.624 87.1705C102.646 85.1477 102.158 82.7955 102.158 80.1136C102.158 77.4318 102.646 75.0682 103.624 73.0227C104.612 70.9659 105.987 69.3636 107.749 68.2159C109.521 67.0568 111.589 66.4773 113.953 66.4773C115.317 66.4773 116.663 66.7045 117.993 67.1591C119.322 67.6136 120.533 68.3523 121.624 69.375C122.714 70.3864 123.584 71.7273 124.232 73.3977C124.879 75.0682 125.203 77.125 125.203 79.5682V81.2727H105.021V77.7955H121.112C121.112 76.3182 120.817 75 120.226 73.8409C119.646 72.6818 118.817 71.767 117.737 71.0966C116.669 70.4261 115.408 70.0909 113.953 70.0909C112.351 70.0909 110.964 70.4886 109.794 71.2841C108.635 72.0682 107.743 73.0909 107.118 74.3523C106.493 75.6136 106.18 76.9659 106.18 78.4091V80.7273C106.18 82.7045 106.521 84.3807 107.203 85.7557C107.896 87.1193 108.857 88.1591 110.084 88.875C111.311 89.5795 112.737 89.9318 114.362 89.9318C115.419 89.9318 116.374 89.7841 117.226 89.4886C118.089 89.1818 118.834 88.7273 119.459 88.125C120.084 87.5114 120.567 86.75 120.908 85.8409L124.794 86.9318C124.385 88.25 123.697 89.4091 122.732 90.4091C121.766 91.3977 120.572 92.1705 119.152 92.7273C117.732 93.2727 116.135 93.5455 114.362 93.5455ZM135.345 58.0909V93H131.322V58.0909H135.345ZM153.349 93.5455C150.986 93.5455 148.912 92.983 147.128 91.858C145.355 90.733 143.969 89.1591 142.969 87.1364C141.98 85.1136 141.486 82.75 141.486 80.0455C141.486 77.3182 141.98 74.9375 142.969 72.9034C143.969 70.8693 145.355 69.2898 147.128 68.1648C148.912 67.0398 150.986 66.4773 153.349 66.4773C155.713 66.4773 157.781 67.0398 159.554 68.1648C161.338 69.2898 162.724 70.8693 163.713 72.9034C164.713 74.9375 165.213 77.3182 165.213 80.0455C165.213 82.75 164.713 85.1136 163.713 87.1364C162.724 89.1591 161.338 90.733 159.554 91.858C157.781 92.983 155.713 93.5455 153.349 93.5455ZM153.349 89.9318C155.145 89.9318 156.622 89.4716 157.781 88.5511C158.94 87.6307 159.798 86.4205 160.355 84.9205C160.912 83.4205 161.19 81.7955 161.19 80.0455C161.19 78.2955 160.912 76.6648 160.355 75.1534C159.798 73.642 158.94 72.4205 157.781 71.4886C156.622 70.5568 155.145 70.0909 153.349 70.0909C151.554 70.0909 150.077 70.5568 148.918 71.4886C147.759 72.4205 146.901 73.642 146.344 75.1534C145.787 76.6648 145.509 78.2955 145.509 80.0455C145.509 81.7955 145.787 83.4205 146.344 84.9205C146.901 86.4205 147.759 87.6307 148.918 88.5511C150.077 89.4716 151.554 89.9318 153.349 89.9318ZM171.354 93V66.8182H175.24V70.7727H175.513C175.99 69.4773 176.854 68.4261 178.104 67.6193C179.354 66.8125 180.763 66.4091 182.331 66.4091C182.626 66.4091 182.996 66.4148 183.439 66.4261C183.882 66.4375 184.217 66.4545 184.445 66.4773V70.5682C184.308 70.5341 183.996 70.483 183.507 70.4148C183.03 70.3352 182.524 70.2955 181.99 70.2955C180.717 70.2955 179.581 70.5625 178.581 71.0966C177.592 71.6193 176.808 72.3466 176.229 73.2784C175.661 74.1989 175.376 75.25 175.376 76.4318V93H171.354ZM199.393 93.5455C196.871 93.5455 194.695 92.9886 192.865 91.875C191.047 90.75 189.643 89.1818 188.655 87.1705C187.678 85.1477 187.189 82.7955 187.189 80.1136C187.189 77.4318 187.678 75.0682 188.655 73.0227C189.643 70.9659 191.018 69.3636 192.78 68.2159C194.553 67.0568 196.621 66.4773 198.984 66.4773C200.348 66.4773 201.695 66.7045 203.024 67.1591C204.354 67.6136 205.564 68.3523 206.655 69.375C207.746 70.3864 208.615 71.7273 209.263 73.3977C209.911 75.0682 210.234 77.125 210.234 79.5682V81.2727H190.053V77.7955H206.143C206.143 76.3182 205.848 75 205.257 73.8409C204.678 72.6818 203.848 71.767 202.768 71.0966C201.7 70.4261 200.439 70.0909 198.984 70.0909C197.382 70.0909 195.996 70.4886 194.825 71.2841C193.666 72.0682 192.774 73.0909 192.149 74.3523C191.524 75.6136 191.212 76.9659 191.212 78.4091V80.7273C191.212 82.7045 191.553 84.3807 192.234 85.7557C192.928 87.1193 193.888 88.1591 195.115 88.875C196.342 89.5795 197.768 89.9318 199.393 89.9318C200.45 89.9318 201.405 89.7841 202.257 89.4886C203.121 89.1818 203.865 88.7273 204.49 88.125C205.115 87.5114 205.598 86.75 205.939 85.8409L209.825 86.9318C209.416 88.25 208.729 89.4091 207.763 90.4091C206.797 91.3977 205.604 92.1705 204.183 92.7273C202.763 93.2727 201.166 93.5455 199.393 93.5455ZM216.354 93V66.8182H220.24V70.9091H220.581C221.126 69.5114 222.007 68.4261 223.223 67.6534C224.439 66.8693 225.899 66.4773 227.604 66.4773C229.331 66.4773 230.768 66.8693 231.916 67.6534C233.075 68.4261 233.979 69.5114 234.626 70.9091H234.899C235.57 69.5568 236.575 68.483 237.916 67.6875C239.257 66.8807 240.865 66.4773 242.74 66.4773C245.081 66.4773 246.996 67.2102 248.484 68.6761C249.973 70.1307 250.717 72.3977 250.717 75.4773V93H246.695V75.4773C246.695 73.5455 246.166 72.1648 245.109 71.3352C244.053 70.5057 242.808 70.0909 241.376 70.0909C239.536 70.0909 238.109 70.6477 237.098 71.7614C236.087 72.8636 235.581 74.2614 235.581 75.9545V93H231.49V75.0682C231.49 73.5795 231.007 72.3807 230.041 71.4716C229.075 70.5511 227.831 70.0909 226.308 70.0909C225.263 70.0909 224.286 70.3693 223.376 70.9261C222.479 71.483 221.751 72.2557 221.195 73.2443C220.649 74.2216 220.376 75.3523 220.376 76.6364V93H216.354ZM269.05 93.5455C266.527 93.5455 264.351 92.9886 262.521 91.875C260.703 90.75 259.3 89.1818 258.311 87.1705C257.334 85.1477 256.845 82.7955 256.845 80.1136C256.845 77.4318 257.334 75.0682 258.311 73.0227C259.3 70.9659 260.675 69.3636 262.436 68.2159C264.209 67.0568 266.277 66.4773 268.641 66.4773C270.004 66.4773 271.351 66.7045 272.68 67.1591C274.01 67.6136 275.22 68.3523 276.311 69.375C277.402 70.3864 278.271 71.7273 278.919 73.3977C279.567 75.0682 279.891 77.125 279.891 79.5682V81.2727H259.709V77.7955H275.8C275.8 76.3182 275.504 75 274.913 73.8409C274.334 72.6818 273.504 71.767 272.425 71.0966C271.357 70.4261 270.095 70.0909 268.641 70.0909C267.038 70.0909 265.652 70.4886 264.482 71.2841C263.322 72.0682 262.43 73.0909 261.805 74.3523C261.18 75.6136 260.868 76.9659 260.868 78.4091V80.7273C260.868 82.7045 261.209 84.3807 261.891 85.7557C262.584 87.1193 263.544 88.1591 264.771 88.875C265.999 89.5795 267.425 89.9318 269.05 89.9318C270.107 89.9318 271.061 89.7841 271.913 89.4886C272.777 89.1818 273.521 88.7273 274.146 88.125C274.771 87.5114 275.254 86.75 275.595 85.8409L279.482 86.9318C279.072 88.25 278.385 89.4091 277.419 90.4091C276.453 91.3977 275.26 92.1705 273.839 92.7273C272.419 93.2727 270.822 93.5455 269.05 93.5455ZM295.896 93.5455C293.714 93.5455 291.788 92.9943 290.118 91.892C288.447 90.7784 287.141 89.2102 286.197 87.1875C285.254 85.1534 284.783 82.75 284.783 79.9773C284.783 77.2273 285.254 74.8409 286.197 72.8182C287.141 70.7955 288.453 69.233 290.135 68.1307C291.817 67.0284 293.76 66.4773 295.964 66.4773C297.669 66.4773 299.016 66.7614 300.004 67.3295C301.004 67.8864 301.766 68.5227 302.288 69.2386C302.822 69.9432 303.237 70.5227 303.533 70.9773H303.874V58.0909H307.896V93H304.01V88.9773H303.533C303.237 89.4545 302.817 90.0568 302.271 90.7841C301.726 91.5 300.947 92.142 299.936 92.7102C298.925 93.267 297.578 93.5455 295.896 93.5455ZM296.442 89.9318C298.055 89.9318 299.419 89.5114 300.533 88.6705C301.646 87.8182 302.493 86.642 303.072 85.142C303.652 83.6307 303.942 81.8864 303.942 79.9091C303.942 77.9545 303.658 76.2443 303.089 74.7784C302.521 73.3011 301.68 72.1534 300.567 71.3352C299.453 70.5057 298.078 70.0909 296.442 70.0909C294.737 70.0909 293.317 70.5284 292.18 71.4034C291.055 72.267 290.209 73.4432 289.641 74.9318C289.084 76.4091 288.805 78.0682 288.805 79.9091C288.805 81.7727 289.089 83.4659 289.658 84.9886C290.237 86.5 291.089 87.7045 292.214 88.6023C293.351 89.4886 294.76 89.9318 296.442 89.9318ZM318.413 102.818C317.732 102.818 317.124 102.761 316.589 102.648C316.055 102.545 315.686 102.443 315.482 102.341L316.504 98.7955C317.482 99.0455 318.345 99.1364 319.095 99.0682C319.845 99 320.51 98.6648 321.089 98.0625C321.68 97.4716 322.22 96.5114 322.709 95.1818L323.459 93.1364L313.777 66.8182H318.141L325.368 87.6818H325.641L332.868 66.8182H337.232L326.118 96.8182C325.618 98.1705 324.999 99.2898 324.26 100.176C323.521 101.074 322.663 101.739 321.686 102.17C320.72 102.602 319.629 102.818 318.413 102.818Z" fill="black"/>
<path d="M630.657 94V76.5455H632.77V84.3182H642.077V76.5455H644.191V94H642.077V86.1932H632.77V94H630.657ZM653.468 94.2727C652.286 94.2727 651.249 93.9915 650.357 93.429C649.471 92.8665 648.777 92.0795 648.277 91.0682C647.783 90.0568 647.536 88.875 647.536 87.5227C647.536 86.1591 647.783 84.9687 648.277 83.9517C648.777 82.9347 649.471 82.1449 650.357 81.5824C651.249 81.0199 652.286 80.7386 653.468 80.7386C654.65 80.7386 655.684 81.0199 656.57 81.5824C657.462 82.1449 658.155 82.9347 658.65 83.9517C659.15 84.9687 659.4 86.1591 659.4 87.5227C659.4 88.875 659.15 90.0568 658.65 91.0682C658.155 92.0795 657.462 92.8665 656.57 93.429C655.684 93.9915 654.65 94.2727 653.468 94.2727ZM653.468 92.4659C654.365 92.4659 655.104 92.2358 655.684 91.7756C656.263 91.3153 656.692 90.7102 656.971 89.9602C657.249 89.2102 657.388 88.3977 657.388 87.5227C657.388 86.6477 657.249 85.8324 656.971 85.0767C656.692 84.321 656.263 83.7102 655.684 83.2443C655.104 82.7784 654.365 82.5455 653.468 82.5455C652.57 82.5455 651.831 82.7784 651.252 83.2443C650.672 83.7102 650.243 84.321 649.965 85.0767C649.686 85.8324 649.547 86.6477 649.547 87.5227C649.547 88.3977 649.686 89.2102 649.965 89.9602C650.243 90.7102 650.672 91.3153 651.252 91.7756C651.831 92.2358 652.57 92.4659 653.468 92.4659ZM662.47 94V80.9091H664.413V82.9545H664.583C664.856 82.2557 665.297 81.7131 665.904 81.3267C666.512 80.9347 667.243 80.7386 668.095 80.7386C668.958 80.7386 669.677 80.9347 670.251 81.3267C670.831 81.7131 671.282 82.2557 671.606 82.9545H671.743C672.078 82.2784 672.581 81.7415 673.251 81.3438C673.922 80.9403 674.725 80.7386 675.663 80.7386C676.833 80.7386 677.791 81.1051 678.535 81.8381C679.279 82.5653 679.652 83.6989 679.652 85.2386V94H677.64V85.2386C677.64 84.2727 677.376 83.5824 676.848 83.1676C676.319 82.7528 675.697 82.5455 674.981 82.5455C674.061 82.5455 673.348 82.8239 672.842 83.3807C672.336 83.9318 672.083 84.6307 672.083 85.4773V94H670.038V85.0341C670.038 84.2898 669.797 83.6903 669.314 83.2358C668.831 82.7756 668.208 82.5455 667.447 82.5455C666.924 82.5455 666.436 82.6847 665.981 82.9631C665.532 83.2415 665.169 83.6278 664.89 84.1222C664.618 84.6108 664.481 85.1761 664.481 85.8182V94H662.47ZM688.818 94.2727C687.556 94.2727 686.468 93.9943 685.554 93.4375C684.645 92.875 683.943 92.0909 683.449 91.0852C682.96 90.0739 682.716 88.8977 682.716 87.5568C682.716 86.2159 682.96 85.0341 683.449 84.0114C683.943 82.983 684.63 82.1818 685.511 81.608C686.397 81.0284 687.431 80.7386 688.613 80.7386C689.295 80.7386 689.968 80.8523 690.633 81.0795C691.298 81.3068 691.903 81.6761 692.449 82.1875C692.994 82.6932 693.429 83.3636 693.752 84.1989C694.076 85.0341 694.238 86.0625 694.238 87.2841V88.1364H684.147V86.3977H692.193C692.193 85.6591 692.045 85 691.75 84.4205C691.46 83.8409 691.045 83.3835 690.505 83.0483C689.971 82.7131 689.341 82.5455 688.613 82.5455C687.812 82.5455 687.119 82.7443 686.534 83.142C685.954 83.5341 685.508 84.0455 685.196 84.6761C684.883 85.3068 684.727 85.983 684.727 86.7045V87.8636C684.727 88.8523 684.897 89.6903 685.238 90.3778C685.585 91.0597 686.065 91.5795 686.679 91.9375C687.292 92.2898 688.005 92.4659 688.818 92.4659C689.346 92.4659 689.824 92.392 690.25 92.2443C690.681 92.0909 691.054 91.8636 691.366 91.5625C691.679 91.2557 691.92 90.875 692.091 90.4205L694.034 90.9659C693.829 91.625 693.485 92.2045 693.002 92.7045C692.52 93.1989 691.923 93.5852 691.213 93.8636C690.502 94.1364 689.704 94.2727 688.818 94.2727Z" fill="black"/>
<path d="M819.078 76.5455H821.499L826.34 84.6932H826.544L831.385 76.5455H833.806L827.499 86.8068V94H825.385V86.8068L819.078 76.5455ZM839.733 94.2727C838.551 94.2727 837.515 93.9915 836.623 93.429C835.736 92.8665 835.043 92.0795 834.543 91.0682C834.049 90.0568 833.801 88.875 833.801 87.5227C833.801 86.1591 834.049 84.9687 834.543 83.9517C835.043 82.9347 835.736 82.1449 836.623 81.5824C837.515 81.0199 838.551 80.7386 839.733 80.7386C840.915 80.7386 841.949 81.0199 842.836 81.5824C843.728 82.1449 844.421 82.9347 844.915 83.9517C845.415 84.9687 845.665 86.1591 845.665 87.5227C845.665 88.875 845.415 90.0568 844.915 91.0682C844.421 92.0795 843.728 92.8665 842.836 93.429C841.949 93.9915 840.915 94.2727 839.733 94.2727ZM839.733 92.4659C840.631 92.4659 841.37 92.2358 841.949 91.7756C842.529 91.3153 842.958 90.7102 843.236 89.9602C843.515 89.2102 843.654 88.3977 843.654 87.5227C843.654 86.6477 843.515 85.8324 843.236 85.0767C842.958 84.321 842.529 83.7102 841.949 83.2443C841.37 82.7784 840.631 82.5455 839.733 82.5455C838.836 82.5455 838.097 82.7784 837.517 83.2443C836.938 83.7102 836.509 84.321 836.23 85.0767C835.952 85.8324 835.813 86.6477 835.813 87.5227C835.813 88.3977 835.952 89.2102 836.23 89.9602C836.509 90.7102 836.938 91.3153 837.517 91.7756C838.097 92.2358 838.836 92.4659 839.733 92.4659ZM856.985 88.6477V80.9091H858.997V94H856.985V91.7841H856.849C856.542 92.4489 856.065 93.0142 855.417 93.4801C854.77 93.9403 853.951 94.1705 852.963 94.1705C852.145 94.1705 851.417 93.9915 850.781 93.6335C850.145 93.2699 849.645 92.7244 849.281 91.9972C848.917 91.2642 848.735 90.3409 848.735 89.2273V80.9091H850.747V89.0909C850.747 90.0455 851.014 90.8068 851.548 91.375C852.088 91.9432 852.775 92.2273 853.61 92.2273C854.11 92.2273 854.619 92.0994 855.136 91.8438C855.659 91.5881 856.096 91.196 856.449 90.6676C856.806 90.1392 856.985 89.4659 856.985 88.6477ZM862.681 94V80.9091H864.624V82.8864H864.76C864.999 82.2386 865.431 81.7131 866.056 81.3097C866.681 80.9062 867.385 80.7045 868.169 80.7045C868.317 80.7045 868.502 80.7074 868.723 80.7131C868.945 80.7187 869.113 80.7273 869.226 80.7386V82.7841C869.158 82.767 869.002 82.7415 868.757 82.7074C868.519 82.6676 868.266 82.6477 867.999 82.6477C867.363 82.6477 866.794 82.7812 866.294 83.0483C865.8 83.3097 865.408 83.6733 865.118 84.1392C864.834 84.5994 864.692 85.125 864.692 85.7159V94H862.681ZM884.02 94H878.633V76.5455H884.258C885.951 76.5455 887.4 76.8949 888.605 77.5938C889.809 78.2869 890.733 79.2841 891.375 80.5852C892.017 81.8807 892.338 83.4318 892.338 85.2386C892.338 87.0568 892.014 88.6222 891.366 89.9347C890.718 91.2415 889.775 92.2472 888.537 92.9517C887.298 93.6506 885.792 94 884.02 94ZM880.747 92.125H883.883C885.326 92.125 886.522 91.8466 887.471 91.2898C888.42 90.733 889.127 89.9403 889.593 88.9119C890.059 87.8835 890.292 86.6591 890.292 85.2386C890.292 83.8295 890.062 82.6165 889.602 81.5994C889.142 80.5767 888.454 79.7926 887.539 79.2472C886.625 78.696 885.485 78.4205 884.122 78.4205H880.747V92.125ZM899.463 94.3068C898.633 94.3068 897.88 94.1506 897.204 93.8381C896.528 93.5199 895.991 93.0625 895.593 92.4659C895.196 91.8636 894.997 91.1364 894.997 90.2841C894.997 89.5341 895.145 88.9261 895.44 88.4602C895.735 87.9886 896.13 87.6193 896.625 87.3523C897.119 87.0852 897.664 86.8864 898.261 86.7557C898.863 86.6193 899.468 86.5114 900.076 86.4318C900.872 86.3295 901.517 86.2528 902.011 86.2017C902.511 86.1449 902.875 86.0511 903.102 85.9205C903.335 85.7898 903.451 85.5625 903.451 85.2386V85.1705C903.451 84.3295 903.221 83.6761 902.761 83.2102C902.306 82.7443 901.616 82.5114 900.69 82.5114C899.73 82.5114 898.977 82.7216 898.431 83.142C897.886 83.5625 897.502 84.0114 897.281 84.4886L895.372 83.8068C895.713 83.0114 896.167 82.392 896.735 81.9489C897.309 81.5 897.934 81.1875 898.61 81.0114C899.292 80.8295 899.963 80.7386 900.622 80.7386C901.042 80.7386 901.525 80.7898 902.071 80.892C902.622 80.9886 903.153 81.1903 903.664 81.4972C904.181 81.804 904.61 82.267 904.951 82.8864C905.292 83.5057 905.463 84.3352 905.463 85.375V94H903.451V92.2273H903.349C903.213 92.5114 902.985 92.8153 902.667 93.1392C902.349 93.4631 901.926 93.7386 901.397 93.9659C900.869 94.1932 900.224 94.3068 899.463 94.3068ZM899.77 92.5C900.565 92.5 901.235 92.3438 901.781 92.0312C902.332 91.7188 902.747 91.3153 903.025 90.821C903.309 90.3267 903.451 89.8068 903.451 89.2614V87.4205C903.366 87.5227 903.179 87.6165 902.889 87.7017C902.605 87.7812 902.275 87.8523 901.9 87.9148C901.531 87.9716 901.17 88.0227 900.818 88.0682C900.471 88.108 900.19 88.142 899.974 88.1705C899.451 88.2386 898.963 88.3494 898.508 88.5028C898.059 88.6506 897.696 88.875 897.417 89.1761C897.145 89.4716 897.008 89.875 897.008 90.3864C897.008 91.0852 897.267 91.6136 897.784 91.9716C898.306 92.3239 898.968 92.5 899.77 92.5ZM914.827 80.9091V82.6136H908.043V80.9091H914.827ZM910.02 77.7727H912.032V90.25C912.032 90.8182 912.114 91.2443 912.279 91.5284C912.449 91.8068 912.665 91.9943 912.926 92.0909C913.194 92.1818 913.475 92.2273 913.77 92.2273C913.992 92.2273 914.174 92.2159 914.316 92.1932C914.458 92.1648 914.571 92.142 914.657 92.125L915.066 93.9318C914.929 93.983 914.739 94.0341 914.495 94.0852C914.25 94.142 913.941 94.1705 913.566 94.1705C912.998 94.1705 912.441 94.0483 911.895 93.804C911.355 93.5597 910.907 93.1875 910.549 92.6875C910.196 92.1875 910.02 91.5568 910.02 90.7955V77.7727ZM921.705 94.3068C920.875 94.3068 920.123 94.1506 919.446 93.8381C918.77 93.5199 918.233 93.0625 917.836 92.4659C917.438 91.8636 917.239 91.1364 917.239 90.2841C917.239 89.5341 917.387 88.9261 917.682 88.4602C917.978 87.9886 918.373 87.6193 918.867 87.3523C919.361 87.0852 919.907 86.8864 920.503 86.7557C921.105 86.6193 921.711 86.5114 922.319 86.4318C923.114 86.3295 923.759 86.2528 924.253 86.2017C924.753 86.1449 925.117 86.0511 925.344 85.9205C925.577 85.7898 925.694 85.5625 925.694 85.2386V85.1705C925.694 84.3295 925.463 83.6761 925.003 83.2102C924.549 82.7443 923.858 82.5114 922.932 82.5114C921.972 82.5114 921.219 82.7216 920.674 83.142C920.128 83.5625 919.745 84.0114 919.523 84.4886L917.614 83.8068C917.955 83.0114 918.409 82.392 918.978 81.9489C919.551 81.5 920.176 81.1875 920.853 81.0114C921.534 80.8295 922.205 80.7386 922.864 80.7386C923.284 80.7386 923.767 80.7898 924.313 80.892C924.864 80.9886 925.395 81.1903 925.907 81.4972C926.424 81.804 926.853 82.267 927.194 82.8864C927.534 83.5057 927.705 84.3352 927.705 85.375V94H925.694V92.2273H925.591C925.455 92.5114 925.228 92.8153 924.909 93.1392C924.591 93.4631 924.168 93.7386 923.64 93.9659C923.111 94.1932 922.466 94.3068 921.705 94.3068ZM922.012 92.5C922.807 92.5 923.478 92.3438 924.023 92.0312C924.574 91.7188 924.989 91.3153 925.267 90.821C925.551 90.3267 925.694 89.8068 925.694 89.2614V87.4205C925.608 87.5227 925.421 87.6165 925.131 87.7017C924.847 87.7812 924.517 87.8523 924.142 87.9148C923.773 87.9716 923.412 88.0227 923.06 88.0682C922.713 88.108 922.432 88.142 922.216 88.1705C921.694 88.2386 921.205 88.3494 920.75 88.5028C920.301 88.6506 919.938 88.875 919.659 89.1761C919.387 89.4716 919.25 89.875 919.25 90.3864C919.25 91.0852 919.509 91.6136 920.026 91.9716C920.549 92.3239 921.211 92.5 922.012 92.5Z" fill="black"/>
<path d="M1054.64 76.5455H1057.17L1063.1 91.0341H1063.3L1069.24 76.5455H1071.76V94H1069.78V80.7386H1069.61L1064.16 94H1062.25L1056.79 80.7386H1056.62V94H1054.64V76.5455ZM1083.97 88.6477V80.9091H1085.99V94H1083.97V91.7841H1083.84C1083.53 92.4489 1083.05 93.0142 1082.41 93.4801C1081.76 93.9403 1080.94 94.1705 1079.95 94.1705C1079.13 94.1705 1078.41 93.9915 1077.77 93.6335C1077.13 93.2699 1076.63 92.7244 1076.27 91.9972C1075.91 91.2642 1075.72 90.3409 1075.72 89.2273V80.9091H1077.74V89.0909C1077.74 90.0455 1078 90.8068 1078.54 91.375C1079.08 91.9432 1079.76 92.2273 1080.6 92.2273C1081.1 92.2273 1081.61 92.0994 1082.12 91.8438C1082.65 91.5881 1083.08 91.196 1083.44 90.6676C1083.79 90.1392 1083.97 89.4659 1083.97 88.6477ZM1098.94 83.8409L1097.13 84.3523C1097.02 84.0511 1096.85 83.7585 1096.63 83.4744C1096.42 83.1847 1096.12 82.946 1095.75 82.7585C1095.37 82.571 1094.89 82.4773 1094.31 82.4773C1093.5 82.4773 1092.84 82.6619 1092.3 83.0312C1091.77 83.3949 1091.51 83.858 1091.51 84.4205C1091.51 84.9205 1091.69 85.3153 1092.06 85.6051C1092.42 85.8949 1092.99 86.1364 1093.76 86.3295L1095.7 86.8068C1096.87 87.0909 1097.75 87.5256 1098.32 88.1108C1098.89 88.6903 1099.18 89.4375 1099.18 90.3523C1099.18 91.1023 1098.96 91.7727 1098.53 92.3636C1098.11 92.9545 1097.51 93.4205 1096.74 93.7614C1095.98 94.1023 1095.08 94.2727 1094.07 94.2727C1092.73 94.2727 1091.63 93.983 1090.75 93.4034C1089.88 92.8239 1089.32 91.9773 1089.09 90.8636L1091 90.3864C1091.18 91.0909 1091.52 91.6193 1092.03 91.9716C1092.54 92.3239 1093.21 92.5 1094.03 92.5C1094.97 92.5 1095.71 92.3011 1096.27 91.9034C1096.82 91.5 1097.1 91.017 1097.1 90.4545C1097.1 90 1096.94 89.6193 1096.62 89.3125C1096.31 89 1095.82 88.767 1095.16 88.6136L1092.98 88.1023C1091.78 87.8182 1090.9 87.3778 1090.33 86.7812C1089.78 86.179 1089.5 85.4261 1089.5 84.5227C1089.5 83.7841 1089.71 83.1307 1090.12 82.5625C1090.54 81.9943 1091.11 81.5483 1091.83 81.2244C1092.56 80.9006 1093.38 80.7386 1094.31 80.7386C1095.6 80.7386 1096.62 81.0227 1097.36 81.5909C1098.1 82.1591 1098.63 82.9091 1098.94 83.8409ZM1102.21 94V80.9091H1104.22V94H1102.21ZM1103.23 78.7273C1102.84 78.7273 1102.5 78.5938 1102.22 78.3267C1101.94 78.0597 1101.8 77.7386 1101.8 77.3636C1101.8 76.9886 1101.94 76.6676 1102.22 76.4006C1102.5 76.1335 1102.84 76 1103.23 76C1103.62 76 1103.96 76.1335 1104.24 76.4006C1104.52 76.6676 1104.66 76.9886 1104.66 77.3636C1104.66 77.7386 1104.52 78.0597 1104.24 78.3267C1103.96 78.5938 1103.62 78.7273 1103.23 78.7273ZM1113.22 94.2727C1111.99 94.2727 1110.94 93.983 1110.05 93.4034C1109.16 92.8239 1108.48 92.0256 1108.01 91.0085C1107.53 89.9915 1107.29 88.8295 1107.29 87.5227C1107.29 86.1932 1107.53 85.0199 1108.02 84.0028C1108.52 82.9801 1109.2 82.1818 1110.09 81.608C1110.97 81.0284 1112.01 80.7386 1113.19 80.7386C1114.11 80.7386 1114.94 80.9091 1115.68 81.25C1116.41 81.5909 1117.02 82.0682 1117.49 82.6818C1117.96 83.2955 1118.26 84.0114 1118.37 84.8295H1116.36C1116.2 84.233 1115.86 83.7045 1115.34 83.2443C1114.81 82.7784 1114.11 82.5455 1113.22 82.5455C1112.44 82.5455 1111.75 82.75 1111.16 83.1591C1110.57 83.5625 1110.12 84.1335 1109.79 84.8722C1109.46 85.6051 1109.3 86.4659 1109.3 87.4545C1109.3 88.4659 1109.46 89.3466 1109.78 90.0966C1110.1 90.8466 1110.56 91.429 1111.14 91.8438C1111.73 92.2585 1112.43 92.4659 1113.22 92.4659C1113.74 92.4659 1114.22 92.375 1114.64 92.1932C1115.07 92.0114 1115.43 91.75 1115.73 91.4091C1116.02 91.0682 1116.23 90.6591 1116.36 90.1818H1118.37C1118.26 90.9545 1117.97 91.6506 1117.53 92.2699C1117.08 92.8835 1116.49 93.3722 1115.76 93.7358C1115.03 94.0938 1114.19 94.2727 1113.22 94.2727Z" fill="black"/>
<path d="M1270.2 80.9091C1270.1 80.0455 1269.69 79.375 1268.96 78.8977C1268.23 78.4205 1267.34 78.1818 1266.28 78.1818C1265.51 78.1818 1264.83 78.3068 1264.25 78.5568C1263.68 78.8068 1263.23 79.1506 1262.91 79.5881C1262.59 80.0256 1262.43 80.5227 1262.43 81.0795C1262.43 81.5455 1262.54 81.946 1262.76 82.2812C1262.99 82.6108 1263.28 82.8864 1263.63 83.108C1263.98 83.3239 1264.35 83.5028 1264.74 83.6449C1265.13 83.7812 1265.48 83.892 1265.8 83.9773L1267.58 84.4545C1268.03 84.5739 1268.54 84.7386 1269.09 84.9489C1269.66 85.1591 1270.19 85.446 1270.7 85.8097C1271.22 86.1676 1271.65 86.6278 1271.98 87.1903C1272.32 87.7528 1272.49 88.4432 1272.49 89.2614C1272.49 90.2045 1272.24 91.0568 1271.74 91.8182C1271.26 92.5795 1270.54 93.1847 1269.6 93.6335C1268.66 94.0824 1267.52 94.3068 1266.18 94.3068C1264.93 94.3068 1263.85 94.1051 1262.93 93.7017C1262.02 93.2983 1261.31 92.7358 1260.78 92.0142C1260.27 91.2926 1259.97 90.4545 1259.91 89.5H1262.09C1262.15 90.1591 1262.37 90.7045 1262.75 91.1364C1263.15 91.5625 1263.64 91.8807 1264.24 92.0909C1264.84 92.2955 1265.49 92.3977 1266.18 92.3977C1266.99 92.3977 1267.71 92.267 1268.35 92.0057C1268.99 91.7386 1269.5 91.3693 1269.88 90.8977C1270.25 90.4205 1270.44 89.8636 1270.44 89.2273C1270.44 88.6477 1270.28 88.1761 1269.95 87.8125C1269.63 87.4489 1269.2 87.1534 1268.68 86.9261C1268.15 86.6989 1267.58 86.5 1266.96 86.3295L1264.82 85.7159C1263.45 85.3239 1262.37 84.7642 1261.58 84.0369C1260.78 83.3097 1260.38 82.358 1260.38 81.1818C1260.38 80.2045 1260.65 79.3523 1261.18 78.625C1261.71 77.892 1262.43 77.3239 1263.32 76.9205C1264.23 76.5114 1265.24 76.3068 1266.35 76.3068C1267.47 76.3068 1268.47 76.5085 1269.35 76.9119C1270.22 77.3097 1270.92 77.8551 1271.43 78.5483C1271.95 79.2415 1272.22 80.0284 1272.25 80.9091H1270.2ZM1281.18 94.2727C1279.92 94.2727 1278.83 93.9943 1277.91 93.4375C1277 92.875 1276.3 92.0909 1275.81 91.0852C1275.32 90.0739 1275.07 88.8977 1275.07 87.5568C1275.07 86.2159 1275.32 85.0341 1275.81 84.0114C1276.3 82.983 1276.99 82.1818 1277.87 81.608C1278.76 81.0284 1279.79 80.7386 1280.97 80.7386C1281.65 80.7386 1282.33 80.8523 1282.99 81.0795C1283.66 81.3068 1284.26 81.6761 1284.81 82.1875C1285.35 82.6932 1285.79 83.3636 1286.11 84.1989C1286.44 85.0341 1286.6 86.0625 1286.6 87.2841V88.1364H1276.51V86.3977H1284.55C1284.55 85.6591 1284.4 85 1284.11 84.4205C1283.82 83.8409 1283.4 83.3835 1282.86 83.0483C1282.33 82.7131 1281.7 82.5455 1280.97 82.5455C1280.17 82.5455 1279.48 82.7443 1278.89 83.142C1278.31 83.5341 1277.87 84.0455 1277.56 84.6761C1277.24 85.3068 1277.09 85.983 1277.09 86.7045V87.8636C1277.09 88.8523 1277.26 89.6903 1277.6 90.3778C1277.94 91.0597 1278.42 91.5795 1279.04 91.9375C1279.65 92.2898 1280.36 92.4659 1281.18 92.4659C1281.71 92.4659 1282.18 92.392 1282.61 92.2443C1283.04 92.0909 1283.41 91.8636 1283.73 91.5625C1284.04 91.2557 1284.28 90.875 1284.45 90.4205L1286.39 90.9659C1286.19 91.625 1285.84 92.2045 1285.36 92.7045C1284.88 93.1989 1284.28 93.5852 1283.57 93.8636C1282.86 94.1364 1282.06 94.2727 1281.18 94.2727ZM1293.51 94.3068C1292.68 94.3068 1291.93 94.1506 1291.25 93.8381C1290.57 93.5199 1290.04 93.0625 1289.64 92.4659C1289.24 91.8636 1289.04 91.1364 1289.04 90.2841C1289.04 89.5341 1289.19 88.9261 1289.49 88.4602C1289.78 87.9886 1290.18 87.6193 1290.67 87.3523C1291.17 87.0852 1291.71 86.8864 1292.31 86.7557C1292.91 86.6193 1293.52 86.5114 1294.12 86.4318C1294.92 86.3295 1295.56 86.2528 1296.06 86.2017C1296.56 86.1449 1296.92 86.0511 1297.15 85.9205C1297.38 85.7898 1297.5 85.5625 1297.5 85.2386V85.1705C1297.5 84.3295 1297.27 83.6761 1296.81 83.2102C1296.35 82.7443 1295.66 82.5114 1294.74 82.5114C1293.78 82.5114 1293.02 82.7216 1292.48 83.142C1291.93 83.5625 1291.55 84.0114 1291.33 84.4886L1289.42 83.8068C1289.76 83.0114 1290.21 82.392 1290.78 81.9489C1291.36 81.5 1291.98 81.1875 1292.66 81.0114C1293.34 80.8295 1294.01 80.7386 1294.67 80.7386C1295.09 80.7386 1295.57 80.7898 1296.12 80.892C1296.67 80.9886 1297.2 81.1903 1297.71 81.4972C1298.23 81.804 1298.66 82.267 1299 82.8864C1299.34 83.5057 1299.51 84.3352 1299.51 85.375V94H1297.5V92.2273H1297.4C1297.26 92.5114 1297.03 92.8153 1296.71 93.1392C1296.4 93.4631 1295.97 93.7386 1295.44 93.9659C1294.92 94.1932 1294.27 94.3068 1293.51 94.3068ZM1293.82 92.5C1294.61 92.5 1295.28 92.3438 1295.83 92.0312C1296.38 91.7188 1296.79 91.3153 1297.07 90.821C1297.36 90.3267 1297.5 89.8068 1297.5 89.2614V87.4205C1297.41 87.5227 1297.23 87.6165 1296.94 87.7017C1296.65 87.7812 1296.32 87.8523 1295.95 87.9148C1295.58 87.9716 1295.22 88.0227 1294.86 88.0682C1294.52 88.108 1294.24 88.142 1294.02 88.1705C1293.5 88.2386 1293.01 88.3494 1292.56 88.5028C1292.11 88.6506 1291.74 88.875 1291.46 89.1761C1291.19 89.4716 1291.06 89.875 1291.06 90.3864C1291.06 91.0852 1291.31 91.6136 1291.83 91.9716C1292.35 92.3239 1293.02 92.5 1293.82 92.5ZM1303.18 94V80.9091H1305.12V82.8864H1305.26C1305.5 82.2386 1305.93 81.7131 1306.56 81.3097C1307.18 80.9062 1307.89 80.7045 1308.67 80.7045C1308.82 80.7045 1309 80.7074 1309.22 80.7131C1309.44 80.7187 1309.61 80.7273 1309.73 80.7386V82.7841C1309.66 82.767 1309.5 82.7415 1309.26 82.7074C1309.02 82.6676 1308.77 82.6477 1308.5 82.6477C1307.86 82.6477 1307.29 82.7812 1306.79 83.0483C1306.3 83.3097 1305.91 83.6733 1305.62 84.1392C1305.33 84.5994 1305.19 85.125 1305.19 85.7159V94H1303.18ZM1317.03 94.2727C1315.8 94.2727 1314.75 93.983 1313.86 93.4034C1312.97 92.8239 1312.29 92.0256 1311.81 91.0085C1311.34 89.9915 1311.1 88.8295 1311.1 87.5227C1311.1 86.1932 1311.34 85.0199 1311.83 84.0028C1312.33 82.9801 1313.01 82.1818 1313.89 81.608C1314.78 81.0284 1315.81 80.7386 1317 80.7386C1317.92 80.7386 1318.75 80.9091 1319.48 81.25C1320.22 81.5909 1320.83 82.0682 1321.3 82.6818C1321.77 83.2955 1322.06 84.0114 1322.18 84.8295H1320.17C1320.01 84.233 1319.67 83.7045 1319.14 83.2443C1318.62 82.7784 1317.92 82.5455 1317.03 82.5455C1316.25 82.5455 1315.56 82.75 1314.97 83.1591C1314.38 83.5625 1313.93 84.1335 1313.6 84.8722C1313.27 85.6051 1313.11 86.4659 1313.11 87.4545C1313.11 88.4659 1313.27 89.3466 1313.59 90.0966C1313.91 90.8466 1314.37 91.429 1314.95 91.8438C1315.54 92.2585 1316.23 92.4659 1317.03 92.4659C1317.55 92.4659 1318.03 92.375 1318.45 92.1932C1318.88 92.0114 1319.24 91.75 1319.54 91.4091C1319.83 91.0682 1320.04 90.6591 1320.17 90.1818H1322.18C1322.06 90.9545 1321.78 91.6506 1321.33 92.2699C1320.89 92.8835 1320.3 93.3722 1319.57 93.7358C1318.84 94.0938 1318 94.2727 1317.03 94.2727ZM1327.13 86.125V94H1325.12V76.5455H1327.13V82.9545H1327.3C1327.61 82.2784 1328.07 81.7415 1328.68 81.3438C1329.3 80.9403 1330.12 80.7386 1331.15 80.7386C1332.04 80.7386 1332.83 80.9176 1333.5 81.2756C1334.17 81.6278 1334.69 82.1705 1335.06 82.9034C1335.43 83.6307 1335.62 84.5568 1335.62 85.6818V94H1333.61V85.8182C1333.61 84.7784 1333.34 83.9744 1332.8 83.4062C1332.26 82.8324 1331.52 82.5455 1330.57 82.5455C1329.91 82.5455 1329.32 82.6847 1328.8 82.9631C1328.28 83.2415 1327.87 83.6477 1327.57 84.1818C1327.28 84.7159 1327.13 85.3636 1327.13 86.125Z" fill="black"/>
<rect x="57" y="254" width="657" height="447" fill="#D9D9D9"/>
<rect x="874" y="254" width="450" height="558" fill="#D9D9D9"/>
<path d="M68.6591 213.909C68.5568 213.045 68.142 212.375 67.4148 211.898C66.6875 211.42 65.7955 211.182 64.7386 211.182C63.9659 211.182 63.2898 211.307 62.7102 211.557C62.1364 211.807 61.6875 212.151 61.3636 212.588C61.0455 213.026 60.8864 213.523 60.8864 214.08C60.8864 214.545 60.9972 214.946 61.2188 215.281C61.446 215.611 61.7358 215.886 62.0881 216.108C62.4403 216.324 62.8097 216.503 63.196 216.645C63.5824 216.781 63.9375 216.892 64.2614 216.977L66.0341 217.455C66.4886 217.574 66.9943 217.739 67.5511 217.949C68.1136 218.159 68.6506 218.446 69.1619 218.81C69.679 219.168 70.1051 219.628 70.4403 220.19C70.7756 220.753 70.9432 221.443 70.9432 222.261C70.9432 223.205 70.696 224.057 70.2017 224.818C69.7131 225.58 68.9972 226.185 68.054 226.634C67.1165 227.082 65.9773 227.307 64.6364 227.307C63.3864 227.307 62.304 227.105 61.3892 226.702C60.4801 226.298 59.7642 225.736 59.2415 225.014C58.7244 224.293 58.4318 223.455 58.3636 222.5H60.5455C60.6023 223.159 60.8239 223.705 61.2102 224.136C61.6023 224.562 62.0966 224.881 62.6932 225.091C63.2955 225.295 63.9432 225.398 64.6364 225.398C65.4432 225.398 66.1676 225.267 66.8097 225.006C67.4517 224.739 67.9602 224.369 68.3352 223.898C68.7102 223.42 68.8977 222.864 68.8977 222.227C68.8977 221.648 68.7358 221.176 68.4119 220.812C68.0881 220.449 67.6619 220.153 67.1335 219.926C66.6051 219.699 66.0341 219.5 65.4205 219.33L63.2727 218.716C61.9091 218.324 60.8295 217.764 60.0341 217.037C59.2386 216.31 58.8409 215.358 58.8409 214.182C58.8409 213.205 59.1051 212.352 59.6335 211.625C60.1676 210.892 60.8835 210.324 61.7812 209.92C62.6847 209.511 63.6932 209.307 64.8068 209.307C65.9318 209.307 66.9318 209.509 67.8068 209.912C68.6818 210.31 69.375 210.855 69.8864 211.548C70.4034 212.241 70.6761 213.028 70.7045 213.909H68.6591ZM76.157 209.545V227H74.1456V209.545H76.157ZM85.3295 227.273C84.0682 227.273 82.9801 226.994 82.0653 226.438C81.1562 225.875 80.4545 225.091 79.9602 224.085C79.4716 223.074 79.2273 221.898 79.2273 220.557C79.2273 219.216 79.4716 218.034 79.9602 217.011C80.4545 215.983 81.142 215.182 82.0227 214.608C82.9091 214.028 83.9432 213.739 85.125 213.739C85.8068 213.739 86.4801 213.852 87.1449 214.08C87.8097 214.307 88.4148 214.676 88.9602 215.188C89.5057 215.693 89.9403 216.364 90.2642 217.199C90.5881 218.034 90.75 219.062 90.75 220.284V221.136H80.6591V219.398H88.7045C88.7045 218.659 88.5568 218 88.2614 217.42C87.9716 216.841 87.5568 216.384 87.017 216.048C86.483 215.713 85.8523 215.545 85.125 215.545C84.3239 215.545 83.6307 215.744 83.0455 216.142C82.4659 216.534 82.0199 217.045 81.7074 217.676C81.3949 218.307 81.2386 218.983 81.2386 219.705V220.864C81.2386 221.852 81.4091 222.69 81.75 223.378C82.0966 224.06 82.5767 224.58 83.1903 224.938C83.804 225.29 84.517 225.466 85.3295 225.466C85.858 225.466 86.3352 225.392 86.7614 225.244C87.1932 225.091 87.5653 224.864 87.8778 224.562C88.1903 224.256 88.4318 223.875 88.6023 223.42L90.5455 223.966C90.3409 224.625 89.9972 225.205 89.5142 225.705C89.0313 226.199 88.4347 226.585 87.7244 226.864C87.0142 227.136 86.2159 227.273 85.3295 227.273ZM99.2983 227.273C98.0369 227.273 96.9489 226.994 96.0341 226.438C95.125 225.875 94.4233 225.091 93.929 224.085C93.4403 223.074 93.196 221.898 93.196 220.557C93.196 219.216 93.4403 218.034 93.929 217.011C94.4233 215.983 95.1108 215.182 95.9915 214.608C96.8778 214.028 97.9119 213.739 99.0938 213.739C99.7756 213.739 100.449 213.852 101.114 214.08C101.778 214.307 102.384 214.676 102.929 215.188C103.474 215.693 103.909 216.364 104.233 217.199C104.557 218.034 104.719 219.062 104.719 220.284V221.136H94.6278V219.398H102.673C102.673 218.659 102.526 218 102.23 217.42C101.94 216.841 101.526 216.384 100.986 216.048C100.452 215.713 99.821 215.545 99.0938 215.545C98.2926 215.545 97.5994 215.744 97.0142 216.142C96.4347 216.534 95.9886 217.045 95.6761 217.676C95.3636 218.307 95.2074 218.983 95.2074 219.705V220.864C95.2074 221.852 95.3778 222.69 95.7188 223.378C96.0653 224.06 96.5455 224.58 97.1591 224.938C97.7727 225.29 98.4858 225.466 99.2983 225.466C99.8267 225.466 100.304 225.392 100.73 225.244C101.162 225.091 101.534 224.864 101.847 224.562C102.159 224.256 102.401 223.875 102.571 223.42L104.514 223.966C104.31 224.625 103.966 225.205 103.483 225.705C103 226.199 102.403 226.585 101.693 226.864C100.983 227.136 100.185 227.273 99.2983 227.273ZM107.778 231.909V213.909H109.722V215.989H109.96C110.108 215.761 110.313 215.472 110.574 215.119C110.841 214.761 111.222 214.443 111.716 214.165C112.216 213.881 112.892 213.739 113.744 213.739C114.847 213.739 115.818 214.014 116.659 214.565C117.5 215.116 118.156 215.898 118.628 216.909C119.099 217.92 119.335 219.114 119.335 220.489C119.335 221.875 119.099 223.077 118.628 224.094C118.156 225.105 117.503 225.889 116.668 226.446C115.832 226.997 114.869 227.273 113.778 227.273C112.938 227.273 112.264 227.134 111.759 226.855C111.253 226.571 110.864 226.25 110.591 225.892C110.318 225.528 110.108 225.227 109.96 224.989H109.79V231.909H107.778ZM109.756 220.455C109.756 221.443 109.901 222.315 110.19 223.071C110.48 223.821 110.903 224.409 111.46 224.835C112.017 225.256 112.699 225.466 113.506 225.466C114.347 225.466 115.048 225.244 115.611 224.801C116.179 224.352 116.605 223.75 116.889 222.994C117.179 222.233 117.324 221.386 117.324 220.455C117.324 219.534 117.182 218.705 116.898 217.966C116.619 217.222 116.196 216.634 115.628 216.202C115.065 215.764 114.358 215.545 113.506 215.545C112.688 215.545 112 215.753 111.443 216.168C110.886 216.577 110.466 217.151 110.182 217.889C109.898 218.622 109.756 219.477 109.756 220.455ZM134.983 213.909V215.614H127.926V213.909H134.983ZM130.04 227V212.102C130.04 211.352 130.216 210.727 130.568 210.227C130.92 209.727 131.378 209.352 131.94 209.102C132.503 208.852 133.097 208.727 133.722 208.727C134.216 208.727 134.619 208.767 134.932 208.847C135.244 208.926 135.477 209 135.631 209.068L135.051 210.807C134.949 210.773 134.807 210.73 134.625 210.679C134.449 210.628 134.216 210.602 133.926 210.602C133.261 210.602 132.781 210.77 132.486 211.105C132.196 211.44 132.051 211.932 132.051 212.58V227H130.04ZM142.581 227.273C141.399 227.273 140.362 226.991 139.47 226.429C138.584 225.866 137.891 225.08 137.391 224.068C136.896 223.057 136.649 221.875 136.649 220.523C136.649 219.159 136.896 217.969 137.391 216.952C137.891 215.935 138.584 215.145 139.47 214.582C140.362 214.02 141.399 213.739 142.581 213.739C143.763 213.739 144.797 214.02 145.683 214.582C146.575 215.145 147.268 215.935 147.763 216.952C148.263 217.969 148.513 219.159 148.513 220.523C148.513 221.875 148.263 223.057 147.763 224.068C147.268 225.08 146.575 225.866 145.683 226.429C144.797 226.991 143.763 227.273 142.581 227.273ZM142.581 225.466C143.479 225.466 144.217 225.236 144.797 224.776C145.376 224.315 145.805 223.71 146.084 222.96C146.362 222.21 146.501 221.398 146.501 220.523C146.501 219.648 146.362 218.832 146.084 218.077C145.805 217.321 145.376 216.71 144.797 216.244C144.217 215.778 143.479 215.545 142.581 215.545C141.683 215.545 140.945 215.778 140.365 216.244C139.786 216.71 139.357 217.321 139.078 218.077C138.8 218.832 138.661 219.648 138.661 220.523C138.661 221.398 138.8 222.21 139.078 222.96C139.357 223.71 139.786 224.315 140.365 224.776C140.945 225.236 141.683 225.466 142.581 225.466ZM151.583 227V213.909H153.526V215.886H153.663C153.901 215.239 154.333 214.713 154.958 214.31C155.583 213.906 156.288 213.705 157.072 213.705C157.219 213.705 157.404 213.707 157.626 213.713C157.847 213.719 158.015 213.727 158.129 213.739V215.784C158.06 215.767 157.904 215.741 157.66 215.707C157.421 215.668 157.168 215.648 156.901 215.648C156.265 215.648 155.697 215.781 155.197 216.048C154.702 216.31 154.31 216.673 154.021 217.139C153.737 217.599 153.594 218.125 153.594 218.716V227H151.583ZM172.956 213.909V215.614H166.172V213.909H172.956ZM168.149 210.773H170.161V223.25C170.161 223.818 170.243 224.244 170.408 224.528C170.578 224.807 170.794 224.994 171.055 225.091C171.322 225.182 171.604 225.227 171.899 225.227C172.121 225.227 172.303 225.216 172.445 225.193C172.587 225.165 172.7 225.142 172.786 225.125L173.195 226.932C173.058 226.983 172.868 227.034 172.624 227.085C172.379 227.142 172.07 227.17 171.695 227.17C171.126 227.17 170.57 227.048 170.024 226.804C169.484 226.56 169.036 226.188 168.678 225.688C168.325 225.188 168.149 224.557 168.149 223.795V210.773ZM178.274 219.125V227H176.263V209.545H178.274V215.955H178.445C178.751 215.278 179.212 214.741 179.825 214.344C180.445 213.94 181.268 213.739 182.297 213.739C183.189 213.739 183.97 213.918 184.641 214.276C185.311 214.628 185.831 215.17 186.2 215.903C186.575 216.631 186.763 217.557 186.763 218.682V227H184.751V218.818C184.751 217.778 184.482 216.974 183.942 216.406C183.408 215.832 182.666 215.545 181.717 215.545C181.058 215.545 180.467 215.685 179.945 215.963C179.428 216.241 179.018 216.648 178.717 217.182C178.422 217.716 178.274 218.364 178.274 219.125ZM195.931 227.273C194.67 227.273 193.582 226.994 192.667 226.438C191.758 225.875 191.056 225.091 190.562 224.085C190.073 223.074 189.829 221.898 189.829 220.557C189.829 219.216 190.073 218.034 190.562 217.011C191.056 215.983 191.744 215.182 192.624 214.608C193.511 214.028 194.545 213.739 195.727 213.739C196.408 213.739 197.082 213.852 197.746 214.08C198.411 214.307 199.016 214.676 199.562 215.188C200.107 215.693 200.542 216.364 200.866 217.199C201.19 218.034 201.352 219.062 201.352 220.284V221.136H191.261V219.398H199.306C199.306 218.659 199.158 218 198.863 217.42C198.573 216.841 198.158 216.384 197.619 216.048C197.085 215.713 196.454 215.545 195.727 215.545C194.925 215.545 194.232 215.744 193.647 216.142C193.067 216.534 192.621 217.045 192.309 217.676C191.996 218.307 191.84 218.983 191.84 219.705V220.864C191.84 221.852 192.011 222.69 192.352 223.378C192.698 224.06 193.178 224.58 193.792 224.938C194.406 225.29 195.119 225.466 195.931 225.466C196.46 225.466 196.937 225.392 197.363 225.244C197.795 225.091 198.167 224.864 198.479 224.562C198.792 224.256 199.033 223.875 199.204 223.42L201.147 223.966C200.942 224.625 200.599 225.205 200.116 225.705C199.633 226.199 199.036 226.585 198.326 226.864C197.616 227.136 196.817 227.273 195.931 227.273ZM211.161 231.909V213.909H213.104V215.989H213.343C213.491 215.761 213.695 215.472 213.957 215.119C214.224 214.761 214.604 214.443 215.099 214.165C215.599 213.881 216.275 213.739 217.127 213.739C218.229 213.739 219.201 214.014 220.042 214.565C220.883 215.116 221.539 215.898 222.011 216.909C222.482 217.92 222.718 219.114 222.718 220.489C222.718 221.875 222.482 223.077 222.011 224.094C221.539 225.105 220.886 225.889 220.05 226.446C219.215 226.997 218.252 227.273 217.161 227.273C216.32 227.273 215.647 227.134 215.141 226.855C214.636 226.571 214.246 226.25 213.974 225.892C213.701 225.528 213.491 225.227 213.343 224.989H213.173V231.909H211.161ZM213.138 220.455C213.138 221.443 213.283 222.315 213.573 223.071C213.863 223.821 214.286 224.409 214.843 224.835C215.4 225.256 216.082 225.466 216.888 225.466C217.729 225.466 218.431 225.244 218.994 224.801C219.562 224.352 219.988 223.75 220.272 222.994C220.562 222.233 220.707 221.386 220.707 220.455C220.707 219.534 220.565 218.705 220.281 217.966C220.002 217.222 219.579 216.634 219.011 216.202C218.448 215.764 217.741 215.545 216.888 215.545C216.07 215.545 215.383 215.753 214.826 216.168C214.269 216.577 213.849 217.151 213.565 217.889C213.281 218.622 213.138 219.477 213.138 220.455ZM229.638 227.307C228.809 227.307 228.056 227.151 227.38 226.838C226.704 226.52 226.167 226.062 225.769 225.466C225.371 224.864 225.173 224.136 225.173 223.284C225.173 222.534 225.32 221.926 225.616 221.46C225.911 220.989 226.306 220.619 226.8 220.352C227.295 220.085 227.84 219.886 228.437 219.756C229.039 219.619 229.644 219.511 230.252 219.432C231.048 219.33 231.692 219.253 232.187 219.202C232.687 219.145 233.05 219.051 233.278 218.92C233.511 218.79 233.627 218.562 233.627 218.239V218.17C233.627 217.33 233.397 216.676 232.937 216.21C232.482 215.744 231.792 215.511 230.866 215.511C229.906 215.511 229.153 215.722 228.607 216.142C228.062 216.562 227.678 217.011 227.457 217.489L225.548 216.807C225.888 216.011 226.343 215.392 226.911 214.949C227.485 214.5 228.11 214.187 228.786 214.011C229.468 213.83 230.138 213.739 230.798 213.739C231.218 213.739 231.701 213.79 232.246 213.892C232.798 213.989 233.329 214.19 233.84 214.497C234.357 214.804 234.786 215.267 235.127 215.886C235.468 216.506 235.638 217.335 235.638 218.375V227H233.627V225.227H233.525C233.388 225.511 233.161 225.815 232.843 226.139C232.525 226.463 232.102 226.739 231.573 226.966C231.045 227.193 230.4 227.307 229.638 227.307ZM229.945 225.5C230.741 225.5 231.411 225.344 231.957 225.031C232.508 224.719 232.923 224.315 233.201 223.821C233.485 223.327 233.627 222.807 233.627 222.261V220.42C233.542 220.523 233.354 220.616 233.065 220.702C232.781 220.781 232.451 220.852 232.076 220.915C231.707 220.972 231.346 221.023 230.994 221.068C230.647 221.108 230.366 221.142 230.15 221.17C229.627 221.239 229.138 221.349 228.684 221.503C228.235 221.651 227.871 221.875 227.593 222.176C227.32 222.472 227.184 222.875 227.184 223.386C227.184 224.085 227.442 224.614 227.96 224.972C228.482 225.324 229.144 225.5 229.945 225.5ZM248.582 216.841L246.776 217.352C246.662 217.051 246.494 216.759 246.273 216.474C246.057 216.185 245.761 215.946 245.386 215.759C245.011 215.571 244.531 215.477 243.946 215.477C243.145 215.477 242.477 215.662 241.943 216.031C241.415 216.395 241.151 216.858 241.151 217.42C241.151 217.92 241.332 218.315 241.696 218.605C242.06 218.895 242.628 219.136 243.401 219.33L245.344 219.807C246.514 220.091 247.386 220.526 247.96 221.111C248.534 221.69 248.821 222.437 248.821 223.352C248.821 224.102 248.605 224.773 248.173 225.364C247.747 225.955 247.151 226.42 246.384 226.761C245.616 227.102 244.724 227.273 243.707 227.273C242.372 227.273 241.267 226.983 240.392 226.403C239.517 225.824 238.963 224.977 238.73 223.864L240.639 223.386C240.821 224.091 241.165 224.619 241.67 224.972C242.182 225.324 242.849 225.5 243.673 225.5C244.611 225.5 245.355 225.301 245.906 224.903C246.463 224.5 246.741 224.017 246.741 223.455C246.741 223 246.582 222.619 246.264 222.312C245.946 222 245.457 221.767 244.798 221.614L242.616 221.102C241.418 220.818 240.537 220.378 239.974 219.781C239.418 219.179 239.139 218.426 239.139 217.523C239.139 216.784 239.347 216.131 239.761 215.562C240.182 214.994 240.753 214.548 241.474 214.224C242.202 213.901 243.026 213.739 243.946 213.739C245.241 213.739 246.259 214.023 246.997 214.591C247.741 215.159 248.27 215.909 248.582 216.841ZM257.542 213.909V215.614H250.758V213.909H257.542ZM252.735 210.773H254.746V223.25C254.746 223.818 254.829 224.244 254.994 224.528C255.164 224.807 255.38 224.994 255.641 225.091C255.908 225.182 256.19 225.227 256.485 225.227C256.707 225.227 256.888 225.216 257.031 225.193C257.173 225.165 257.286 225.142 257.371 225.125L257.781 226.932C257.644 226.983 257.454 227.034 257.21 227.085C256.965 227.142 256.656 227.17 256.281 227.17C255.712 227.17 255.156 227.048 254.61 226.804C254.07 226.56 253.621 226.188 253.263 225.688C252.911 225.188 252.735 224.557 252.735 223.795V210.773ZM268.817 213.909L271.954 219.261L275.09 213.909H277.408L273.181 220.455L277.408 227H275.09L271.954 221.92L268.817 227H266.499L270.658 220.455L266.499 213.909H268.817ZM291.972 227.273C290.881 227.273 289.918 226.997 289.082 226.446C288.247 225.889 287.594 225.105 287.122 224.094C286.651 223.077 286.415 221.875 286.415 220.489C286.415 219.114 286.651 217.92 287.122 216.909C287.594 215.898 288.25 215.116 289.091 214.565C289.932 214.014 290.903 213.739 292.006 213.739C292.858 213.739 293.531 213.881 294.026 214.165C294.526 214.443 294.906 214.761 295.168 215.119C295.435 215.472 295.642 215.761 295.79 215.989H295.96V209.545H297.972V227H296.028V224.989H295.79C295.642 225.227 295.432 225.528 295.159 225.892C294.886 226.25 294.497 226.571 293.991 226.855C293.486 227.134 292.813 227.273 291.972 227.273ZM292.244 225.466C293.051 225.466 293.733 225.256 294.29 224.835C294.847 224.409 295.27 223.821 295.56 223.071C295.849 222.315 295.994 221.443 295.994 220.455C295.994 219.477 295.852 218.622 295.568 217.889C295.284 217.151 294.864 216.577 294.307 216.168C293.75 215.753 293.063 215.545 292.244 215.545C291.392 215.545 290.682 215.764 290.114 216.202C289.551 216.634 289.128 217.222 288.844 217.966C288.565 218.705 288.426 219.534 288.426 220.455C288.426 221.386 288.568 222.233 288.852 222.994C289.142 223.75 289.568 224.352 290.131 224.801C290.699 225.244 291.403 225.466 292.244 225.466ZM305.787 227.307C304.957 227.307 304.205 227.151 303.528 226.838C302.852 226.52 302.315 226.062 301.918 225.466C301.52 224.864 301.321 224.136 301.321 223.284C301.321 222.534 301.469 221.926 301.764 221.46C302.06 220.989 302.455 220.619 302.949 220.352C303.443 220.085 303.989 219.886 304.585 219.756C305.188 219.619 305.793 219.511 306.401 219.432C307.196 219.33 307.841 219.253 308.335 219.202C308.835 219.145 309.199 219.051 309.426 218.92C309.659 218.79 309.776 218.562 309.776 218.239V218.17C309.776 217.33 309.545 216.676 309.085 216.21C308.631 215.744 307.94 215.511 307.014 215.511C306.054 215.511 305.301 215.722 304.756 216.142C304.21 216.562 303.827 217.011 303.605 217.489L301.696 216.807C302.037 216.011 302.491 215.392 303.06 214.949C303.634 214.5 304.259 214.187 304.935 214.011C305.616 213.83 306.287 213.739 306.946 213.739C307.366 213.739 307.849 213.79 308.395 213.892C308.946 213.989 309.477 214.19 309.989 214.497C310.506 214.804 310.935 215.267 311.276 215.886C311.616 216.506 311.787 217.335 311.787 218.375V227H309.776V225.227H309.673C309.537 225.511 309.31 225.815 308.991 226.139C308.673 226.463 308.25 226.739 307.722 226.966C307.193 227.193 306.548 227.307 305.787 227.307ZM306.094 225.5C306.889 225.5 307.56 225.344 308.105 225.031C308.656 224.719 309.071 224.315 309.349 223.821C309.634 223.327 309.776 222.807 309.776 222.261V220.42C309.69 220.523 309.503 220.616 309.213 220.702C308.929 220.781 308.599 220.852 308.224 220.915C307.855 220.972 307.494 221.023 307.142 221.068C306.795 221.108 306.514 221.142 306.298 221.17C305.776 221.239 305.287 221.349 304.832 221.503C304.384 221.651 304.02 221.875 303.741 222.176C303.469 222.472 303.332 222.875 303.332 223.386C303.332 224.085 303.591 224.614 304.108 224.972C304.631 225.324 305.293 225.5 306.094 225.5ZM316.285 231.909C315.944 231.909 315.64 231.881 315.373 231.824C315.106 231.773 314.921 231.722 314.819 231.67L315.33 229.898C315.819 230.023 316.251 230.068 316.626 230.034C317.001 230 317.333 229.832 317.623 229.531C317.918 229.236 318.188 228.756 318.433 228.091L318.808 227.068L313.967 213.909H316.148L319.762 224.341H319.898L323.512 213.909H325.694L320.137 228.909C319.887 229.585 319.577 230.145 319.208 230.588C318.839 231.037 318.41 231.369 317.921 231.585C317.438 231.801 316.893 231.909 316.285 231.909ZM337.621 216.841L335.815 217.352C335.701 217.051 335.533 216.759 335.312 216.474C335.096 216.185 334.8 215.946 334.425 215.759C334.05 215.571 333.57 215.477 332.985 215.477C332.184 215.477 331.516 215.662 330.982 216.031C330.454 216.395 330.19 216.858 330.19 217.42C330.19 217.92 330.371 218.315 330.735 218.605C331.099 218.895 331.667 219.136 332.44 219.33L334.383 219.807C335.553 220.091 336.425 220.526 336.999 221.111C337.573 221.69 337.86 222.437 337.86 223.352C337.86 224.102 337.644 224.773 337.212 225.364C336.786 225.955 336.19 226.42 335.423 226.761C334.656 227.102 333.763 227.273 332.746 227.273C331.411 227.273 330.306 226.983 329.431 226.403C328.556 225.824 328.002 224.977 327.769 223.864L329.678 223.386C329.86 224.091 330.204 224.619 330.71 224.972C331.221 225.324 331.888 225.5 332.712 225.5C333.65 225.5 334.394 225.301 334.945 224.903C335.502 224.5 335.781 224.017 335.781 223.455C335.781 223 335.621 222.619 335.303 222.312C334.985 222 334.496 221.767 333.837 221.614L331.656 221.102C330.457 220.818 329.576 220.378 329.013 219.781C328.457 219.179 328.178 218.426 328.178 217.523C328.178 216.784 328.386 216.131 328.8 215.562C329.221 214.994 329.792 214.548 330.513 214.224C331.241 213.901 332.065 213.739 332.985 213.739C334.281 213.739 335.298 214.023 336.036 214.591C336.781 215.159 337.309 215.909 337.621 216.841ZM342.354 227.136C341.933 227.136 341.572 226.986 341.271 226.685C340.97 226.384 340.82 226.023 340.82 225.602C340.82 225.182 340.97 224.821 341.271 224.52C341.572 224.219 341.933 224.068 342.354 224.068C342.774 224.068 343.135 224.219 343.436 224.52C343.737 224.821 343.888 225.182 343.888 225.602C343.888 225.881 343.817 226.136 343.675 226.369C343.538 226.602 343.354 226.79 343.121 226.932C342.893 227.068 342.638 227.136 342.354 227.136ZM342.354 217.42C341.933 217.42 341.572 217.27 341.271 216.969C340.97 216.668 340.82 216.307 340.82 215.886C340.82 215.466 340.97 215.105 341.271 214.804C341.572 214.503 341.933 214.352 342.354 214.352C342.774 214.352 343.135 214.503 343.436 214.804C343.737 215.105 343.888 215.466 343.888 215.886C343.888 216.165 343.817 216.42 343.675 216.653C343.538 216.886 343.354 217.074 343.121 217.216C342.893 217.352 342.638 217.42 342.354 217.42Z" fill="black"/>
<path d="M874.614 211.545H877.034L881.875 219.693H882.08L886.92 211.545H889.341L883.034 221.807V229H880.92V221.807L874.614 211.545ZM895.268 229.273C894.087 229.273 893.05 228.991 892.158 228.429C891.271 227.866 890.578 227.08 890.078 226.068C889.584 225.057 889.337 223.875 889.337 222.523C889.337 221.159 889.584 219.969 890.078 218.952C890.578 217.935 891.271 217.145 892.158 216.582C893.05 216.02 894.087 215.739 895.268 215.739C896.45 215.739 897.484 216.02 898.371 216.582C899.263 217.145 899.956 217.935 900.45 218.952C900.95 219.969 901.2 221.159 901.2 222.523C901.2 223.875 900.95 225.057 900.45 226.068C899.956 227.08 899.263 227.866 898.371 228.429C897.484 228.991 896.45 229.273 895.268 229.273ZM895.268 227.466C896.166 227.466 896.905 227.236 897.484 226.776C898.064 226.315 898.493 225.71 898.771 224.96C899.05 224.21 899.189 223.398 899.189 222.523C899.189 221.648 899.05 220.832 898.771 220.077C898.493 219.321 898.064 218.71 897.484 218.244C896.905 217.778 896.166 217.545 895.268 217.545C894.371 217.545 893.632 217.778 893.053 218.244C892.473 218.71 892.044 219.321 891.766 220.077C891.487 220.832 891.348 221.648 891.348 222.523C891.348 223.398 891.487 224.21 891.766 224.96C892.044 225.71 892.473 226.315 893.053 226.776C893.632 227.236 894.371 227.466 895.268 227.466ZM912.521 223.648V215.909H914.532V229H912.521V226.784H912.384C912.077 227.449 911.6 228.014 910.952 228.48C910.305 228.94 909.487 229.17 908.498 229.17C907.68 229.17 906.952 228.991 906.316 228.634C905.68 228.27 905.18 227.724 904.816 226.997C904.452 226.264 904.271 225.341 904.271 224.227V215.909H906.282V224.091C906.282 225.045 906.549 225.807 907.083 226.375C907.623 226.943 908.31 227.227 909.146 227.227C909.646 227.227 910.154 227.099 910.671 226.844C911.194 226.588 911.631 226.196 911.984 225.668C912.342 225.139 912.521 224.466 912.521 223.648ZM918.216 229V215.909H920.159V217.886H920.295C920.534 217.239 920.966 216.713 921.591 216.31C922.216 215.906 922.92 215.705 923.705 215.705C923.852 215.705 924.037 215.707 924.259 215.713C924.48 215.719 924.648 215.727 924.761 215.739V217.784C924.693 217.767 924.537 217.741 924.293 217.707C924.054 217.668 923.801 217.648 923.534 217.648C922.898 217.648 922.33 217.781 921.83 218.048C921.335 218.31 920.943 218.673 920.653 219.139C920.369 219.599 920.227 220.125 920.227 220.716V229H918.216ZM934.168 229V211.545H940.066C941.435 211.545 942.555 211.793 943.424 212.287C944.299 212.776 944.947 213.438 945.367 214.273C945.788 215.108 945.998 216.04 945.998 217.068C945.998 218.097 945.788 219.031 945.367 219.872C944.952 220.713 944.31 221.384 943.441 221.884C942.572 222.378 941.458 222.625 940.1 222.625H935.873V220.75H940.032C940.969 220.75 941.722 220.588 942.29 220.264C942.859 219.94 943.271 219.503 943.526 218.952C943.788 218.395 943.918 217.767 943.918 217.068C943.918 216.369 943.788 215.744 943.526 215.193C943.271 214.642 942.856 214.21 942.282 213.898C941.708 213.58 940.947 213.42 939.998 213.42H936.282V229H934.168ZM951.141 211.545V229H949.13V211.545H951.141ZM958.678 229.307C957.848 229.307 957.095 229.151 956.419 228.838C955.743 228.52 955.206 228.062 954.808 227.466C954.411 226.864 954.212 226.136 954.212 225.284C954.212 224.534 954.359 223.926 954.655 223.46C954.95 222.989 955.345 222.619 955.839 222.352C956.334 222.085 956.879 221.886 957.476 221.756C958.078 221.619 958.683 221.511 959.291 221.432C960.087 221.33 960.732 221.253 961.226 221.202C961.726 221.145 962.089 221.051 962.317 220.92C962.55 220.79 962.666 220.562 962.666 220.239V220.17C962.666 219.33 962.436 218.676 961.976 218.21C961.521 217.744 960.831 217.511 959.905 217.511C958.945 217.511 958.192 217.722 957.646 218.142C957.101 218.562 956.717 219.011 956.496 219.489L954.587 218.807C954.928 218.011 955.382 217.392 955.95 216.949C956.524 216.5 957.149 216.187 957.825 216.011C958.507 215.83 959.178 215.739 959.837 215.739C960.257 215.739 960.74 215.79 961.286 215.892C961.837 215.989 962.368 216.19 962.879 216.497C963.396 216.804 963.825 217.267 964.166 217.886C964.507 218.506 964.678 219.335 964.678 220.375V229H962.666V227.227H962.564C962.428 227.511 962.2 227.815 961.882 228.139C961.564 228.463 961.141 228.739 960.612 228.966C960.084 229.193 959.439 229.307 958.678 229.307ZM958.984 227.5C959.78 227.5 960.45 227.344 960.996 227.031C961.547 226.719 961.962 226.315 962.24 225.821C962.524 225.327 962.666 224.807 962.666 224.261V222.42C962.581 222.523 962.393 222.616 962.104 222.702C961.82 222.781 961.49 222.852 961.115 222.915C960.746 222.972 960.385 223.023 960.033 223.068C959.686 223.108 959.405 223.142 959.189 223.17C958.666 223.239 958.178 223.349 957.723 223.503C957.274 223.651 956.911 223.875 956.632 224.176C956.359 224.472 956.223 224.875 956.223 225.386C956.223 226.085 956.482 226.614 956.999 226.972C957.521 227.324 958.183 227.5 958.984 227.5ZM969.175 233.909C968.835 233.909 968.531 233.881 968.263 233.824C967.996 233.773 967.812 233.722 967.71 233.67L968.221 231.898C968.71 232.023 969.141 232.068 969.516 232.034C969.891 232 970.224 231.832 970.513 231.531C970.809 231.236 971.079 230.756 971.323 230.091L971.698 229.068L966.857 215.909H969.039L972.653 226.341H972.789L976.403 215.909H978.585L973.028 230.909C972.778 231.585 972.468 232.145 972.099 232.588C971.729 233.037 971.3 233.369 970.812 233.585C970.329 233.801 969.783 233.909 969.175 233.909ZM983.251 211.545V229H981.239V211.545H983.251ZM986.935 229V215.909H988.946V229H986.935ZM987.957 213.727C987.565 213.727 987.227 213.594 986.943 213.327C986.665 213.06 986.526 212.739 986.526 212.364C986.526 211.989 986.665 211.668 986.943 211.401C987.227 211.134 987.565 211 987.957 211C988.349 211 988.685 211.134 988.963 211.401C989.247 211.668 989.389 211.989 989.389 212.364C989.389 212.739 989.247 213.06 988.963 213.327C988.685 213.594 988.349 213.727 987.957 213.727ZM1001.9 218.841L1000.1 219.352C999.982 219.051 999.815 218.759 999.593 218.474C999.377 218.185 999.082 217.946 998.707 217.759C998.332 217.571 997.852 217.477 997.266 217.477C996.465 217.477 995.798 217.662 995.263 218.031C994.735 218.395 994.471 218.858 994.471 219.42C994.471 219.92 994.653 220.315 995.016 220.605C995.38 220.895 995.948 221.136 996.721 221.33L998.664 221.807C999.835 222.091 1000.71 222.526 1001.28 223.111C1001.85 223.69 1002.14 224.437 1002.14 225.352C1002.14 226.102 1001.93 226.773 1001.49 227.364C1001.07 227.955 1000.47 228.42 999.704 228.761C998.937 229.102 998.045 229.273 997.028 229.273C995.692 229.273 994.587 228.983 993.712 228.403C992.837 227.824 992.283 226.977 992.05 225.864L993.96 225.386C994.141 226.091 994.485 226.619 994.991 226.972C995.502 227.324 996.17 227.5 996.994 227.5C997.931 227.5 998.675 227.301 999.227 226.903C999.783 226.5 1000.06 226.017 1000.06 225.455C1000.06 225 999.903 224.619 999.585 224.312C999.266 224 998.778 223.767 998.119 223.614L995.937 223.102C994.738 222.818 993.857 222.378 993.295 221.781C992.738 221.179 992.46 220.426 992.46 219.523C992.46 218.784 992.667 218.131 993.082 217.562C993.502 216.994 994.073 216.548 994.795 216.224C995.522 215.901 996.346 215.739 997.266 215.739C998.562 215.739 999.579 216.023 1000.32 216.591C1001.06 217.159 1001.59 217.909 1001.9 218.841ZM1010.86 215.909V217.614H1004.08V215.909H1010.86ZM1006.06 212.773H1008.07V225.25C1008.07 225.818 1008.15 226.244 1008.31 226.528C1008.48 226.807 1008.7 226.994 1008.96 227.091C1009.23 227.182 1009.51 227.227 1009.81 227.227C1010.03 227.227 1010.21 227.216 1010.35 227.193C1010.49 227.165 1010.61 227.142 1010.69 227.125L1011.1 228.932C1010.96 228.983 1010.77 229.034 1010.53 229.085C1010.29 229.142 1009.98 229.17 1009.6 229.17C1009.03 229.17 1008.48 229.048 1007.93 228.804C1007.39 228.56 1006.94 228.188 1006.58 227.688C1006.23 227.188 1006.06 226.557 1006.06 225.795V212.773ZM1022.93 218.841L1021.12 219.352C1021.01 219.051 1020.84 218.759 1020.62 218.474C1020.4 218.185 1020.11 217.946 1019.73 217.759C1019.36 217.571 1018.88 217.477 1018.29 217.477C1017.49 217.477 1016.82 217.662 1016.29 218.031C1015.76 218.395 1015.49 218.858 1015.49 219.42C1015.49 219.92 1015.68 220.315 1016.04 220.605C1016.4 220.895 1016.97 221.136 1017.74 221.33L1019.69 221.807C1020.86 222.091 1021.73 222.526 1022.3 223.111C1022.88 223.69 1023.16 224.437 1023.16 225.352C1023.16 226.102 1022.95 226.773 1022.52 227.364C1022.09 227.955 1021.49 228.42 1020.73 228.761C1019.96 229.102 1019.07 229.273 1018.05 229.273C1016.72 229.273 1015.61 228.983 1014.74 228.403C1013.86 227.824 1013.31 226.977 1013.07 225.864L1014.98 225.386C1015.16 226.091 1015.51 226.619 1016.01 226.972C1016.53 227.324 1017.19 227.5 1018.02 227.5C1018.95 227.5 1019.7 227.301 1020.25 226.903C1020.81 226.5 1021.09 226.017 1021.09 225.455C1021.09 225 1020.93 224.619 1020.61 224.312C1020.29 224 1019.8 223.767 1019.14 223.614L1016.96 223.102C1015.76 222.818 1014.88 222.378 1014.32 221.781C1013.76 221.179 1013.48 220.426 1013.48 219.523C1013.48 218.784 1013.69 218.131 1014.11 217.562C1014.53 216.994 1015.1 216.548 1015.82 216.224C1016.55 215.901 1017.37 215.739 1018.29 215.739C1019.59 215.739 1020.6 216.023 1021.34 216.591C1022.09 217.159 1022.61 217.909 1022.93 218.841Z" fill="black"/>
<path d="M350.499 463C350.311 462.426 350.064 461.912 349.757 461.457C349.456 460.997 349.095 460.605 348.675 460.281C348.26 459.957 347.788 459.71 347.26 459.54C346.732 459.369 346.152 459.284 345.521 459.284C344.487 459.284 343.547 459.551 342.7 460.085C341.854 460.619 341.18 461.406 340.68 462.446C340.18 463.486 339.93 464.761 339.93 466.273C339.93 467.784 340.183 469.06 340.689 470.099C341.195 471.139 341.879 471.926 342.743 472.46C343.607 472.994 344.578 473.261 345.658 473.261C346.658 473.261 347.538 473.048 348.3 472.622C349.067 472.19 349.663 471.582 350.089 470.798C350.521 470.009 350.737 469.08 350.737 468.011L351.385 468.148H346.135V466.273H352.783V468.148C352.783 469.585 352.476 470.835 351.862 471.898C351.254 472.96 350.413 473.784 349.339 474.369C348.271 474.949 347.044 475.239 345.658 475.239C344.112 475.239 342.754 474.875 341.584 474.148C340.419 473.42 339.51 472.386 338.857 471.045C338.209 469.705 337.885 468.114 337.885 466.273C337.885 464.892 338.07 463.651 338.439 462.548C338.814 461.44 339.342 460.497 340.024 459.719C340.706 458.94 341.513 458.344 342.445 457.929C343.376 457.514 344.402 457.307 345.521 457.307C346.442 457.307 347.3 457.446 348.095 457.724C348.896 457.997 349.609 458.386 350.234 458.892C350.865 459.392 351.391 459.991 351.811 460.69C352.232 461.384 352.521 462.153 352.68 463H350.499ZM356.13 475V461.909H358.073V463.886H358.21C358.448 463.239 358.88 462.713 359.505 462.31C360.13 461.906 360.835 461.705 361.619 461.705C361.766 461.705 361.951 461.707 362.173 461.713C362.394 461.719 362.562 461.727 362.675 461.739V463.784C362.607 463.767 362.451 463.741 362.207 463.707C361.968 463.668 361.715 463.648 361.448 463.648C360.812 463.648 360.244 463.781 359.744 464.048C359.249 464.31 358.857 464.673 358.567 465.139C358.283 465.599 358.141 466.125 358.141 466.716V475H356.13ZM368.912 475.307C368.082 475.307 367.33 475.151 366.653 474.838C365.977 474.52 365.44 474.062 365.043 473.466C364.645 472.864 364.446 472.136 364.446 471.284C364.446 470.534 364.594 469.926 364.889 469.46C365.185 468.989 365.58 468.619 366.074 468.352C366.568 468.085 367.114 467.886 367.71 467.756C368.313 467.619 368.918 467.511 369.526 467.432C370.321 467.33 370.966 467.253 371.46 467.202C371.96 467.145 372.324 467.051 372.551 466.92C372.784 466.79 372.901 466.562 372.901 466.239V466.17C372.901 465.33 372.67 464.676 372.21 464.21C371.756 463.744 371.065 463.511 370.139 463.511C369.179 463.511 368.426 463.722 367.881 464.142C367.335 464.562 366.952 465.011 366.73 465.489L364.821 464.807C365.162 464.011 365.616 463.392 366.185 462.949C366.759 462.5 367.384 462.187 368.06 462.011C368.741 461.83 369.412 461.739 370.071 461.739C370.491 461.739 370.974 461.79 371.52 461.892C372.071 461.989 372.602 462.19 373.114 462.497C373.631 462.804 374.06 463.267 374.401 463.886C374.741 464.506 374.912 465.335 374.912 466.375V475H372.901V473.227H372.798C372.662 473.511 372.435 473.815 372.116 474.139C371.798 474.463 371.375 474.739 370.847 474.966C370.318 475.193 369.673 475.307 368.912 475.307ZM369.219 473.5C370.014 473.5 370.685 473.344 371.23 473.031C371.781 472.719 372.196 472.315 372.474 471.821C372.759 471.327 372.901 470.807 372.901 470.261V468.42C372.815 468.523 372.628 468.616 372.338 468.702C372.054 468.781 371.724 468.852 371.349 468.915C370.98 468.972 370.619 469.023 370.267 469.068C369.92 469.108 369.639 469.142 369.423 469.17C368.901 469.239 368.412 469.349 367.957 469.503C367.509 469.651 367.145 469.875 366.866 470.176C366.594 470.472 366.457 470.875 366.457 471.386C366.457 472.085 366.716 472.614 367.233 472.972C367.756 473.324 368.418 473.5 369.219 473.5ZM378.583 479.909V461.909H380.526V463.989H380.765C380.913 463.761 381.117 463.472 381.379 463.119C381.646 462.761 382.026 462.443 382.521 462.165C383.021 461.881 383.697 461.739 384.549 461.739C385.651 461.739 386.623 462.014 387.464 462.565C388.305 463.116 388.961 463.898 389.433 464.909C389.904 465.92 390.14 467.114 390.14 468.489C390.14 469.875 389.904 471.077 389.433 472.094C388.961 473.105 388.308 473.889 387.472 474.446C386.637 474.997 385.674 475.273 384.583 475.273C383.742 475.273 383.069 475.134 382.563 474.855C382.058 474.571 381.668 474.25 381.396 473.892C381.123 473.528 380.913 473.227 380.765 472.989H380.594V479.909H378.583ZM380.56 468.455C380.56 469.443 380.705 470.315 380.995 471.071C381.285 471.821 381.708 472.409 382.265 472.835C382.822 473.256 383.504 473.466 384.31 473.466C385.151 473.466 385.853 473.244 386.415 472.801C386.984 472.352 387.41 471.75 387.694 470.994C387.984 470.233 388.129 469.386 388.129 468.455C388.129 467.534 387.987 466.705 387.702 465.966C387.424 465.222 387.001 464.634 386.433 464.202C385.87 463.764 385.163 463.545 384.31 463.545C383.492 463.545 382.805 463.753 382.248 464.168C381.691 464.577 381.271 465.151 380.987 465.889C380.702 466.622 380.56 467.477 380.56 468.455ZM395.219 467.125V475H393.208V457.545H395.219V463.955H395.39C395.697 463.278 396.157 462.741 396.771 462.344C397.39 461.94 398.214 461.739 399.242 461.739C400.134 461.739 400.915 461.918 401.586 462.276C402.256 462.628 402.776 463.17 403.146 463.903C403.521 464.631 403.708 465.557 403.708 466.682V475H401.697V466.818C401.697 465.778 401.427 464.974 400.887 464.406C400.353 463.832 399.612 463.545 398.663 463.545C398.004 463.545 397.413 463.685 396.89 463.963C396.373 464.241 395.964 464.648 395.663 465.182C395.367 465.716 395.219 466.364 395.219 467.125Z" fill="black"/>
<rect x="1024" y="856" width="335" height="88" fill="#D9D9D9"/>
<path d="M1113.79 900H1111.57L1117.98 882.545H1120.16L1126.57 900H1124.35L1119.14 885.307H1119L1113.79 900ZM1114.6 893.182H1123.54V895.057H1114.6V893.182ZM1133.96 900.273C1132.87 900.273 1131.91 899.997 1131.07 899.446C1130.24 898.889 1129.58 898.105 1129.11 897.094C1128.64 896.077 1128.4 894.875 1128.4 893.489C1128.4 892.114 1128.64 890.92 1129.11 889.909C1129.58 888.898 1130.24 888.116 1131.08 887.565C1131.92 887.014 1132.89 886.739 1133.99 886.739C1134.85 886.739 1135.52 886.881 1136.01 887.165C1136.51 887.443 1136.89 887.761 1137.16 888.119C1137.42 888.472 1137.63 888.761 1137.78 888.989H1137.95V882.545H1139.96V900H1138.02V897.989H1137.78C1137.63 898.227 1137.42 898.528 1137.15 898.892C1136.87 899.25 1136.49 899.571 1135.98 899.855C1135.47 900.134 1134.8 900.273 1133.96 900.273ZM1134.23 898.466C1135.04 898.466 1135.72 898.256 1136.28 897.835C1136.83 897.409 1137.26 896.821 1137.55 896.071C1137.84 895.315 1137.98 894.443 1137.98 893.455C1137.98 892.477 1137.84 891.622 1137.56 890.889C1137.27 890.151 1136.85 889.577 1136.3 889.168C1135.74 888.753 1135.05 888.545 1134.23 888.545C1133.38 888.545 1132.67 888.764 1132.1 889.202C1131.54 889.634 1131.12 890.222 1130.83 890.966C1130.55 891.705 1130.41 892.534 1130.41 893.455C1130.41 894.386 1130.56 895.233 1130.84 895.994C1131.13 896.75 1131.56 897.352 1132.12 897.801C1132.69 898.244 1133.39 898.466 1134.23 898.466ZM1148.87 900.273C1147.78 900.273 1146.81 899.997 1145.98 899.446C1145.14 898.889 1144.49 898.105 1144.02 897.094C1143.55 896.077 1143.31 894.875 1143.31 893.489C1143.31 892.114 1143.55 890.92 1144.02 889.909C1144.49 888.898 1145.14 888.116 1145.99 887.565C1146.83 887.014 1147.8 886.739 1148.9 886.739C1149.75 886.739 1150.43 886.881 1150.92 887.165C1151.42 887.443 1151.8 887.761 1152.06 888.119C1152.33 888.472 1152.54 888.761 1152.68 888.989H1152.85V882.545H1154.87V900H1152.92V897.989H1152.68C1152.54 898.227 1152.33 898.528 1152.05 898.892C1151.78 899.25 1151.39 899.571 1150.89 899.855C1150.38 900.134 1149.71 900.273 1148.87 900.273ZM1149.14 898.466C1149.95 898.466 1150.63 898.256 1151.18 897.835C1151.74 897.409 1152.16 896.821 1152.45 896.071C1152.74 895.315 1152.89 894.443 1152.89 893.455C1152.89 892.477 1152.75 891.622 1152.46 890.889C1152.18 890.151 1151.76 889.577 1151.2 889.168C1150.64 888.753 1149.96 888.545 1149.14 888.545C1148.29 888.545 1147.58 888.764 1147.01 889.202C1146.45 889.634 1146.02 890.222 1145.74 890.966C1145.46 891.705 1145.32 892.534 1145.32 893.455C1145.32 894.386 1145.46 895.233 1145.75 895.994C1146.04 896.75 1146.46 897.352 1147.03 897.801C1147.59 898.244 1148.3 898.466 1149.14 898.466ZM1179.69 882.545V900H1177.65L1168.14 886.295H1167.97V900H1165.85V882.545H1167.9L1177.44 896.284H1177.61V882.545H1179.69ZM1189.14 900.273C1187.88 900.273 1186.79 899.994 1185.87 899.438C1184.96 898.875 1184.26 898.091 1183.77 897.085C1183.28 896.074 1183.04 894.898 1183.04 893.557C1183.04 892.216 1183.28 891.034 1183.77 890.011C1184.26 888.983 1184.95 888.182 1185.83 887.608C1186.72 887.028 1187.75 886.739 1188.93 886.739C1189.62 886.739 1190.29 886.852 1190.95 887.08C1191.62 887.307 1192.22 887.676 1192.77 888.188C1193.31 888.693 1193.75 889.364 1194.07 890.199C1194.4 891.034 1194.56 892.062 1194.56 893.284V894.136H1184.47V892.398H1192.51C1192.51 891.659 1192.37 891 1192.07 890.42C1191.78 889.841 1191.37 889.384 1190.83 889.048C1190.29 888.713 1189.66 888.545 1188.93 888.545C1188.13 888.545 1187.44 888.744 1186.85 889.142C1186.27 889.534 1185.83 890.045 1185.52 890.676C1185.2 891.307 1185.05 891.983 1185.05 892.705V893.864C1185.05 894.852 1185.22 895.69 1185.56 896.378C1185.91 897.06 1186.39 897.58 1187 897.938C1187.61 898.29 1188.33 898.466 1189.14 898.466C1189.67 898.466 1190.14 898.392 1190.57 898.244C1191 898.091 1191.37 897.864 1191.69 897.562C1192 897.256 1192.24 896.875 1192.41 896.42L1194.35 896.966C1194.15 897.625 1193.81 898.205 1193.32 898.705C1192.84 899.199 1192.24 899.585 1191.53 899.864C1190.82 900.136 1190.02 900.273 1189.14 900.273ZM1200.58 900L1196.6 886.909H1198.71L1201.54 896.932H1201.68L1204.47 886.909H1206.62L1209.38 896.898H1209.52L1212.35 886.909H1214.46L1210.47 900H1208.49L1205.63 889.943H1205.43L1202.56 900H1200.58ZM1229.53 900H1224.14V882.545H1229.77C1231.46 882.545 1232.91 882.895 1234.11 883.594C1235.32 884.287 1236.24 885.284 1236.88 886.585C1237.52 887.881 1237.85 889.432 1237.85 891.239C1237.85 893.057 1237.52 894.622 1236.87 895.935C1236.23 897.241 1235.28 898.247 1234.04 898.952C1232.81 899.651 1231.3 900 1229.53 900ZM1226.25 898.125H1229.39C1230.83 898.125 1232.03 897.847 1232.98 897.29C1233.93 896.733 1234.64 895.94 1235.1 894.912C1235.57 893.884 1235.8 892.659 1235.8 891.239C1235.8 889.83 1235.57 888.616 1235.11 887.599C1234.65 886.577 1233.96 885.793 1233.05 885.247C1232.13 884.696 1230.99 884.42 1229.63 884.42H1226.25V898.125ZM1244.97 900.307C1244.14 900.307 1243.39 900.151 1242.71 899.838C1242.04 899.52 1241.5 899.062 1241.1 898.466C1240.7 897.864 1240.5 897.136 1240.5 896.284C1240.5 895.534 1240.65 894.926 1240.95 894.46C1241.24 893.989 1241.64 893.619 1242.13 893.352C1242.63 893.085 1243.17 892.886 1243.77 892.756C1244.37 892.619 1244.98 892.511 1245.58 892.432C1246.38 892.33 1247.02 892.253 1247.52 892.202C1248.02 892.145 1248.38 892.051 1248.61 891.92C1248.84 891.79 1248.96 891.562 1248.96 891.239V891.17C1248.96 890.33 1248.73 889.676 1248.27 889.21C1247.81 888.744 1247.12 888.511 1246.2 888.511C1245.24 888.511 1244.48 888.722 1243.94 889.142C1243.39 889.562 1243.01 890.011 1242.79 890.489L1240.88 889.807C1241.22 889.011 1241.68 888.392 1242.24 887.949C1242.82 887.5 1243.44 887.187 1244.12 887.011C1244.8 886.83 1245.47 886.739 1246.13 886.739C1246.55 886.739 1247.03 886.79 1247.58 886.892C1248.13 886.989 1248.66 887.19 1249.17 887.497C1249.69 887.804 1250.12 888.267 1250.46 888.886C1250.8 889.506 1250.97 890.335 1250.97 891.375V900H1248.96V898.227H1248.86C1248.72 898.511 1248.49 898.815 1248.18 899.139C1247.86 899.463 1247.43 899.739 1246.91 899.966C1246.38 900.193 1245.73 900.307 1244.97 900.307ZM1245.28 898.5C1246.07 898.5 1246.74 898.344 1247.29 898.031C1247.84 897.719 1248.25 897.315 1248.53 896.821C1248.82 896.327 1248.96 895.807 1248.96 895.261V893.42C1248.87 893.523 1248.69 893.616 1248.4 893.702C1248.11 893.781 1247.78 893.852 1247.41 893.915C1247.04 893.972 1246.68 894.023 1246.33 894.068C1245.98 894.108 1245.7 894.142 1245.48 894.17C1244.96 894.239 1244.47 894.349 1244.02 894.503C1243.57 894.651 1243.2 894.875 1242.93 895.176C1242.65 895.472 1242.52 895.875 1242.52 896.386C1242.52 897.085 1242.77 897.614 1243.29 897.972C1243.81 898.324 1244.48 898.5 1245.28 898.5ZM1260.33 886.909V888.614H1253.55V886.909H1260.33ZM1255.53 883.773H1257.54V896.25C1257.54 896.818 1257.62 897.244 1257.79 897.528C1257.96 897.807 1258.17 897.994 1258.43 898.091C1258.7 898.182 1258.98 898.227 1259.28 898.227C1259.5 898.227 1259.68 898.216 1259.82 898.193C1259.97 898.165 1260.08 898.142 1260.16 898.125L1260.57 899.932C1260.44 899.983 1260.25 900.034 1260 900.085C1259.76 900.142 1259.45 900.17 1259.07 900.17C1258.51 900.17 1257.95 900.048 1257.4 899.804C1256.86 899.56 1256.41 899.188 1256.06 898.688C1255.7 898.188 1255.53 897.557 1255.53 896.795V883.773ZM1267.21 900.307C1266.38 900.307 1265.63 900.151 1264.95 899.838C1264.28 899.52 1263.74 899.062 1263.34 898.466C1262.95 897.864 1262.75 897.136 1262.75 896.284C1262.75 895.534 1262.89 894.926 1263.19 894.46C1263.49 893.989 1263.88 893.619 1264.37 893.352C1264.87 893.085 1265.41 892.886 1266.01 892.756C1266.61 892.619 1267.22 892.511 1267.83 892.432C1268.62 892.33 1269.27 892.253 1269.76 892.202C1270.26 892.145 1270.62 892.051 1270.85 891.92C1271.08 891.79 1271.2 891.562 1271.2 891.239V891.17C1271.2 890.33 1270.97 889.676 1270.51 889.21C1270.06 888.744 1269.37 888.511 1268.44 888.511C1267.48 888.511 1266.73 888.722 1266.18 889.142C1265.64 889.562 1265.25 890.011 1265.03 890.489L1263.12 889.807C1263.46 889.011 1263.92 888.392 1264.49 887.949C1265.06 887.5 1265.68 887.187 1266.36 887.011C1267.04 886.83 1267.71 886.739 1268.37 886.739C1268.79 886.739 1269.28 886.79 1269.82 886.892C1270.37 886.989 1270.9 887.19 1271.41 887.497C1271.93 887.804 1272.36 888.267 1272.7 888.886C1273.04 889.506 1273.21 890.335 1273.21 891.375V900H1271.2V898.227H1271.1C1270.96 898.511 1270.74 898.815 1270.42 899.139C1270.1 899.463 1269.68 899.739 1269.15 899.966C1268.62 900.193 1267.97 900.307 1267.21 900.307ZM1267.52 898.5C1268.31 898.5 1268.99 898.344 1269.53 898.031C1270.08 897.719 1270.5 897.315 1270.78 896.821C1271.06 896.327 1271.2 895.807 1271.2 895.261V893.42C1271.12 893.523 1270.93 893.616 1270.64 893.702C1270.35 893.781 1270.03 893.852 1269.65 893.915C1269.28 893.972 1268.92 894.023 1268.57 894.068C1268.22 894.108 1267.94 894.142 1267.72 894.17C1267.2 894.239 1266.71 894.349 1266.26 894.503C1265.81 894.651 1265.45 894.875 1265.17 895.176C1264.89 895.472 1264.76 895.875 1264.76 896.386C1264.76 897.085 1265.02 897.614 1265.53 897.972C1266.06 898.324 1266.72 898.5 1267.52 898.5Z" fill="black"/>
</svg>
