<?xml version="1.0" encoding="UTF-8" standalone="no"?><svg id="svg" version="1.1" xmlns="http://www.w3.org/2000/svg" xmlns:xlink="http://www.w3.org/1999/xlink" width="400" height="168.359375" viewBox="0, 0, 400,168.359375"><g id="svgg"><path id="path0" d="M128.168 51.881 C 93.171 54.926,72.504 91.351,88.099 122.501 C 98.957 144.189,123.843 154.491,147.163 146.952 C 158.782 143.196,169.210 134.312,174.970 123.265 C 176.614 120.110,178.719 114.661,178.893 113.105 L 178.947 112.624 173.389 111.239 C 170.333 110.478,162.981 108.661,157.053 107.201 C 151.124 105.742,143.583 103.882,140.295 103.067 C 137.006 102.252,133.728 101.452,133.011 101.288 C 131.844 101.023,131.705 100.950,131.705 100.601 L 131.705 100.211 156.149 100.211 L 180.593 100.211 180.475 98.232 C 179.501 81.871,171.298 67.927,157.435 59.067 C 149.358 53.906,137.727 51.050,128.168 51.881 M255.326 61.998 C 253.556 62.523,252.601 64.817,253.456 66.491 C 254.761 69.049,258.456 68.701,259.369 65.934 C 260.132 63.623,257.731 61.286,255.326 61.998 M92.304 94.321 C 93.462 94.940,93.431 97.947,92.258 98.769 C 91.409 99.364,89.937 98.737,89.937 97.779 C 89.937 97.529,90.723 97.725,90.908 98.021 C 91.164 98.431,91.574 98.453,91.987 98.079 C 92.576 97.546,92.386 97.210,91.550 97.304 C 90.261 97.450,89.485 96.152,90.133 94.936 C 90.533 94.184,91.524 93.903,92.304 94.321 M96.260 94.561 C 96.488 94.788,96.674 95.091,96.674 95.234 C 96.674 95.613,96.044 95.555,95.832 95.158 C 95.589 94.705,94.907 94.726,94.578 95.195 C 94.138 95.823,94.244 95.957,95.116 95.876 C 96.233 95.773,96.674 96.193,96.674 97.362 C 96.674 99.397,94.196 99.689,93.649 97.719 C 92.976 95.297,94.796 93.096,96.260 94.561 M101.819 94.593 C 102.578 95.413,102.288 96.255,100.778 97.607 L 99.958 98.343 101.107 98.350 C 103.001 98.363,102.669 98.929,100.728 98.997 C 98.476 99.075,98.433 98.831,100.366 96.932 C 101.408 95.908,101.618 95.388,101.146 94.997 C 100.785 94.698,100.150 94.852,99.960 95.284 C 99.791 95.670,99.032 95.833,99.032 95.484 C 99.032 94.272,100.953 93.659,101.819 94.593 M104.664 94.522 C 105.040 95.058,105.001 96.094,104.589 96.505 C 103.837 97.258,102.859 96.687,102.859 95.495 C 102.859 94.284,104.049 93.643,104.664 94.522 M106.947 94.236 C 106.947 94.284,106.684 94.834,106.361 95.457 C 105.157 97.784,104.441 98.949,104.182 99.002 C 103.801 99.080,103.855 98.722,104.357 97.853 C 104.598 97.436,105.101 96.526,105.475 95.832 C 106.315 94.273,106.947 93.588,106.947 94.236 M90.981 95.023 C 90.465 95.539,90.848 96.674,91.537 96.674 C 92.035 96.674,92.295 96.356,92.295 95.747 C 92.295 95.139,92.035 94.821,91.537 94.821 C 91.342 94.821,91.092 94.912,90.981 95.023 M103.579 95.507 C 103.579 96.069,103.632 96.183,103.874 96.137 C 104.344 96.048,104.392 94.821,103.926 94.821 C 103.632 94.821,103.579 94.927,103.579 95.507 M107.696 96.711 C 108.071 97.248,108.033 98.283,107.621 98.695 C 106.877 99.439,105.860 98.856,105.860 97.684 C 105.860 96.493,107.087 95.842,107.696 96.711 M94.580 96.770 C 93.961 97.390,94.561 98.502,95.401 98.291 C 96.246 98.079,96.120 96.505,95.258 96.505 C 95.031 96.505,94.726 96.624,94.580 96.770 M106.611 97.684 C 106.611 98.246,106.667 98.358,106.947 98.358 C 107.228 98.358,107.284 98.246,107.284 97.684 C 107.284 97.123,107.228 97.011,106.947 97.011 C 106.667 97.011,106.611 97.123,106.611 97.684 M98.328 98.568 C 98.292 98.817,98.158 98.947,97.937 98.947 C 97.716 98.947,97.582 98.817,97.546 98.568 C 97.502 98.258,97.572 98.189,97.937 98.189 C 98.301 98.189,98.372 98.258,98.328 98.568 " stroke="none" fill="#dc3c14" fill-rule="evenodd"></path><path id="path1" d="M0.000 84.211 L 0.000 168.421 200.000 168.421 L 400.000 168.421 400.000 84.211 L 400.000 0.000 200.000 0.000 L 0.000 0.000 0.000 84.211 M71.329 15.368 C 71.380 15.577,71.401 17.112,71.374 18.779 L 71.326 21.811 70.863 21.864 L 70.400 21.917 70.400 18.453 L 70.400 14.989 70.818 14.989 C 71.111 14.989,71.263 15.102,71.329 15.368 M104.758 16.842 C 104.758 18.961,104.790 18.994,105.752 17.853 C 106.307 17.194,106.570 17.011,106.957 17.011 C 107.651 17.011,107.582 17.318,106.695 18.189 C 105.766 19.101,105.761 18.962,106.779 20.412 C 107.758 21.806,107.780 21.895,107.145 21.895 C 106.757 21.895,106.534 21.708,105.938 20.886 C 105.078 19.699,104.758 19.749,104.758 21.073 C 104.758 21.874,104.745 21.895,104.253 21.895 L 103.747 21.895 103.747 18.554 C 103.747 15.019,103.752 14.989,104.365 14.989 C 104.753 14.989,104.758 15.014,104.758 16.842 M17.293 16.095 C 18.809 17.204,18.809 20.354,17.293 21.463 C 16.917 21.738,16.505 21.823,15.314 21.869 L 13.811 21.928 13.811 18.779 L 13.811 15.630 15.314 15.689 C 16.505 15.735,16.917 15.820,17.293 16.095 M118.518 15.916 C 119.425 16.552,119.356 17.688,118.343 18.812 C 118.026 19.164,117.737 19.604,117.702 19.789 C 117.661 20.011,117.481 20.145,117.178 20.180 C 116.426 20.266,116.534 19.390,117.389 18.462 C 118.076 17.717,118.244 17.091,117.861 16.707 C 117.522 16.368,116.912 16.475,116.616 16.926 C 116.241 17.499,115.537 17.509,115.537 16.941 C 115.537 15.933,117.553 15.240,118.518 15.916 M90.105 16.494 C 90.105 16.877,90.190 16.999,90.484 17.041 C 90.733 17.076,90.863 17.210,90.863 17.432 C 90.863 17.653,90.733 17.787,90.484 17.822 C 90.122 17.874,90.105 17.946,90.105 19.453 C 90.105 20.959,90.122 21.032,90.484 21.083 C 91.235 21.190,91.080 21.895,90.306 21.895 C 89.341 21.895,89.193 21.618,89.095 19.638 C 89.015 18.018,88.992 17.934,88.622 17.882 C 88.095 17.807,88.172 17.118,88.716 17.041 C 89.010 16.999,89.095 16.877,89.095 16.494 C 89.095 16.057,89.154 16.000,89.600 16.000 C 90.046 16.000,90.105 16.057,90.105 16.494 M14.821 18.800 L 14.821 21.095 15.677 21.013 C 17.015 20.885,17.263 20.532,17.263 18.760 C 17.263 17.002,16.890 16.505,15.570 16.505 L 14.821 16.505 14.821 18.800 M22.386 17.306 C 24.430 18.352,23.702 21.895,21.443 21.895 C 19.991 21.895,19.200 21.036,19.200 19.461 C 19.200 17.563,20.789 16.488,22.386 17.306 M27.073 17.221 C 27.164 17.337,27.410 17.962,27.619 18.611 C 28.138 20.219,28.174 20.224,28.611 18.738 C 29.037 17.288,29.205 17.011,29.653 17.011 C 30.180 17.011,30.150 17.210,29.183 20.098 C 28.130 23.243,27.779 23.800,26.904 23.716 C 26.213 23.649,26.122 23.060,26.779 22.906 C 27.829 22.659,27.787 21.738,26.587 18.707 C 26.315 18.020,26.130 17.356,26.177 17.234 C 26.286 16.951,26.853 16.943,27.073 17.221 M34.037 17.615 C 34.634 18.187,34.927 19.167,34.773 20.078 C 34.369 22.470,31.113 22.547,30.476 20.180 C 29.845 17.837,32.370 16.018,34.037 17.615 M36.548 18.863 C 36.643 20.858,36.716 21.053,37.367 21.053 C 38.263 21.053,38.388 20.797,38.438 18.863 C 38.484 17.101,38.486 17.095,38.905 17.095 L 39.326 17.095 39.373 19.476 L 39.420 21.858 37.946 21.870 C 35.784 21.888,35.705 21.790,35.705 19.075 C 35.705 17.006,35.709 16.988,36.084 17.041 C 36.443 17.092,36.468 17.187,36.548 18.863 M43.585 18.853 C 43.638 20.763,43.754 21.053,44.472 21.053 C 45.326 21.053,45.474 20.714,45.474 18.756 L 45.474 16.988 45.937 17.041 L 46.400 17.095 46.447 19.495 L 46.493 21.895 45.984 21.895 C 45.703 21.895,45.474 21.816,45.474 21.720 C 45.474 21.600,45.372 21.600,45.148 21.720 C 44.263 22.194,43.081 21.848,42.797 21.031 C 42.592 20.445,42.539 17.307,42.730 17.116 C 43.276 16.569,43.537 17.099,43.585 18.853 M50.621 17.526 C 51.185 18.055,51.176 18.695,50.605 18.695 C 50.371 18.695,50.133 18.575,50.077 18.429 C 49.827 17.777,48.446 17.770,48.539 18.422 C 48.577 18.690,48.816 18.852,49.499 19.070 C 51.100 19.583,51.610 20.742,50.588 21.546 C 49.571 22.345,47.211 21.692,47.360 20.651 C 47.436 20.119,48.058 20.102,48.400 20.623 C 48.609 20.942,48.827 21.053,49.246 21.053 C 50.468 21.053,50.331 20.213,49.055 19.880 C 47.633 19.509,47.035 18.475,47.768 17.659 C 48.452 16.898,49.882 16.832,50.621 17.526 M55.281 17.645 C 55.677 18.042,55.778 18.297,55.802 18.963 L 55.832 19.789 54.358 19.838 C 53.127 19.879,52.884 19.932,52.884 20.162 C 52.884 20.939,54.096 21.331,54.854 20.800 C 55.651 20.242,56.054 20.955,55.284 21.562 C 54.176 22.437,52.239 21.736,51.858 20.321 C 51.207 17.904,53.639 16.003,55.281 17.645 M61.982 17.435 C 62.371 17.787,62.461 18.269,62.522 20.337 L 62.568 21.895 62.115 21.895 C 61.866 21.895,61.615 21.819,61.558 21.726 C 61.488 21.613,61.349 21.613,61.138 21.726 C 60.043 22.311,58.463 21.414,58.679 20.330 C 58.855 19.451,59.454 18.989,60.536 18.899 C 61.306 18.835,61.474 18.766,61.474 18.511 C 61.474 17.869,60.488 17.659,59.958 18.189 C 59.604 18.544,58.779 18.654,58.779 18.347 C 58.779 17.242,61.054 16.594,61.982 17.435 M68.455 17.249 C 69.068 17.505,69.473 18.067,69.324 18.455 C 69.185 18.815,68.739 18.745,68.180 18.274 C 67.609 17.793,67.392 17.759,66.952 18.081 C 66.518 18.399,66.727 18.807,67.399 18.952 C 68.903 19.277,69.570 19.975,69.321 20.965 C 68.964 22.387,65.278 22.001,65.551 20.570 C 65.640 20.102,66.303 20.139,66.625 20.630 C 67.009 21.216,68.262 21.200,68.346 20.608 C 68.390 20.303,68.238 20.194,67.351 19.894 C 66.103 19.473,65.684 19.132,65.684 18.538 C 65.684 17.312,67.067 16.669,68.455 17.249 M75.064 17.186 C 75.687 17.403,76.295 18.429,76.295 19.265 L 76.295 19.874 74.779 19.874 C 73.475 19.874,73.263 19.913,73.263 20.155 C 73.263 20.958,74.651 21.373,75.318 20.769 C 75.612 20.503,75.649 20.504,75.921 20.780 C 76.676 21.546,74.467 22.265,73.265 21.643 C 70.889 20.414,72.546 16.308,75.064 17.186 M79.736 17.175 C 80.340 17.404,80.841 18.300,80.841 19.151 L 80.842 19.861 79.368 19.909 C 78.002 19.954,77.899 19.982,77.948 20.295 C 78.067 21.036,79.219 21.311,79.978 20.780 C 80.319 20.541,80.399 20.537,80.613 20.751 C 81.302 21.441,79.204 22.241,78.023 21.740 C 75.487 20.662,77.163 16.196,79.736 17.175 M82.611 17.187 C 82.703 17.214,83.072 17.175,83.429 17.101 C 84.831 16.810,85.727 17.775,85.726 19.574 C 85.725 21.180,84.938 21.991,83.512 21.854 L 82.695 21.776 82.695 22.762 C 82.695 23.745,82.693 23.747,82.189 23.747 L 81.684 23.747 81.684 20.491 C 81.684 17.198,81.723 16.932,82.185 17.064 C 82.326 17.105,82.518 17.160,82.611 17.187 M92.543 17.173 C 92.606 17.275,92.794 17.266,93.048 17.150 C 93.598 16.900,93.979 17.081,93.979 17.595 C 93.979 17.913,93.891 18.021,93.631 18.021 C 92.736 18.021,92.632 18.242,92.632 20.132 L 92.632 21.895 92.126 21.895 L 91.621 21.895 91.621 19.565 C 91.621 18.284,91.672 17.185,91.733 17.123 C 91.901 16.955,92.429 16.987,92.543 17.173 M97.157 17.197 C 97.885 17.450,98.020 17.782,98.025 19.315 C 98.027 20.039,98.095 20.916,98.176 21.263 L 98.322 21.895 97.751 21.895 C 97.436 21.895,97.179 21.816,97.179 21.720 C 97.179 21.600,97.078 21.600,96.853 21.720 C 95.780 22.295,94.316 21.616,94.316 20.544 C 94.316 19.465,95.071 18.863,96.424 18.863 C 97.171 18.863,97.359 18.535,96.900 18.029 C 96.712 17.823,95.604 17.980,95.414 18.240 C 95.193 18.543,94.567 18.629,94.412 18.378 C 93.950 17.630,95.942 16.773,97.157 17.197 M101.968 17.175 C 102.394 17.337,103.072 18.243,103.073 18.653 C 103.074 19.021,102.114 18.908,102.015 18.528 C 101.658 17.165,100.049 17.978,100.045 19.524 C 100.041 20.997,101.293 21.702,102.000 20.623 C 102.293 20.175,102.901 20.107,103.033 20.507 C 103.327 21.400,101.158 22.219,100.037 21.639 C 97.650 20.405,99.460 16.221,101.968 17.175 M110.993 17.265 C 111.539 17.547,111.820 17.981,112.013 18.838 C 112.231 19.805,112.128 19.874,110.466 19.874 C 109.247 19.874,108.968 19.921,108.968 20.126 C 108.968 20.885,110.363 21.340,111.081 20.815 C 111.476 20.527,112.038 20.756,111.889 21.146 C 111.461 22.262,108.828 22.078,108.213 20.890 C 107.120 18.776,109.049 16.260,110.993 17.265 M113.684 17.170 C 113.684 17.267,113.884 17.260,114.192 17.153 C 114.859 16.920,115.238 17.077,115.170 17.557 C 115.133 17.815,114.981 17.955,114.695 17.994 C 113.829 18.112,113.684 18.434,113.684 20.237 L 113.684 21.895 113.179 21.895 L 112.674 21.895 112.674 19.565 C 112.674 18.284,112.724 17.185,112.786 17.123 C 112.958 16.951,113.684 16.989,113.684 17.170 M20.937 18.022 C 20.201 18.319,19.950 20.080,20.543 20.794 C 20.846 21.159,21.781 21.121,22.136 20.729 C 22.721 20.082,22.545 18.021,21.904 18.021 C 21.822 18.021,21.653 17.988,21.530 17.947 C 21.406 17.907,21.140 17.940,20.937 18.022 M32.173 18.040 C 30.954 18.527,31.308 21.053,32.595 21.053 C 33.745 21.053,34.232 19.064,33.282 18.247 C 32.772 17.809,32.759 17.806,32.173 18.040 M53.558 17.970 C 53.237 18.084,52.884 18.525,52.884 18.811 C 52.884 18.968,53.174 19.032,53.895 19.032 C 55.013 19.032,55.120 18.894,54.492 18.266 C 54.066 17.840,53.988 17.816,53.558 17.970 M73.853 18.055 C 72.882 18.602,73.072 19.032,74.285 19.032 C 75.266 19.032,75.302 19.017,75.192 18.653 C 74.994 17.996,74.416 17.738,73.853 18.055 M78.502 18.066 C 77.560 18.551,77.722 19.032,78.826 19.032 C 79.948 19.032,80.214 18.645,79.457 18.115 C 79.010 17.802,79.013 17.802,78.502 18.066 M109.392 18.256 C 108.753 18.895,108.857 19.032,109.979 19.032 C 111.034 19.032,111.212 18.874,110.779 18.323 C 110.385 17.822,109.852 17.796,109.392 18.256 M82.897 18.223 C 82.631 18.489,82.631 20.584,82.897 20.851 C 83.936 21.890,85.340 19.757,84.480 18.445 C 84.175 17.979,83.268 17.852,82.897 18.223 M60.168 19.788 C 59.295 20.168,59.516 21.053,60.485 21.053 C 61.082 21.053,61.474 20.648,61.474 20.030 C 61.474 19.458,61.091 19.387,60.168 19.788 M96.084 19.659 C 95.565 19.786,95.326 20.045,95.326 20.481 C 95.326 21.309,96.893 21.159,97.106 20.310 C 97.283 19.604,97.012 19.431,96.084 19.659 M117.642 21.389 C 117.642 21.887,116.952 22.099,116.781 21.654 C 116.614 21.217,116.849 20.856,117.262 20.915 C 117.541 20.954,117.642 21.081,117.642 21.389 M16.013 28.450 C 16.746 29.184,16.419 30.269,15.097 31.482 C 14.455 32.072,14.534 32.168,15.663 32.168 C 16.561 32.168,16.674 32.206,16.674 32.505 C 16.674 32.818,16.561 32.842,15.074 32.842 C 13.110 32.842,13.048 32.698,14.373 31.229 C 15.441 30.045,15.717 29.571,15.582 29.146 C 15.376 28.498,14.478 28.562,14.166 29.247 C 13.914 29.800,13.372 29.714,13.432 29.130 C 13.549 27.998,15.141 27.578,16.013 28.450 M19.664 28.253 C 19.704 28.375,19.409 28.602,18.961 28.794 C 18.537 28.976,18.189 29.159,18.189 29.201 C 18.189 29.243,18.150 29.379,18.103 29.503 C 18.037 29.675,18.187 29.716,18.734 29.672 C 20.183 29.557,20.938 31.476,19.822 32.436 C 18.059 33.952,16.164 31.030,17.563 28.954 C 18.163 28.064,19.460 27.631,19.664 28.253 M24.253 29.617 C 24.253 29.782,24.037 29.986,23.747 30.096 C 23.247 30.285,23.242 30.299,23.242 31.564 C 23.242 32.815,23.233 32.842,22.821 32.842 L 22.400 32.842 22.400 31.086 L 22.400 29.329 23.326 29.329 C 24.088 29.329,24.253 29.381,24.253 29.617 M27.084 29.692 C 28.084 30.757,27.735 31.488,26.226 31.492 C 25.304 31.495,25.261 31.513,25.432 31.832 C 25.632 32.206,26.263 32.276,26.808 31.984 C 27.375 31.681,27.640 32.108,27.139 32.517 C 26.238 33.254,24.707 32.713,24.495 31.583 C 24.170 29.854,25.988 28.526,27.084 29.692 M30.447 29.567 C 30.911 29.893,30.949 30.484,30.505 30.484 C 30.331 30.484,30.094 30.371,29.979 30.232 C 29.864 30.093,29.584 29.979,29.357 29.979 C 28.719 29.979,28.933 30.516,29.642 30.698 C 31.353 31.138,31.222 32.842,29.477 32.842 C 28.607 32.842,27.822 32.259,28.016 31.756 C 28.152 31.401,28.409 31.428,28.755 31.832 C 29.136 32.277,29.979 32.291,29.979 31.852 C 29.979 31.617,29.783 31.485,29.224 31.345 C 27.976 31.030,27.639 30.041,28.592 29.486 C 29.033 29.229,30.025 29.272,30.447 29.567 M34.180 29.753 C 35.114 30.940,34.401 32.920,33.078 32.814 L 32.352 32.757 32.302 33.431 C 32.262 33.984,32.184 34.115,31.874 34.159 C 31.496 34.213,31.495 34.207,31.495 31.784 L 31.495 29.356 32.664 29.334 C 33.738 29.315,33.863 29.349,34.180 29.753 M37.686 29.684 C 38.876 30.955,38.224 32.842,36.594 32.842 C 34.977 32.842,34.324 30.522,35.659 29.516 C 36.134 29.158,37.282 29.253,37.686 29.684 M41.509 29.683 C 41.994 30.375,41.873 32.842,41.354 32.842 C 40.952 32.842,40.939 32.803,40.891 31.453 C 40.811 29.174,39.579 29.393,39.579 31.687 C 39.579 32.813,39.562 32.863,39.200 32.812 C 38.832 32.759,38.525 30.268,38.799 29.555 C 38.953 29.154,41.213 29.261,41.509 29.683 M44.829 29.584 C 45.243 29.959,45.231 30.484,44.808 30.484 C 44.628 30.484,44.412 30.364,44.330 30.216 C 44.158 29.909,43.432 29.950,43.326 30.274 C 43.254 30.490,43.367 30.550,44.173 30.727 C 45.789 31.082,45.571 32.842,43.911 32.842 C 43.035 32.842,42.442 32.464,42.442 31.906 C 42.442 31.403,42.785 31.373,43.207 31.840 C 43.402 32.054,43.681 32.165,43.949 32.134 C 44.648 32.053,44.459 31.617,43.621 31.376 C 42.456 31.040,42.105 30.316,42.779 29.642 C 43.204 29.217,44.386 29.183,44.829 29.584 M48.327 29.633 C 48.696 30.001,48.962 31.105,48.737 31.330 C 48.656 31.411,48.102 31.500,47.506 31.528 C 46.453 31.577,46.431 31.588,46.733 31.889 C 47.039 32.194,47.547 32.205,48.209 31.922 C 48.643 31.737,48.800 32.289,48.400 32.592 C 47.608 33.192,46.205 32.785,45.814 31.841 C 45.131 30.191,47.129 28.434,48.327 29.633 M51.668 29.567 C 52.132 29.893,52.170 30.484,51.726 30.484 C 51.552 30.484,51.315 30.371,51.200 30.232 C 51.085 30.093,50.805 29.979,50.578 29.979 C 49.937 29.979,50.153 30.518,50.863 30.692 C 52.564 31.109,52.453 32.842,50.725 32.842 C 49.669 32.842,48.686 31.842,49.453 31.547 C 49.627 31.481,49.831 31.580,50.012 31.819 C 50.218 32.092,50.433 32.181,50.790 32.140 C 51.540 32.055,51.405 31.629,50.550 31.381 C 48.814 30.879,48.924 29.305,50.695 29.305 C 51.024 29.305,51.462 29.423,51.668 29.567 M25.432 30.316 C 25.264 30.630,25.303 30.653,26.015 30.653 C 26.797 30.653,26.933 30.538,26.577 30.181 C 26.264 29.868,25.631 29.942,25.432 30.316 M32.406 30.211 C 31.979 31.324,32.716 32.594,33.441 31.992 C 33.738 31.746,33.767 30.466,33.482 30.181 C 33.207 29.906,32.515 29.925,32.406 30.211 M36.076 30.181 C 35.965 30.292,35.874 30.694,35.874 31.074 C 35.874 32.097,36.670 32.580,37.234 31.900 C 37.992 30.987,36.896 29.361,36.076 30.181 M46.717 30.274 C 46.435 30.555,46.454 30.571,47.144 30.621 C 47.978 30.682,48.133 30.595,47.835 30.236 C 47.552 29.895,47.082 29.911,46.717 30.274 M18.223 30.518 C 17.962 30.779,17.962 31.705,18.223 31.966 C 18.744 32.488,19.537 32.014,19.537 31.181 C 19.537 30.498,18.677 30.064,18.223 30.518 M258.155 51.995 C 259.147 52.798,259.424 53.290,259.503 54.388 C 259.767 58.031,255.011 59.338,253.347 56.081 C 251.838 53.126,255.601 49.928,258.155 51.995 M137.762 51.975 C 161.495 55.039,179.300 74.280,180.644 98.315 L 180.759 100.378 156.274 100.420 C 140.958 100.447,131.802 100.523,131.823 100.623 C 131.860 100.799,135.608 101.774,146.695 104.493 C 150.724 105.481,156.598 106.926,159.747 107.704 C 162.897 108.483,168.529 109.874,172.264 110.796 C 175.999 111.718,179.093 112.511,179.141 112.558 C 179.188 112.606,178.944 113.580,178.598 114.722 C 170.918 140.086,144.927 154.615,119.158 147.950 C 117.040 147.403,116.457 147.215,113.937 146.271 C 93.190 138.501,80.194 116.431,83.193 94.061 C 86.753 67.506,111.318 48.561,137.762 51.975 M263.745 53.133 C 264.450 54.364,264.439 54.364,265.184 53.214 C 265.668 52.466,265.932 52.211,266.222 52.211 C 266.779 52.211,266.714 52.432,265.768 53.775 C 264.973 54.904,264.926 55.030,264.926 56.033 C 264.926 57.053,264.910 57.095,264.505 57.095 C 264.105 57.095,264.084 57.046,264.080 56.126 C 264.076 55.239,264.001 55.045,263.174 53.811 C 262.221 52.385,262.182 52.211,262.819 52.211 C 263.125 52.211,263.339 52.424,263.745 53.133 M268.825 53.740 C 270.101 54.423,269.701 55.579,268.190 55.579 C 267.421 55.579,267.116 55.641,267.116 55.798 C 267.116 56.387,268.057 56.635,268.523 56.168 C 268.844 55.848,269.474 55.840,269.474 56.156 C 269.474 57.222,266.982 57.391,266.468 56.360 C 265.602 54.624,267.186 52.863,268.825 53.740 M272.337 53.895 C 272.761 54.319,272.771 54.737,272.357 54.737 C 272.184 54.737,271.947 54.623,271.832 54.484 C 271.562 54.160,270.821 54.151,270.821 54.472 C 270.821 54.618,271.177 54.817,271.729 54.977 C 273.333 55.443,273.122 56.951,271.437 57.062 C 270.629 57.115,269.644 56.489,269.896 56.083 C 270.057 55.822,270.605 55.887,270.718 56.179 C 270.787 56.361,270.989 56.426,271.367 56.390 C 272.153 56.314,272.058 55.911,271.195 55.656 C 270.265 55.381,269.979 55.133,269.979 54.603 C 269.979 53.603,271.567 53.125,272.337 53.895 M267.284 54.484 C 267.103 54.703,267.180 54.737,267.853 54.737 C 268.622 54.737,268.882 54.532,268.365 54.334 C 267.917 54.162,267.504 54.219,267.284 54.484 M257.513 61.992 C 258.909 62.625,259.537 63.570,259.537 65.035 C 259.537 68.580,254.911 69.675,253.298 66.512 C 251.935 63.840,254.804 60.763,257.513 61.992 M264.623 64.292 L 265.684 65.931 265.732 64.292 C 265.780 62.670,265.785 62.653,266.200 62.653 L 266.620 62.653 266.573 65.053 C 266.511 68.225,266.325 68.314,264.742 65.924 L 263.663 64.295 263.579 65.874 C 263.502 67.312,263.465 67.453,263.158 67.453 C 262.839 67.453,262.819 67.325,262.774 65.053 L 262.728 62.653 263.145 62.653 C 263.487 62.653,263.751 62.946,264.623 64.292 M269.651 64.005 C 270.578 64.501,270.775 66.261,269.992 67.045 C 268.923 68.114,267.116 67.259,267.116 65.684 C 267.116 64.376,268.559 63.420,269.651 64.005 M268.323 64.774 C 268.011 64.992,267.950 65.171,267.991 65.737 C 268.100 67.225,269.642 67.163,269.642 65.670 C 269.642 64.649,269.063 64.256,268.323 64.774 M90.454 94.760 C 89.448 96.039,90.727 97.759,92.127 97.010 C 92.552 96.782,92.633 96.979,92.403 97.681 C 92.099 98.605,90.874 98.843,90.659 98.020 C 90.546 97.589,90.274 97.583,90.274 98.012 C 90.274 99.110,92.148 99.120,92.714 98.024 C 93.809 95.908,91.816 93.029,90.454 94.760 M94.371 94.566 C 93.542 95.146,93.456 97.682,94.237 98.463 C 95.486 99.712,97.422 97.838,96.325 96.444 C 95.961 95.981,94.797 95.799,94.568 96.168 C 94.333 96.550,94.109 96.319,94.213 95.801 C 94.424 94.744,95.415 94.260,95.871 94.989 C 96.090 95.340,96.505 95.451,96.505 95.158 C 96.505 94.463,95.081 94.068,94.371 94.566 M99.613 94.729 C 99.386 94.957,99.200 95.222,99.200 95.319 C 99.200 95.632,99.564 95.506,99.904 95.074 C 100.294 94.577,100.888 94.529,101.279 94.961 C 101.798 95.534,101.622 95.999,100.479 97.083 C 99.885 97.645,99.314 98.276,99.210 98.484 L 99.020 98.863 100.541 98.863 C 101.444 98.863,102.063 98.795,102.063 98.695 C 102.063 98.600,101.586 98.526,100.968 98.526 C 99.633 98.526,99.633 98.525,100.880 97.267 C 102.067 96.070,102.271 95.468,101.727 94.776 C 101.236 94.151,100.214 94.128,99.613 94.729 M103.224 94.590 C 102.669 95.259,103.077 96.674,103.826 96.674 C 104.643 96.674,105.112 95.200,104.493 94.580 C 104.150 94.237,103.513 94.242,103.224 94.590 M105.502 96.126 C 104.975 97.122,104.441 98.105,104.314 98.310 C 104.053 98.733,104.029 98.863,104.211 98.863 C 104.280 98.863,104.535 98.503,104.777 98.063 C 106.302 95.292,106.786 94.316,106.633 94.316 C 106.538 94.316,106.029 95.131,105.502 96.126 M92.155 94.931 C 92.773 95.490,92.369 96.842,91.584 96.842 C 90.935 96.842,90.611 96.522,90.611 95.881 C 90.611 94.824,91.459 94.302,92.155 94.931 M104.337 95.495 C 104.337 96.422,103.714 96.714,103.415 95.927 C 103.173 95.291,103.469 94.614,103.958 94.683 C 104.287 94.730,104.337 94.837,104.337 95.495 M95.860 96.616 C 96.237 96.957,96.258 97.650,95.906 98.152 C 95.364 98.925,94.260 98.368,94.260 97.321 C 94.260 96.444,95.208 96.026,95.860 96.616 M106.315 96.708 C 105.825 97.298,105.954 98.583,106.524 98.801 C 107.412 99.142,108.212 98.011,107.758 97.057 C 107.508 96.533,106.636 96.322,106.315 96.708 M107.420 97.737 C 107.374 98.363,107.321 98.442,106.947 98.442 C 106.468 98.442,106.237 97.376,106.617 96.918 C 107.005 96.451,107.478 96.934,107.420 97.737 M97.684 98.611 C 97.684 98.749,97.798 98.863,97.937 98.863 C 98.076 98.863,98.189 98.749,98.189 98.611 C 98.189 98.472,98.076 98.358,97.937 98.358 C 97.798 98.358,97.684 98.472,97.684 98.611 M180.563 102.568 C 180.504 105.478,179.649 111.450,179.232 111.867 C 179.136 111.963,177.108 111.535,173.959 110.753 C 171.145 110.054,165.432 108.649,161.263 107.629 C 157.095 106.609,152.964 105.581,152.084 105.344 C 151.204 105.108,148.779 104.504,146.695 104.002 C 144.611 103.501,141.541 102.753,139.874 102.341 C 138.206 101.928,136.406 101.495,135.874 101.379 C 135.341 101.263,134.905 101.103,134.905 101.025 C 134.905 100.947,145.186 100.902,157.750 100.926 L 180.596 100.968 180.563 102.568 " stroke="none" fill="#fbfbfb" fill-rule="evenodd"></path><path id="path2" d="M38.966 31.158 C 38.966 32.038,38.994 32.398,39.029 31.958 C 39.064 31.518,39.064 30.798,39.029 30.358 C 38.994 29.918,38.966 30.278,38.966 31.158 M255.265 51.615 C 252.564 52.578,252.307 56.231,254.852 57.500 C 256.644 58.392,258.596 57.657,259.295 55.826 C 260.258 53.305,257.782 50.718,255.265 51.615 M135.495 101.147 C 135.674 101.219,142.376 102.889,150.989 105.009 C 153.861 105.715,158.636 106.891,161.600 107.623 C 181.621 112.561,179.172 112.123,179.472 110.821 C 179.921 108.866,180.544 103.817,180.546 102.105 L 180.547 101.053 157.937 101.066 C 145.501 101.073,135.402 101.110,135.495 101.147 " stroke="none" fill="#3766ca" fill-rule="evenodd"></path><path id="path3" d="M70.568 18.526 C 70.568 21.667,70.590 21.915,70.863 21.863 C 71.132 21.811,71.158 21.516,71.158 18.526 C 71.158 15.537,71.132 15.242,70.863 15.190 C 70.590 15.137,70.568 15.385,70.568 18.526 M103.916 18.526 C 103.916 21.782,103.927 21.895,104.253 21.895 C 104.543 21.895,104.589 21.782,104.589 21.079 C 104.589 19.555,105.058 19.462,106.034 20.792 C 106.634 21.609,106.947 21.895,107.241 21.895 C 107.697 21.895,107.714 21.932,106.568 20.348 C 105.601 19.010,105.604 19.189,106.531 18.132 C 107.715 16.783,106.921 16.752,105.696 18.100 C 104.629 19.274,104.589 19.235,104.589 16.982 C 104.589 15.270,104.569 15.158,104.253 15.158 C 103.927 15.158,103.916 15.270,103.916 18.526 M13.893 15.858 C 13.843 15.989,13.823 17.382,13.848 18.954 L 13.895 21.811 14.961 21.861 C 18.200 22.014,19.716 17.817,17.052 16.071 C 16.437 15.669,14.029 15.506,13.893 15.858 M116.563 15.847 C 116.078 16.041,115.718 16.479,115.711 16.884 C 115.703 17.298,116.330 17.263,116.463 16.842 C 116.597 16.420,117.287 16.236,117.823 16.480 C 118.260 16.679,118.422 17.715,118.052 17.944 C 117.249 18.440,116.614 20.042,117.221 20.042 C 117.417 20.042,117.558 19.930,117.558 19.773 C 117.558 19.625,117.852 19.170,118.212 18.761 C 119.743 17.022,118.613 15.027,116.563 15.847 M89.213 16.106 C 89.148 16.171,89.095 16.439,89.095 16.702 C 89.095 17.067,89.015 17.179,88.758 17.179 C 88.571 17.179,88.421 17.291,88.421 17.432 C 88.421 17.571,88.566 17.684,88.743 17.684 C 89.035 17.684,89.069 17.845,89.122 19.468 C 89.184 21.397,89.483 21.984,90.343 21.861 C 90.844 21.789,90.897 21.261,90.410 21.192 C 89.814 21.107,89.706 17.741,90.297 17.655 C 90.833 17.576,90.905 17.179,90.383 17.179 C 90.027 17.179,89.950 17.090,89.905 16.633 C 89.855 16.112,89.487 15.832,89.213 16.106 M16.961 16.927 C 18.370 18.337,17.504 21.026,15.590 21.185 L 14.653 21.263 14.653 18.800 L 14.653 16.337 15.512 16.337 C 16.269 16.337,16.440 16.407,16.961 16.927 M20.339 17.433 C 19.236 18.054,18.986 20.100,19.887 21.126 C 21.476 22.936,24.047 21.050,23.257 18.655 C 22.853 17.431,21.413 16.828,20.339 17.433 M26.363 17.544 C 26.430 17.760,26.749 18.657,27.073 19.537 C 27.964 21.958,27.867 23.074,26.767 23.074 C 26.588 23.074,26.442 23.187,26.442 23.326 C 26.442 23.727,27.339 23.639,27.737 23.200 C 28.000 22.909,29.979 17.649,29.979 17.240 C 29.979 17.193,29.812 17.180,29.608 17.209 C 29.299 17.254,29.157 17.523,28.759 18.821 C 28.497 19.678,28.225 20.379,28.155 20.379 C 28.086 20.379,27.800 19.678,27.520 18.821 C 27.093 17.512,26.950 17.254,26.627 17.207 C 26.294 17.159,26.258 17.204,26.363 17.544 M31.495 17.549 C 29.592 18.839,30.758 22.228,32.962 21.815 C 34.566 21.514,35.207 19.125,34.035 17.813 C 33.404 17.107,32.314 16.993,31.495 17.549 M35.733 19.131 C 35.807 21.680,36.512 22.444,38.055 21.646 C 38.479 21.427,38.547 21.427,38.631 21.646 C 39.010 22.633,39.242 21.832,39.242 19.537 C 39.242 17.291,39.226 17.179,38.905 17.179 C 38.590 17.179,38.568 17.291,38.568 18.943 C 38.568 20.907,38.335 21.313,37.278 21.191 C 36.591 21.112,36.384 20.546,36.381 18.737 C 36.379 17.271,36.358 17.179,36.028 17.179 C 35.688 17.179,35.678 17.246,35.733 19.131 M42.782 19.074 C 42.784 21.092,42.805 21.170,43.448 21.610 C 43.958 21.959,44.401 21.969,45.018 21.647 C 45.431 21.432,45.501 21.432,45.584 21.648 C 45.636 21.784,45.822 21.895,45.997 21.895 C 46.295 21.895,46.316 21.738,46.316 19.525 C 46.316 17.164,46.314 17.156,45.937 17.209 C 45.575 17.261,45.556 17.342,45.512 19.032 C 45.462 20.966,45.337 21.221,44.441 21.221 C 43.666 21.221,43.453 20.704,43.453 18.826 C 43.453 17.291,43.430 17.179,43.116 17.179 C 42.799 17.179,42.779 17.290,42.782 19.074 M48.337 17.397 C 47.082 18.031,47.438 19.250,49.010 19.705 C 49.502 19.847,49.987 20.095,50.088 20.256 C 50.612 21.087,48.994 21.592,48.314 20.810 C 47.846 20.272,47.452 20.243,47.525 20.752 C 47.611 21.346,48.632 21.940,49.396 21.840 C 51.240 21.599,51.589 19.890,49.901 19.371 C 48.529 18.950,48.337 18.834,48.337 18.428 C 48.337 17.653,49.306 17.459,49.952 18.105 C 50.544 18.697,51.099 18.689,50.827 18.093 C 50.458 17.284,49.235 16.942,48.337 17.397 M53.069 17.392 C 51.992 17.945,51.560 19.870,52.269 20.952 C 52.889 21.900,54.385 22.121,55.272 21.396 C 55.820 20.949,55.464 20.541,54.882 20.949 C 54.031 21.545,52.716 21.041,52.716 20.120 C 52.716 19.710,52.733 19.705,54.232 19.705 L 55.747 19.705 55.747 19.242 C 55.746 17.754,54.303 16.758,53.069 17.392 M59.709 17.442 C 59.222 17.697,58.955 17.974,58.950 18.232 C 58.945 18.474,59.487 18.355,59.912 18.021 C 60.429 17.614,60.769 17.597,61.277 17.953 C 62.009 18.466,61.704 18.932,60.555 19.055 C 58.985 19.224,58.320 20.256,59.123 21.276 C 59.583 21.861,60.486 22.029,61.078 21.641 C 61.485 21.374,61.535 21.373,61.675 21.622 C 62.300 22.739,62.673 20.296,62.219 18.066 C 62.062 17.294,60.661 16.946,59.709 17.442 M66.486 17.443 C 65.230 18.124,65.766 19.335,67.522 19.783 C 68.872 20.127,68.912 21.088,67.581 21.188 C 67.013 21.230,66.843 21.165,66.548 20.790 C 66.115 20.238,65.617 20.328,65.828 20.920 C 66.168 21.873,67.990 22.150,68.817 21.374 C 69.671 20.572,69.147 19.593,67.639 19.175 C 66.566 18.877,66.288 18.463,66.853 18.000 C 67.336 17.604,68.002 17.691,68.357 18.197 C 68.602 18.546,69.221 18.652,69.221 18.345 C 69.221 17.471,67.488 16.899,66.486 17.443 M73.448 17.392 C 71.310 18.491,72.366 22.258,74.690 21.823 C 75.479 21.674,76.111 21.147,75.836 20.866 C 75.671 20.699,75.566 20.713,75.317 20.939 C 74.573 21.612,73.095 21.000,73.095 20.019 C 73.095 19.736,73.244 19.705,74.632 19.705 L 76.170 19.705 76.081 18.911 C 75.924 17.523,74.637 16.781,73.448 17.392 M77.682 17.755 C 76.350 18.976,76.966 21.526,78.663 21.812 C 79.623 21.974,80.971 21.283,80.538 20.850 C 80.420 20.731,80.243 20.762,79.977 20.949 C 79.231 21.471,78.271 21.275,77.882 20.522 C 77.508 19.799,77.677 19.705,79.358 19.705 L 80.885 19.705 80.776 19.020 C 80.489 17.228,78.945 16.597,77.682 17.755 M81.853 20.379 C 81.853 23.467,81.864 23.579,82.189 23.579 C 82.490 23.579,82.526 23.467,82.526 22.549 C 82.526 21.558,82.541 21.523,82.905 21.636 C 83.738 21.894,83.977 21.911,84.421 21.742 C 85.690 21.260,86.008 18.640,84.917 17.664 C 84.339 17.148,83.617 17.034,83.002 17.363 C 82.754 17.496,82.608 17.496,82.475 17.363 C 81.919 16.808,81.853 17.130,81.853 20.379 M91.789 19.537 C 91.789 21.782,91.806 21.895,92.126 21.895 C 92.442 21.895,92.463 21.782,92.463 20.136 C 92.463 18.272,92.654 17.853,93.501 17.853 C 93.881 17.853,94.067 17.536,93.827 17.297 C 93.686 17.156,93.497 17.160,93.093 17.312 C 92.741 17.445,92.528 17.458,92.492 17.348 C 92.461 17.255,92.290 17.179,92.112 17.179 C 91.810 17.179,91.789 17.325,91.789 19.537 M95.495 17.298 C 95.167 17.418,94.484 18.040,94.484 18.219 C 94.484 18.487,95.161 18.355,95.495 18.021 C 95.929 17.587,96.581 17.591,97.021 18.031 C 97.603 18.613,97.385 18.934,96.331 19.047 C 95.173 19.172,94.754 19.392,94.500 20.005 C 93.987 21.242,95.449 22.312,96.735 21.641 C 97.330 21.331,97.347 21.331,97.347 21.642 C 97.347 21.782,97.497 21.895,97.684 21.895 C 98.315 21.895,98.184 18.326,97.529 17.671 C 97.043 17.186,96.217 17.034,95.495 17.298 M100.276 17.344 C 98.668 17.993,98.813 21.182,100.475 21.730 C 101.418 22.041,102.905 21.350,102.905 20.600 C 102.905 20.232,102.386 20.352,102.033 20.800 C 100.887 22.258,99.211 20.128,100.120 18.369 C 100.546 17.545,101.847 17.598,102.174 18.452 C 102.282 18.731,102.905 18.785,102.905 18.515 C 102.905 17.581,101.375 16.900,100.276 17.344 M109.097 17.443 C 107.957 18.061,107.739 20.130,108.703 21.181 C 109.418 21.962,110.699 22.092,111.342 21.449 C 111.824 20.967,111.614 20.599,111.064 20.959 C 110.194 21.529,108.800 20.969,108.800 20.050 C 108.800 19.728,108.901 19.705,110.316 19.705 L 111.832 19.705 111.832 19.100 C 111.832 17.582,110.419 16.725,109.097 17.443 M112.916 17.399 C 112.617 18.176,112.935 21.812,113.305 21.864 C 113.677 21.917,113.684 21.887,113.684 20.164 C 113.684 18.270,113.861 17.853,114.666 17.853 C 114.919 17.853,115.032 17.749,115.032 17.516 C 115.032 17.099,114.339 17.049,114.012 17.442 C 113.814 17.681,113.780 17.681,113.646 17.442 C 113.467 17.122,113.032 17.096,112.916 17.399 M21.904 17.858 C 22.353 18.098,22.737 18.901,22.737 19.600 C 22.737 20.973,21.166 21.762,20.391 20.777 C 19.364 19.471,20.570 17.144,21.904 17.858 M33.470 18.053 C 33.781 18.311,34.018 19.335,33.906 19.935 C 33.530 21.945,31.319 21.547,31.332 19.472 C 31.341 17.997,32.486 17.236,33.470 18.053 M54.548 17.979 C 55.371 18.663,55.108 19.111,53.853 19.166 C 52.549 19.223,52.329 18.898,53.129 18.098 C 53.617 17.610,54.060 17.573,54.548 17.979 M74.927 17.979 C 75.749 18.663,75.487 19.111,74.232 19.166 C 72.999 19.220,72.933 19.159,73.344 18.365 C 73.722 17.633,74.333 17.484,74.927 17.979 M79.556 18.033 C 80.466 18.749,80.176 19.223,78.863 19.166 C 77.580 19.109,77.415 18.813,78.250 18.063 C 78.771 17.594,78.992 17.589,79.556 18.033 M84.551 18.317 C 85.660 19.727,84.110 22.097,82.834 20.942 C 82.234 20.399,82.394 18.229,83.055 17.951 C 83.715 17.673,84.124 17.774,84.551 18.317 M110.744 18.098 C 111.539 18.892,111.325 19.200,109.979 19.200 C 108.751 19.200,108.678 19.146,108.988 18.467 C 109.352 17.667,110.147 17.500,110.744 18.098 M61.642 20.107 C 61.642 20.981,60.405 21.601,59.823 21.019 C 59.158 20.354,59.758 19.550,60.926 19.542 C 61.628 19.537,61.642 19.548,61.642 20.107 M97.347 19.966 C 97.347 20.894,96.036 21.570,95.423 20.956 C 94.743 20.277,95.313 19.537,96.517 19.537 C 97.294 19.537,97.347 19.564,97.347 19.966 M116.915 21.432 C 116.944 21.640,117.082 21.811,117.221 21.811 C 117.360 21.811,117.498 21.640,117.528 21.432 C 117.569 21.140,117.498 21.053,117.221 21.053 C 116.944 21.053,116.873 21.140,116.915 21.432 M13.887 28.540 C 13.424 29.003,13.343 29.474,13.726 29.474 C 13.865 29.474,13.979 29.362,13.979 29.225 C 13.979 28.786,14.775 28.388,15.234 28.597 C 16.145 29.012,15.926 29.773,14.415 31.437 C 13.168 32.811,13.180 32.842,14.989 32.842 C 16.225 32.842,16.505 32.795,16.505 32.589 C 16.505 32.393,16.281 32.337,15.495 32.337 C 14.272 32.337,14.217 32.161,15.152 31.248 C 16.726 29.711,16.600 28.126,14.905 28.126 C 14.488 28.126,14.172 28.254,13.887 28.540 M18.249 28.451 C 16.404 29.575,17.395 33.567,19.292 32.654 C 20.723 31.966,20.304 29.889,18.737 29.902 C 18.175 29.906,17.853 29.838,17.853 29.714 C 17.853 29.328,18.526 28.674,19.026 28.574 C 19.307 28.518,19.537 28.394,19.537 28.299 C 19.537 28.018,18.820 28.103,18.249 28.451 M22.640 29.529 C 22.467 29.981,22.648 32.729,22.856 32.798 C 23.000 32.846,23.073 32.486,23.108 31.554 C 23.156 30.288,23.175 30.235,23.663 29.985 C 23.941 29.843,24.201 29.706,24.241 29.681 C 24.542 29.496,23.893 29.306,23.563 29.482 C 23.276 29.636,23.157 29.640,23.110 29.498 C 23.023 29.236,22.746 29.255,22.640 29.529 M25.492 29.472 C 24.545 29.854,24.264 31.435,24.993 32.282 C 25.476 32.844,26.584 32.941,27.061 32.463 C 27.420 32.105,27.259 31.912,26.804 32.155 C 26.252 32.450,25.642 32.369,25.357 31.963 C 24.955 31.389,25.012 31.345,26.232 31.292 L 27.368 31.242 27.339 30.655 C 27.290 29.670,26.406 29.103,25.492 29.472 M28.853 29.475 C 27.831 29.887,28.045 30.879,29.221 31.176 C 30.129 31.404,30.450 31.719,30.147 32.084 C 29.850 32.443,29.075 32.397,28.716 32.000 C 28.363 31.610,28.126 31.566,28.126 31.890 C 28.126 32.721,29.921 33.074,30.502 32.356 C 31.039 31.694,30.670 31.143,29.472 30.821 C 28.898 30.666,28.788 30.570,28.832 30.264 C 28.906 29.741,29.572 29.686,30.079 30.162 C 30.524 30.580,30.740 30.518,30.581 30.017 C 30.401 29.452,29.563 29.189,28.853 29.475 M31.663 31.677 C 31.663 33.499,31.712 34.033,31.874 33.980 C 31.989 33.942,32.107 33.598,32.136 33.216 C 32.185 32.550,32.205 32.527,32.610 32.681 C 33.654 33.078,34.358 32.463,34.358 31.154 C 34.358 29.708,33.673 29.060,32.612 29.499 C 32.222 29.661,32.091 29.663,32.039 29.507 C 31.804 28.801,31.663 29.613,31.663 31.677 M35.925 29.507 C 35.399 29.761,34.993 30.699,35.120 31.368 C 35.385 32.768,36.587 33.253,37.583 32.363 C 38.989 31.107,37.592 28.701,35.925 29.507 M39.074 31.074 C 39.074 32.140,39.141 32.842,39.242 32.842 C 39.339 32.842,39.411 32.317,39.411 31.605 C 39.411 29.093,41.028 28.983,41.129 31.489 C 41.205 33.368,41.600 33.314,41.600 31.425 C 41.600 29.496,41.159 28.976,39.979 29.514 C 39.615 29.680,39.507 29.680,39.452 29.514 C 39.235 28.862,39.074 29.525,39.074 31.074 M43.154 29.506 C 42.266 29.949,42.529 30.851,43.643 31.184 C 44.473 31.433,44.751 31.738,44.463 32.084 C 44.160 32.450,43.519 32.394,43.121 31.967 C 42.679 31.492,42.326 31.759,42.697 32.288 C 43.235 33.056,44.864 32.897,45.075 32.056 C 45.209 31.523,44.815 31.098,43.946 30.837 C 43.220 30.620,42.916 30.209,43.302 29.965 C 43.692 29.717,44.168 29.791,44.561 30.160 C 45.020 30.591,45.249 30.320,44.841 29.829 C 44.486 29.400,43.676 29.245,43.154 29.506 M46.628 29.561 C 45.538 30.153,45.605 32.127,46.732 32.641 C 47.353 32.924,47.733 32.892,48.192 32.520 C 48.703 32.106,48.546 31.950,47.874 32.204 C 47.216 32.452,46.484 32.174,46.484 31.675 C 46.484 31.385,46.618 31.336,47.537 31.292 C 48.547 31.244,48.592 31.223,48.643 30.777 C 48.756 29.791,47.548 29.061,46.628 29.561 M50.059 29.480 C 49.069 29.878,49.314 30.865,50.485 31.196 C 51.161 31.387,51.284 31.486,51.284 31.837 C 51.284 32.423,50.479 32.510,49.920 31.984 C 49.481 31.572,49.167 31.673,49.453 32.134 C 49.968 32.964,51.415 32.982,51.823 32.164 C 52.118 31.572,51.769 31.127,50.791 30.851 C 50.129 30.663,50.009 30.568,50.053 30.261 C 50.127 29.741,50.795 29.688,51.300 30.162 C 51.756 30.591,51.960 30.516,51.790 29.982 C 51.610 29.414,50.806 29.181,50.059 29.480 M26.577 30.013 C 27.045 30.480,26.815 30.821,26.031 30.821 C 25.160 30.821,25.012 30.678,25.364 30.175 C 25.643 29.776,26.258 29.694,26.577 30.013 M33.545 30.089 C 34.226 30.706,33.783 32.337,32.934 32.337 C 32.370 32.337,32.168 32.004,32.168 31.074 C 32.168 29.862,32.797 29.413,33.545 30.089 M37.296 30.137 C 37.925 30.832,37.490 32.337,36.661 32.337 C 36.086 32.337,35.705 31.845,35.705 31.103 C 35.705 29.956,36.626 29.397,37.296 30.137 M47.860 30.089 C 48.413 30.589,48.243 30.821,47.326 30.821 C 46.422 30.821,46.239 30.585,46.749 30.075 C 47.090 29.734,47.474 29.739,47.860 30.089 M19.269 30.368 C 19.622 30.626,19.682 31.706,19.365 32.089 C 18.828 32.735,17.853 32.134,17.853 31.158 C 17.853 30.315,18.615 29.890,19.269 30.368 M263.228 53.622 C 263.986 54.744,264.072 54.968,264.118 55.938 C 264.191 57.479,264.639 57.464,264.758 55.916 C 264.829 54.987,264.946 54.668,265.529 53.811 C 266.507 52.370,266.503 52.379,266.157 52.381 C 265.968 52.382,265.617 52.764,265.228 53.391 C 264.467 54.621,264.484 54.621,263.711 53.382 C 263.275 52.684,262.979 52.379,262.737 52.379 C 262.431 52.379,262.488 52.525,263.228 53.622 M266.936 54.024 C 266.224 54.661,266.181 55.900,266.849 56.568 C 267.415 57.134,268.461 57.172,268.988 56.645 C 269.493 56.139,269.239 55.811,268.681 56.250 C 267.989 56.794,266.947 56.486,266.947 55.738 C 266.947 55.445,267.071 55.411,268.126 55.411 C 269.261 55.411,269.305 55.395,269.305 55.003 C 269.305 53.695,267.938 53.129,266.936 54.024 M270.517 53.816 C 269.753 54.365,270.057 55.101,271.200 55.472 C 272.201 55.798,272.414 56.109,271.843 56.415 C 271.365 56.671,271.030 56.630,270.673 56.273 C 270.467 56.067,270.275 56.006,270.125 56.099 C 269.941 56.213,269.970 56.317,270.275 56.622 C 271.035 57.384,272.674 56.948,272.674 55.984 C 272.674 55.535,272.528 55.420,271.498 55.059 C 270.954 54.868,270.737 54.700,270.737 54.470 C 270.737 54.045,271.780 53.902,271.935 54.305 C 272.060 54.630,272.505 54.655,272.505 54.336 C 272.505 53.716,271.150 53.362,270.517 53.816 M268.598 54.265 C 269.041 54.708,268.818 54.905,267.874 54.905 C 266.911 54.905,266.763 54.776,267.212 54.328 C 267.525 54.015,268.312 53.979,268.598 54.265 M262.905 65.095 C 262.905 67.004,262.946 67.368,263.158 67.368 C 263.366 67.368,263.411 67.069,263.411 65.684 C 263.411 63.618,263.410 63.618,264.758 65.684 C 266.301 68.050,266.442 68.000,266.442 65.095 C 266.442 63.186,266.402 62.821,266.189 62.821 C 265.982 62.821,265.937 63.123,265.937 64.526 C 265.937 66.549,265.930 66.548,264.481 64.334 C 263.055 62.155,262.905 62.227,262.905 65.095 M267.862 64.388 C 266.742 65.352,267.434 67.368,268.884 67.368 C 270.868 67.368,270.996 64.318,269.024 64.053 C 268.475 63.980,268.267 64.040,267.862 64.388 M269.421 64.638 C 269.728 64.833,269.968 65.603,269.859 66.045 C 269.524 67.412,267.881 67.112,267.881 65.684 C 267.881 64.699,268.672 64.161,269.421 64.638 " stroke="none" fill="#323334" fill-rule="evenodd"></path><path id="path4" d="M70.438 18.484 L 70.477 21.979 70.526 18.557 C 70.571 15.419,70.600 15.139,70.867 15.191 C 71.131 15.242,71.158 15.554,71.158 18.555 C 71.158 20.374,71.215 21.828,71.284 21.785 C 71.434 21.692,71.456 15.642,71.308 15.256 C 71.252 15.109,71.025 14.989,70.803 14.989 L 70.400 14.989 70.438 18.484 M103.823 15.205 C 103.777 15.323,103.762 16.896,103.790 18.700 L 103.839 21.979 103.878 18.568 C 103.914 15.283,103.928 15.158,104.253 15.158 C 104.569 15.158,104.589 15.270,104.589 17.001 C 104.589 18.847,104.705 19.249,105.099 18.773 C 105.276 18.561,105.265 18.536,105.034 18.625 C 104.788 18.719,104.758 18.525,104.758 16.860 L 104.758 14.989 104.332 14.989 C 104.097 14.989,103.868 15.086,103.823 15.205 M118.260 15.921 C 118.828 16.229,119.150 17.126,118.914 17.744 C 118.821 17.989,118.783 18.189,118.829 18.189 C 118.876 18.189,118.990 17.989,119.083 17.744 C 119.381 16.960,118.683 15.643,117.984 15.670 C 117.888 15.674,118.013 15.786,118.260 15.921 M17.535 16.413 C 17.684 16.603,17.890 16.909,17.993 17.095 C 18.095 17.280,18.182 17.338,18.184 17.224 C 18.187 17.109,17.981 16.803,17.726 16.542 C 17.472 16.281,17.385 16.223,17.535 16.413 M89.905 16.589 C 89.962 17.080,90.042 17.179,90.376 17.179 C 90.622 17.179,90.779 17.277,90.779 17.432 C 90.779 17.590,90.619 17.684,90.352 17.684 L 89.925 17.684 89.973 19.411 C 90.019 21.077,90.035 21.139,90.416 21.193 C 90.712 21.235,90.790 21.330,90.727 21.572 C 90.680 21.749,90.716 21.895,90.806 21.895 C 91.160 21.895,90.858 21.136,90.484 21.083 C 90.122 21.032,90.105 20.959,90.105 19.453 C 90.105 17.946,90.122 17.874,90.484 17.822 C 90.733 17.787,90.863 17.653,90.863 17.432 C 90.863 17.210,90.733 17.076,90.484 17.041 C 90.190 16.999,90.105 16.877,90.105 16.494 C 90.105 16.222,90.045 16.000,89.971 16.000 C 89.897 16.000,89.867 16.265,89.905 16.589 M115.739 16.371 C 115.628 16.482,115.537 16.747,115.537 16.960 C 115.537 17.510,116.249 17.487,116.616 16.926 C 116.912 16.475,117.522 16.368,117.861 16.707 C 118.244 17.091,118.076 17.717,117.389 18.462 C 116.534 19.390,116.426 20.266,117.178 20.180 C 117.483 20.144,117.659 20.012,117.699 19.789 C 117.732 19.604,117.997 19.187,118.290 18.863 L 118.821 18.274 118.189 18.854 C 117.842 19.173,117.558 19.571,117.558 19.738 C 117.558 19.930,117.433 20.042,117.221 20.042 C 116.615 20.042,116.940 19.001,117.795 18.202 C 118.339 17.693,118.400 16.775,117.906 16.511 C 117.375 16.227,116.930 16.310,116.577 16.758 C 116.395 16.989,116.125 17.179,115.976 17.179 C 115.659 17.179,115.615 16.663,115.907 16.371 C 116.019 16.259,116.072 16.168,116.025 16.168 C 115.979 16.168,115.850 16.259,115.739 16.371 M14.653 18.779 L 14.653 21.221 15.368 21.218 C 15.762 21.217,16.185 21.152,16.309 21.073 C 16.440 20.990,16.177 20.965,15.677 21.013 L 14.821 21.095 14.821 18.800 L 14.821 16.505 15.570 16.505 C 16.886 16.505,17.263 17.004,17.263 18.747 C 17.263 19.919,17.204 20.246,16.933 20.572 L 16.602 20.968 17.017 20.585 C 17.395 20.235,17.432 20.075,17.432 18.760 C 17.432 16.940,16.949 16.337,15.492 16.337 L 14.653 16.337 14.653 18.779 M20.261 17.341 C 19.522 17.791,19.195 18.496,19.226 19.571 L 19.251 20.463 19.356 19.453 C 19.521 17.866,19.915 17.403,21.305 17.167 L 21.979 17.053 21.389 17.032 C 21.065 17.021,20.557 17.160,20.261 17.341 M26.181 17.192 C 26.069 17.373,26.585 18.944,26.715 18.815 C 26.753 18.777,26.669 18.472,26.529 18.137 C 26.186 17.316,26.207 17.146,26.643 17.209 C 26.946 17.254,27.102 17.540,27.520 18.821 C 28.147 20.741,28.171 20.741,28.760 18.822 C 29.242 17.252,29.621 16.813,30.014 17.373 C 30.142 17.556,30.160 17.551,30.104 17.347 C 29.845 16.397,29.085 17.089,28.620 18.701 C 28.178 20.229,28.140 20.226,27.619 18.611 C 27.122 17.068,26.585 16.538,26.181 17.192 M31.595 17.258 C 31.113 17.519,30.668 17.982,30.658 18.234 C 30.655 18.305,30.874 18.116,31.144 17.813 C 31.800 17.079,33.217 17.008,33.925 17.673 C 34.825 18.518,34.870 20.312,34.015 21.227 C 33.759 21.502,33.611 21.726,33.686 21.726 C 33.988 21.726,34.670 20.687,34.775 20.067 C 35.120 18.023,33.244 16.366,31.595 17.258 M36.000 17.121 C 36.359 17.198,36.379 17.282,36.381 18.749 C 36.384 20.545,36.592 21.112,37.278 21.191 C 38.335 21.313,38.568 20.907,38.568 18.943 C 38.568 17.299,38.591 17.179,38.901 17.179 C 39.213 17.179,39.236 17.320,39.287 19.495 L 39.340 21.811 39.333 19.453 L 39.326 17.095 38.905 17.095 C 38.486 17.095,38.484 17.101,38.438 18.863 C 38.388 20.797,38.263 21.053,37.367 21.053 C 36.716 21.053,36.643 20.858,36.548 18.863 C 36.464 17.121,36.457 17.094,36.042 17.067 C 35.671 17.043,35.666 17.049,36.000 17.121 M42.688 17.221 C 42.638 17.350,42.623 18.208,42.653 19.128 L 42.708 20.800 42.744 18.989 C 42.776 17.314,42.804 17.179,43.110 17.179 C 43.412 17.179,43.446 17.320,43.498 18.821 L 43.555 20.463 43.546 18.779 C 43.537 17.163,43.522 17.093,43.157 17.041 C 42.946 17.011,42.737 17.091,42.688 17.221 M45.474 17.144 C 45.474 17.230,45.661 17.265,45.890 17.221 L 46.306 17.141 46.360 19.476 L 46.414 21.811 46.407 19.453 L 46.400 17.095 45.937 17.041 C 45.682 17.012,45.474 17.058,45.474 17.144 M49.399 17.173 C 50.282 17.336,50.657 17.572,50.871 18.099 C 50.969 18.341,51.013 18.364,51.021 18.177 C 51.041 17.671,50.260 17.143,49.400 17.082 L 48.589 17.024 49.399 17.173 M52.960 17.272 C 52.443 17.527,51.868 18.299,51.880 18.721 C 51.884 18.845,51.987 18.720,52.110 18.442 C 52.430 17.718,52.900 17.359,53.745 17.193 C 54.342 17.075,54.387 17.045,53.979 17.033 C 53.701 17.025,53.242 17.132,52.960 17.272 M60.884 17.177 C 61.407 17.273,61.838 17.469,62.021 17.695 C 62.183 17.895,62.316 17.986,62.316 17.897 C 62.316 17.527,61.613 17.136,60.849 17.081 L 60.042 17.024 60.884 17.177 M66.586 17.178 C 65.392 17.660,65.535 19.742,66.760 19.699 C 66.863 19.695,66.744 19.581,66.496 19.447 C 65.248 18.769,65.803 17.447,67.453 17.167 L 68.126 17.053 67.537 17.042 C 67.213 17.037,66.785 17.097,66.586 17.178 M73.502 17.174 C 73.041 17.360,72.251 18.308,72.259 18.666 C 72.263 18.825,72.363 18.727,72.489 18.442 C 72.809 17.718,73.279 17.359,74.124 17.193 C 74.703 17.079,74.754 17.046,74.358 17.040 C 74.080 17.035,73.695 17.096,73.502 17.174 M79.139 17.179 C 79.546 17.266,80.039 17.470,80.234 17.631 L 80.589 17.924 80.235 17.539 C 79.998 17.281,79.636 17.131,79.141 17.087 L 78.400 17.020 79.139 17.179 M81.806 17.113 C 81.739 17.180,81.684 18.700,81.684 20.491 L 81.684 23.747 82.189 23.747 L 82.695 23.747 82.695 22.725 C 82.695 21.746,82.711 21.708,83.074 21.810 C 83.370 21.894,83.398 21.878,83.200 21.740 C 82.663 21.364,82.526 21.531,82.526 22.568 C 82.526 23.467,82.489 23.579,82.189 23.579 C 81.864 23.579,81.853 23.467,81.853 20.379 C 81.853 17.127,81.919 16.807,82.476 17.365 C 82.608 17.496,82.754 17.499,82.973 17.374 C 83.269 17.206,83.268 17.198,82.947 17.203 C 82.762 17.206,82.457 17.159,82.269 17.100 C 82.082 17.040,81.873 17.046,81.806 17.113 M83.705 17.126 C 84.484 17.253,85.006 17.535,85.227 17.948 C 85.347 18.173,85.477 18.326,85.516 18.288 C 85.864 17.940,84.539 16.995,83.756 17.033 C 83.306 17.055,83.303 17.060,83.705 17.126 M91.695 17.230 C 91.649 17.350,91.634 18.468,91.663 19.714 L 91.716 21.979 91.753 19.579 C 91.787 17.339,91.811 17.179,92.112 17.179 C 92.290 17.179,92.464 17.266,92.499 17.372 C 92.547 17.514,92.665 17.510,92.952 17.356 C 93.165 17.242,93.494 17.189,93.684 17.239 C 93.944 17.307,93.980 17.281,93.832 17.133 C 93.686 16.988,93.511 16.986,93.135 17.128 C 92.841 17.239,92.594 17.254,92.538 17.164 C 92.395 16.933,91.791 16.980,91.695 17.230 M95.411 17.170 C 95.225 17.246,94.923 17.487,94.738 17.706 L 94.402 18.105 94.845 17.715 C 95.092 17.498,95.651 17.264,96.107 17.188 C 96.808 17.070,96.841 17.049,96.337 17.041 C 96.013 17.036,95.596 17.094,95.411 17.170 M100.142 17.258 C 99.660 17.519,99.216 17.982,99.205 18.234 C 99.202 18.305,99.408 18.130,99.663 17.845 C 100.304 17.128,101.299 16.995,102.182 17.508 L 102.821 17.879 102.461 17.511 C 101.989 17.027,100.808 16.898,100.142 17.258 M105.954 17.606 C 105.667 17.933,105.432 18.249,105.432 18.308 C 105.432 18.366,105.678 18.128,105.980 17.779 C 106.374 17.323,106.636 17.161,106.911 17.204 C 107.272 17.260,107.251 17.312,106.531 18.132 C 106.112 18.611,105.768 19.056,105.768 19.122 C 105.768 19.282,107.277 21.389,107.392 21.389 C 107.441 21.389,107.134 20.902,106.710 20.307 C 105.769 18.989,105.770 19.097,106.695 18.189 C 107.579 17.321,107.651 17.011,106.965 17.011 C 106.617 17.011,106.327 17.182,105.954 17.606 M109.019 17.341 C 108.449 17.688,107.948 18.473,107.972 18.981 C 107.982 19.183,108.031 19.140,108.118 18.853 C 108.845 16.457,111.832 16.669,111.832 19.117 L 111.832 19.692 110.360 19.741 C 108.689 19.796,108.434 20.028,109.202 20.796 C 109.618 21.212,110.690 21.401,110.881 21.092 C 110.925 21.020,110.672 20.990,110.318 21.024 C 109.834 21.070,109.587 20.997,109.321 20.732 C 108.620 20.031,108.829 19.874,110.466 19.874 C 112.128 19.874,112.231 19.805,112.013 18.838 C 111.646 17.207,110.322 16.546,109.019 17.341 M112.786 17.123 C 112.630 17.278,112.644 21.895,112.800 21.895 C 112.869 21.895,112.903 20.834,112.875 19.537 C 112.826 17.273,112.838 17.179,113.162 17.179 C 113.347 17.179,113.565 17.297,113.646 17.442 C 113.778 17.677,113.820 17.674,114.034 17.411 C 114.247 17.149,114.241 17.128,113.979 17.226 C 113.817 17.287,113.684 17.263,113.684 17.174 C 113.684 16.990,112.960 16.949,112.786 17.123 M114.653 17.121 C 115.184 17.235,115.170 17.853,114.637 17.853 C 114.419 17.853,114.097 18.023,113.921 18.232 C 113.603 18.607,113.603 18.608,113.937 18.331 C 114.122 18.177,114.463 18.026,114.695 17.994 C 115.016 17.950,115.116 17.837,115.116 17.516 C 115.116 17.186,115.024 17.089,114.695 17.067 C 114.324 17.043,114.319 17.049,114.653 17.121 M22.465 17.531 C 23.759 18.549,23.706 20.738,22.368 21.554 C 22.061 21.741,21.895 21.894,21.998 21.894 C 23.563 21.899,24.092 18.417,22.677 17.426 C 22.136 17.046,21.960 17.133,22.465 17.531 M47.832 17.599 C 47.615 17.831,47.469 18.041,47.508 18.068 C 47.547 18.094,47.783 17.905,48.031 17.647 C 48.280 17.390,48.426 17.179,48.355 17.179 C 48.285 17.179,48.049 17.368,47.832 17.599 M54.886 17.454 C 55.331 17.766,55.747 18.647,55.747 19.279 C 55.747 19.704,55.741 19.705,54.232 19.705 C 52.757 19.705,52.716 19.716,52.716 20.097 C 52.716 21.011,54.046 21.534,54.882 20.949 C 55.444 20.555,55.758 20.903,55.314 21.428 L 54.989 21.811 55.368 21.490 C 56.055 20.909,55.589 20.285,54.854 20.800 C 54.096 21.331,52.884 20.939,52.884 20.162 C 52.884 19.932,53.127 19.879,54.358 19.838 L 55.832 19.789 55.803 18.970 C 55.774 18.163,55.151 17.179,54.668 17.179 C 54.572 17.179,54.670 17.303,54.886 17.454 M59.192 17.592 C 58.965 17.820,58.779 18.123,58.779 18.266 C 58.779 18.645,59.553 18.595,59.958 18.189 C 60.488 17.659,61.474 17.869,61.474 18.511 C 61.474 18.766,61.306 18.835,60.536 18.899 C 59.776 18.962,59.514 19.069,59.147 19.463 L 58.695 19.948 59.149 19.553 C 59.464 19.279,59.904 19.125,60.581 19.052 C 61.704 18.932,62.002 18.461,61.277 17.953 C 60.769 17.597,60.429 17.614,59.912 18.021 C 59.479 18.362,58.947 18.472,58.947 18.222 C 58.947 18.009,59.334 17.576,59.705 17.373 C 59.891 17.272,59.944 17.187,59.824 17.184 C 59.704 17.181,59.420 17.365,59.192 17.592 M68.729 17.671 C 69.000 17.942,69.221 18.245,69.221 18.345 C 69.221 18.613,68.552 18.565,68.446 18.289 C 68.169 17.569,66.526 17.685,66.526 18.425 C 66.526 18.813,68.085 19.550,68.348 19.287 C 68.387 19.248,68.063 19.125,67.627 19.016 C 66.743 18.793,66.479 18.427,66.952 18.081 C 67.394 17.758,67.609 17.793,68.195 18.287 C 68.757 18.759,69.269 18.773,69.357 18.318 C 69.413 18.026,68.701 17.179,68.400 17.179 C 68.310 17.179,68.458 17.400,68.729 17.671 M74.961 17.221 C 75.000 17.244,75.257 17.453,75.532 17.684 C 75.904 17.998,75.969 18.019,75.784 17.768 C 75.492 17.371,75.258 17.185,75.046 17.182 C 74.961 17.180,74.923 17.198,74.961 17.221 M77.462 17.696 C 76.460 18.769,76.673 21.185,77.810 21.646 C 77.949 21.702,77.842 21.517,77.572 21.236 C 76.626 20.248,76.829 18.162,77.938 17.474 C 78.192 17.317,78.298 17.186,78.173 17.183 C 78.048 17.181,77.728 17.412,77.462 17.696 M97.215 17.357 C 97.374 17.450,97.620 17.692,97.762 17.895 C 97.905 18.098,98.021 18.172,98.021 18.059 C 98.021 17.787,97.405 17.178,97.137 17.184 C 97.017 17.187,97.051 17.262,97.215 17.357 M88.253 17.688 C 88.253 17.757,88.442 17.850,88.674 17.894 C 88.905 17.938,89.095 17.918,89.095 17.849 C 89.095 17.780,88.905 17.687,88.674 17.643 C 88.442 17.599,88.253 17.619,88.253 17.688 M20.534 18.177 C 19.910 18.800,19.832 20.094,20.379 20.739 L 20.716 21.137 20.464 20.632 C 19.742 19.182,20.565 17.548,21.784 18.011 C 23.036 18.487,22.677 20.931,21.330 21.101 L 20.800 21.167 21.318 21.194 C 22.833 21.273,23.240 18.396,21.791 17.845 C 21.172 17.610,21.076 17.635,20.534 18.177 M29.661 18.208 C 29.557 18.506,29.502 18.779,29.538 18.815 C 29.574 18.851,29.688 18.637,29.792 18.339 C 29.896 18.042,29.951 17.769,29.915 17.733 C 29.879 17.696,29.765 17.911,29.661 18.208 M32.000 17.950 L 31.579 18.204 32.000 18.089 C 32.232 18.026,32.502 17.945,32.601 17.907 C 32.895 17.797,33.684 18.523,33.684 18.903 C 33.684 19.097,33.731 19.209,33.789 19.152 C 34.430 18.511,32.841 17.443,32.000 17.950 M48.716 17.858 C 47.862 18.201,48.316 18.894,49.656 19.292 C 50.132 19.433,50.629 19.711,50.773 19.916 C 50.915 20.119,51.032 20.205,51.032 20.106 C 51.032 19.778,50.420 19.365,49.499 19.070 C 48.816 18.852,48.577 18.690,48.539 18.422 C 48.446 17.770,49.827 17.777,50.077 18.429 C 50.139 18.592,50.360 18.686,50.647 18.672 C 51.052 18.652,51.063 18.639,50.732 18.575 C 50.521 18.535,50.165 18.318,49.940 18.093 C 49.502 17.655,49.311 17.619,48.716 17.858 M53.145 18.081 C 52.329 18.898,52.541 19.223,53.853 19.166 C 54.954 19.117,54.988 19.103,54.942 18.695 C 54.838 17.772,53.807 17.420,53.145 18.081 M73.786 17.868 C 73.564 17.956,73.425 18.071,73.477 18.123 C 73.529 18.174,73.724 18.135,73.911 18.035 C 74.279 17.838,75.116 18.050,75.116 18.340 C 75.116 18.427,75.162 18.619,75.218 18.765 C 75.304 18.990,75.162 19.032,74.306 19.032 C 73.652 19.032,73.261 18.957,73.206 18.821 C 73.157 18.698,73.116 18.736,73.108 18.913 C 73.096 19.180,73.228 19.210,74.232 19.166 C 75.333 19.117,75.367 19.103,75.321 18.695 C 75.238 17.960,74.525 17.576,73.786 17.868 M78.250 18.063 C 77.415 18.813,77.580 19.109,78.863 19.166 C 79.974 19.214,80.000 19.206,80.000 18.799 C 80.000 17.906,78.927 17.455,78.250 18.063 M93.356 17.870 C 93.059 17.956,92.766 18.109,92.704 18.209 C 92.624 18.338,92.692 18.337,92.937 18.206 C 93.127 18.104,93.440 18.021,93.631 18.021 C 93.822 18.021,93.979 17.945,93.979 17.853 C 93.979 17.760,93.960 17.691,93.937 17.699 C 93.914 17.708,93.652 17.785,93.356 17.870 M95.705 17.858 C 95.171 18.073,95.231 18.217,95.770 18.013 C 96.013 17.920,96.364 17.892,96.549 17.951 C 96.771 18.021,96.845 17.994,96.769 17.871 C 96.633 17.651,96.233 17.646,95.705 17.858 M100.547 17.937 C 100.074 18.207,100.226 18.283,100.716 18.021 C 101.139 17.794,101.901 18.092,102.015 18.528 C 102.132 18.976,103.080 19.012,103.060 18.568 C 103.052 18.392,103.013 18.358,102.962 18.484 C 102.823 18.829,102.457 18.726,101.921 18.189 C 101.356 17.625,101.157 17.588,100.547 17.937 M109.558 17.885 C 109.211 18.082,108.976 18.353,108.971 18.561 C 108.970 18.626,109.159 18.489,109.392 18.256 C 109.852 17.796,110.385 17.822,110.779 18.323 C 111.241 18.911,111.047 19.063,109.910 19.004 C 109.317 18.973,108.866 19.004,108.910 19.074 C 109.117 19.406,111.158 19.208,111.158 18.856 C 111.158 18.091,110.209 17.516,109.558 17.885 M54.492 18.266 C 55.120 18.894,55.013 19.032,53.895 19.032 C 53.174 19.032,52.884 18.968,52.884 18.811 C 52.884 18.394,53.418 17.918,53.944 17.866 C 54.018 17.859,54.264 18.039,54.492 18.266 M79.457 18.115 C 80.214 18.645,79.948 19.032,78.826 19.032 C 77.722 19.032,77.560 18.551,78.502 18.066 C 79.013 17.802,79.010 17.802,79.457 18.115 M82.821 18.035 C 82.383 18.289,82.394 20.544,82.834 20.942 C 83.722 21.745,84.884 20.949,84.884 19.537 C 84.884 18.165,83.868 17.425,82.821 18.035 M84.480 18.445 C 85.340 19.757,83.936 21.890,82.897 20.851 C 82.631 20.584,82.631 18.489,82.897 18.223 C 83.268 17.852,84.175 17.979,84.480 18.445 M62.375 19.537 C 62.375 20.324,62.404 20.646,62.439 20.253 C 62.475 19.859,62.475 19.215,62.439 18.821 C 62.404 18.427,62.375 18.749,62.375 19.537 M76.082 18.925 L 76.170 19.705 74.632 19.705 C 73.144 19.705,73.095 19.717,73.114 20.084 C 73.129 20.369,73.153 20.390,73.211 20.168 C 73.277 19.915,73.501 19.874,74.791 19.874 L 76.295 19.874 76.292 19.242 C 76.291 18.895,76.223 18.506,76.142 18.377 C 76.051 18.234,76.028 18.445,76.082 18.925 M94.459 18.401 C 94.544 18.485,94.793 18.527,95.012 18.492 C 95.349 18.439,95.326 18.415,94.858 18.338 C 94.523 18.282,94.366 18.307,94.459 18.401 M97.098 18.484 C 97.195 18.839,97.150 18.863,96.390 18.864 C 95.676 18.864,94.484 19.335,94.484 19.616 C 94.484 19.662,94.731 19.550,95.032 19.367 C 95.371 19.159,95.879 19.033,96.369 19.032 C 97.236 19.032,97.464 18.854,97.180 18.401 C 97.019 18.145,97.008 18.156,97.098 18.484 M31.439 18.470 C 31.163 18.745,31.331 20.340,31.682 20.786 C 32.397 21.694,33.660 21.130,33.916 19.789 C 34.008 19.306,34.004 19.303,33.834 19.705 C 33.334 20.889,33.262 20.968,32.636 21.020 C 31.781 21.092,31.442 20.565,31.521 19.289 C 31.553 18.777,31.573 18.358,31.565 18.358 C 31.557 18.358,31.500 18.408,31.439 18.470 M30.424 18.899 C 30.367 19.111,30.327 19.436,30.335 19.621 C 30.343 19.806,30.419 19.662,30.504 19.301 C 30.668 18.601,30.598 18.249,30.424 18.899 M85.589 19.471 C 85.565 20.270,85.459 20.647,85.116 21.155 C 84.777 21.658,84.753 21.739,85.016 21.504 C 85.541 21.034,85.752 20.353,85.683 19.352 L 85.620 18.442 85.589 19.471 M92.525 20.211 C 92.525 21.183,92.553 21.581,92.587 21.095 C 92.621 20.608,92.621 19.813,92.587 19.326 C 92.553 18.840,92.525 19.238,92.525 20.211 M99.924 19.537 C 99.924 20.046,99.956 20.255,99.994 20.000 C 100.033 19.745,100.033 19.328,99.994 19.074 C 99.956 18.819,99.924 19.027,99.924 19.537 M51.744 19.537 C 51.744 19.861,51.779 19.994,51.821 19.832 C 51.864 19.669,51.864 19.404,51.821 19.242 C 51.779 19.080,51.744 19.213,51.744 19.537 M68.842 19.691 C 69.051 19.891,69.221 20.256,69.221 20.501 C 69.221 20.746,69.051 21.132,68.842 21.359 L 68.463 21.772 68.840 21.576 C 69.047 21.468,69.264 21.192,69.322 20.964 C 69.474 20.354,69.270 19.742,68.840 19.521 L 68.463 19.327 68.842 19.691 M48.337 19.611 C 48.337 19.656,48.659 19.776,49.053 19.879 C 49.446 19.982,49.872 20.194,49.998 20.349 C 50.176 20.567,50.211 20.574,50.154 20.379 C 50.054 20.037,48.337 19.311,48.337 19.611 M59.864 19.799 C 59.542 20.056,59.542 20.058,59.874 19.906 C 60.059 19.821,60.324 19.709,60.463 19.657 C 60.681 19.576,60.680 19.562,60.453 19.550 C 60.309 19.543,60.044 19.655,59.864 19.799 M61.501 19.902 C 61.486 20.149,61.425 20.490,61.365 20.660 C 61.281 20.896,61.304 20.924,61.461 20.779 C 61.577 20.673,61.636 20.341,61.597 20.021 C 61.541 19.559,61.523 19.537,61.501 19.902 M95.423 19.802 C 95.277 19.947,95.167 20.231,95.177 20.433 C 95.196 20.775,95.203 20.777,95.280 20.463 C 95.398 19.982,95.633 19.736,96.054 19.654 L 96.421 19.583 96.054 19.560 C 95.852 19.547,95.568 19.656,95.423 19.802 M97.136 19.947 C 97.258 20.588,96.614 21.114,95.855 20.992 C 95.432 20.924,95.320 20.944,95.495 21.055 C 95.933 21.334,96.506 21.236,96.934 20.808 C 97.344 20.397,97.480 19.807,97.203 19.636 C 97.124 19.587,97.094 19.727,97.136 19.947 M67.537 19.958 C 68.306 20.254,68.608 20.250,67.958 19.952 C 67.680 19.825,67.339 19.723,67.200 19.726 C 67.061 19.729,67.213 19.833,67.537 19.958 M77.727 19.872 C 77.670 19.964,77.706 20.173,77.806 20.336 C 77.972 20.607,77.983 20.604,77.941 20.295 C 77.898 19.985,78.018 19.950,79.411 19.863 L 80.926 19.769 79.378 19.737 C 78.500 19.719,77.786 19.778,77.727 19.872 M104.905 20.000 C 104.701 20.261,104.705 20.271,104.941 20.086 C 105.169 19.908,105.314 20.025,105.938 20.886 C 106.595 21.792,107.001 22.233,106.673 21.684 C 106.485 21.369,105.229 19.705,105.179 19.705 C 105.155 19.705,105.032 19.838,104.905 20.000 M107.965 20.093 C 107.954 20.566,108.428 21.361,108.844 21.564 L 109.221 21.749 108.835 21.436 C 108.622 21.265,108.341 20.824,108.210 20.457 C 108.080 20.090,107.969 19.926,107.965 20.093 M28.550 21.479 C 28.284 22.264,27.925 23.058,27.753 23.243 C 27.377 23.646,26.442 23.706,26.442 23.326 C 26.442 23.187,26.588 23.074,26.767 23.074 C 27.560 23.074,27.983 21.901,27.527 20.968 C 27.391 20.691,27.323 20.615,27.378 20.800 C 27.724 21.983,27.510 22.733,26.778 22.906 C 26.507 22.969,26.358 23.122,26.358 23.334 C 26.358 23.869,27.347 23.878,27.839 23.348 C 28.209 22.948,29.260 20.277,29.107 20.125 C 29.067 20.085,28.817 20.694,28.550 21.479 M30.488 20.228 C 30.483 20.593,31.181 21.600,31.495 21.681 C 31.648 21.720,31.626 21.669,31.437 21.550 C 31.266 21.443,30.983 21.041,30.809 20.656 C 30.634 20.272,30.490 20.079,30.488 20.228 M17.883 20.631 C 17.778 20.863,17.443 21.205,17.140 21.389 C 16.837 21.574,16.674 21.725,16.777 21.726 C 17.210 21.727,18.369 20.503,18.146 20.280 C 18.107 20.241,17.989 20.399,17.883 20.631 M47.439 20.323 C 47.200 20.562,47.346 21.011,47.789 21.402 L 48.253 21.811 47.874 21.379 C 47.133 20.534,47.572 19.985,48.337 20.800 C 48.812 21.305,49.698 21.371,50.034 20.926 C 50.224 20.676,50.222 20.663,50.021 20.842 C 49.601 21.217,48.713 21.101,48.406 20.632 C 48.142 20.230,47.679 20.082,47.439 20.323 M51.880 20.408 C 51.872 20.741,52.662 21.726,52.937 21.726 C 53.042 21.726,52.951 21.603,52.736 21.452 C 52.521 21.301,52.242 20.941,52.116 20.652 C 51.990 20.363,51.884 20.253,51.880 20.408 M65.572 20.476 C 65.464 20.756,65.977 21.571,66.336 21.691 C 66.451 21.729,66.352 21.567,66.115 21.330 C 65.878 21.093,65.684 20.782,65.684 20.639 C 65.684 20.238,66.187 20.331,66.556 20.800 C 66.813 21.126,67.027 21.215,67.507 21.193 L 68.126 21.164 67.508 21.099 C 67.083 21.054,66.805 20.905,66.620 20.622 C 66.315 20.157,65.726 20.075,65.572 20.476 M72.263 20.412 C 72.257 20.569,72.423 20.875,72.632 21.094 C 72.840 21.312,72.920 21.371,72.809 21.226 C 72.698 21.080,72.532 20.774,72.441 20.544 C 72.330 20.266,72.270 20.222,72.263 20.412 M102.000 20.623 C 101.661 21.141,100.840 21.206,100.308 20.758 C 99.958 20.463,99.958 20.464,100.279 20.842 C 100.731 21.376,101.597 21.355,102.033 20.800 C 102.375 20.366,102.813 20.249,102.963 20.552 C 103.010 20.647,103.029 20.628,103.006 20.509 C 102.925 20.104,102.293 20.176,102.000 20.623 M104.638 21.137 C 104.639 21.600,104.672 21.769,104.710 21.513 C 104.749 21.257,104.748 20.879,104.708 20.671 C 104.668 20.464,104.636 20.674,104.638 21.137 M19.368 20.609 C 19.368 20.853,19.904 21.534,20.178 21.639 C 20.351 21.705,20.264 21.529,19.958 21.191 C 19.680 20.884,19.434 20.601,19.411 20.562 C 19.387 20.523,19.368 20.544,19.368 20.609 M45.172 20.817 C 44.903 21.110,44.105 21.124,43.789 20.842 C 43.588 20.663,43.586 20.676,43.776 20.926 C 43.899 21.088,44.203 21.221,44.452 21.221 C 44.899 21.221,45.635 20.819,45.473 20.662 C 45.427 20.618,45.292 20.687,45.172 20.817 M73.500 20.842 C 73.734 21.119,73.984 21.214,74.426 21.194 L 75.032 21.167 74.442 21.097 C 74.118 21.058,73.701 20.900,73.516 20.745 C 73.182 20.465,73.181 20.466,73.500 20.842 M75.263 20.842 C 75.052 21.111,75.058 21.116,75.333 20.900 C 75.818 20.519,76.107 20.936,75.699 21.428 L 75.381 21.811 75.782 21.441 C 76.118 21.130,76.148 21.029,75.966 20.809 C 75.686 20.473,75.547 20.479,75.263 20.842 M79.916 20.816 C 79.712 20.973,79.336 21.053,78.962 21.019 C 78.622 20.988,78.380 21.020,78.424 21.092 C 78.565 21.320,79.576 21.230,79.970 20.954 C 80.291 20.729,80.397 20.722,80.639 20.912 C 80.898 21.115,80.903 21.108,80.695 20.842 C 80.417 20.487,80.348 20.485,79.916 20.816 M111.476 20.776 C 111.678 21.021,111.667 21.107,111.392 21.417 C 111.077 21.771,111.078 21.773,111.433 21.587 C 111.970 21.306,112.048 20.921,111.615 20.691 C 111.276 20.510,111.263 20.518,111.476 20.776 M35.716 20.897 C 35.705 21.173,36.371 21.895,36.638 21.895 C 36.722 21.895,36.617 21.773,36.404 21.624 C 36.192 21.475,35.952 21.191,35.872 20.993 C 35.775 20.751,35.723 20.720,35.716 20.897 M59.768 20.926 C 59.895 21.089,60.198 21.211,60.442 21.198 L 60.884 21.175 60.463 21.098 C 60.232 21.055,59.928 20.933,59.789 20.826 C 59.570 20.657,59.567 20.670,59.768 20.926 M50.863 21.027 C 50.863 21.136,50.617 21.376,50.316 21.560 C 50.015 21.743,49.859 21.894,49.970 21.894 C 50.272 21.895,51.135 21.100,50.989 20.955 C 50.920 20.885,50.863 20.918,50.863 21.027 M98.021 21.389 C 98.021 21.667,98.084 21.895,98.160 21.895 C 98.237 21.895,98.266 21.667,98.225 21.389 C 98.185 21.112,98.122 20.884,98.086 20.884 C 98.050 20.884,98.021 21.112,98.021 21.389 M116.835 20.989 C 116.669 21.155,116.686 21.688,116.860 21.795 C 116.939 21.844,116.968 21.697,116.924 21.469 C 116.859 21.127,116.912 21.053,117.221 21.053 C 117.534 21.053,117.583 21.125,117.514 21.486 C 117.461 21.767,117.489 21.862,117.595 21.757 C 117.856 21.496,117.670 20.973,117.297 20.919 C 117.108 20.892,116.901 20.924,116.835 20.989 M13.917 28.307 C 13.673 28.499,13.474 28.735,13.474 28.831 C 13.474 28.927,13.613 28.834,13.784 28.623 C 13.978 28.383,14.371 28.195,14.836 28.120 C 15.568 28.002,15.570 28.000,14.970 27.979 C 14.584 27.966,14.199 28.085,13.917 28.307 M18.363 28.169 C 17.769 28.476,17.176 29.432,17.198 30.046 L 17.218 30.568 17.336 29.979 C 17.563 28.841,18.279 28.126,19.192 28.126 C 19.747 28.126,19.590 28.391,18.866 28.675 C 18.464 28.834,18.116 29.113,17.997 29.375 C 17.750 29.917,17.855 30.038,18.376 29.809 L 18.779 29.633 18.387 29.709 C 18.089 29.767,18.018 29.725,18.092 29.532 C 18.146 29.392,18.189 29.243,18.189 29.201 C 18.189 29.159,18.537 28.976,18.961 28.794 C 19.409 28.602,19.704 28.375,19.664 28.253 C 19.568 27.959,18.860 27.913,18.363 28.169 M16.009 28.576 C 16.280 28.965,16.350 29.239,16.269 29.586 C 16.187 29.938,16.203 29.997,16.329 29.811 C 16.608 29.399,16.532 29.016,16.072 28.515 L 15.639 28.042 16.009 28.576 M14.353 28.725 C 14.147 28.870,13.979 29.097,13.979 29.231 C 13.979 29.508,13.546 29.562,13.416 29.301 C 13.369 29.206,13.350 29.225,13.374 29.343 C 13.455 29.742,13.969 29.679,14.166 29.247 C 14.478 28.563,15.376 28.497,15.581 29.144 C 15.699 29.516,15.340 30.268,14.820 30.737 C 14.615 30.922,14.221 31.377,13.946 31.747 C 13.557 32.269,13.642 32.212,14.321 31.495 C 15.836 29.894,16.065 29.370,15.495 28.800 C 15.089 28.395,14.848 28.379,14.353 28.725 M22.400 31.074 C 22.400 32.046,22.457 32.842,22.526 32.842 C 22.596 32.842,22.653 32.046,22.653 31.074 C 22.653 30.101,22.596 29.305,22.526 29.305 C 22.457 29.305,22.400 30.101,22.400 31.074 M26.867 29.687 C 27.170 29.948,27.319 30.254,27.339 30.655 L 27.368 31.242 26.232 31.292 C 25.027 31.345,24.941 31.407,25.357 31.926 C 25.608 32.240,25.611 32.238,25.435 31.874 C 25.255 31.503,25.273 31.495,26.226 31.492 C 27.484 31.489,27.701 31.349,27.559 30.636 C 27.450 30.091,26.867 29.305,26.572 29.305 C 26.490 29.305,26.623 29.477,26.867 29.687 M31.532 31.717 L 31.495 34.213 31.874 34.159 C 32.200 34.113,32.255 34.000,32.266 33.347 L 32.280 32.589 32.215 33.305 C 32.172 33.780,32.070 34.021,31.911 34.021 C 31.719 34.021,31.662 33.556,31.621 31.621 L 31.569 29.221 31.532 31.717 M33.944 29.719 C 34.285 30.059,34.358 30.298,34.358 31.074 C 34.358 31.849,34.285 32.088,33.944 32.429 C 33.717 32.656,33.598 32.842,33.680 32.842 C 34.087 32.842,34.526 31.924,34.526 31.074 C 34.526 30.223,34.087 29.305,33.680 29.305 C 33.598 29.305,33.717 29.491,33.944 29.719 M35.745 29.417 C 35.629 29.465,35.454 29.667,35.357 29.867 C 35.207 30.178,35.214 30.193,35.401 29.967 C 35.522 29.821,35.773 29.615,35.958 29.509 C 36.293 29.316,36.150 29.255,35.745 29.417 M37.067 29.347 C 37.105 29.371,37.364 29.579,37.642 29.811 L 38.147 30.232 37.739 29.768 C 37.514 29.514,37.256 29.305,37.164 29.305 C 37.072 29.305,37.028 29.324,37.067 29.347 M38.849 29.418 C 38.694 29.573,38.707 32.635,38.863 32.732 C 38.933 32.774,38.989 32.021,38.989 31.057 C 38.989 30.093,38.983 29.305,38.975 29.305 C 38.968 29.305,38.911 29.356,38.849 29.418 M39.411 29.516 C 39.410 29.687,39.778 29.671,40.068 29.487 C 40.237 29.380,40.177 29.345,39.858 29.364 C 39.612 29.378,39.411 29.446,39.411 29.516 M42.779 29.642 C 42.105 30.316,42.456 31.040,43.621 31.376 C 44.459 31.617,44.648 32.053,43.949 32.134 C 43.681 32.165,43.402 32.054,43.207 31.840 C 42.874 31.472,42.442 31.378,42.442 31.673 C 42.442 31.771,42.524 31.801,42.623 31.739 C 42.723 31.678,42.953 31.787,43.135 31.982 C 43.521 32.396,44.163 32.445,44.463 32.084 C 44.751 31.738,44.473 31.433,43.643 31.184 C 42.530 30.851,42.264 29.941,43.154 29.512 C 43.365 29.411,43.442 29.323,43.326 29.317 C 43.211 29.310,42.964 29.457,42.779 29.642 M44.680 29.693 C 44.885 29.906,45.084 30.058,45.122 30.031 C 45.220 29.960,44.607 29.305,44.443 29.305 C 44.368 29.305,44.475 29.480,44.680 29.693 M46.224 29.719 C 45.997 29.946,45.813 30.230,45.816 30.350 C 45.820 30.470,45.923 30.387,46.046 30.166 C 46.168 29.945,46.450 29.663,46.671 29.540 C 46.893 29.418,46.976 29.315,46.856 29.311 C 46.736 29.308,46.451 29.491,46.224 29.719 M47.916 29.509 C 48.101 29.615,48.348 29.821,48.464 29.967 C 48.651 30.202,48.663 30.198,48.570 29.932 C 48.513 29.767,48.328 29.559,48.160 29.469 C 47.728 29.238,47.507 29.274,47.916 29.509 M28.195 29.895 C 27.795 30.505,28.209 31.089,29.224 31.345 C 29.783 31.485,29.979 31.617,29.979 31.852 C 29.979 32.291,29.136 32.277,28.755 31.832 C 28.409 31.428,28.152 31.401,28.016 31.756 C 27.896 32.066,28.570 32.843,28.956 32.840 C 29.124 32.838,29.073 32.761,28.817 32.629 C 28.346 32.387,28.000 31.901,28.175 31.727 C 28.242 31.660,28.477 31.776,28.699 31.984 C 29.258 32.510,30.063 32.423,30.063 31.837 C 30.063 31.486,29.940 31.387,29.264 31.196 C 28.282 30.919,27.982 30.477,28.371 29.883 C 28.519 29.658,28.601 29.474,28.555 29.474 C 28.509 29.474,28.347 29.663,28.195 29.895 M30.424 29.642 C 30.530 29.781,30.654 30.046,30.699 30.232 C 30.778 30.552,30.783 30.550,30.802 30.210 C 30.812 30.013,30.688 29.748,30.526 29.621 C 30.270 29.420,30.257 29.422,30.424 29.642 M51.749 29.962 C 51.893 30.345,51.976 30.429,52.016 30.229 C 52.048 30.070,51.954 29.819,51.807 29.672 C 51.563 29.428,51.558 29.453,51.749 29.962 M19.362 29.857 C 20.085 30.223,20.321 31.175,19.899 32.026 L 19.547 32.738 19.921 32.364 C 20.679 31.606,20.166 29.636,19.213 29.645 C 19.049 29.646,19.106 29.727,19.362 29.857 M25.358 30.183 C 25.009 30.681,25.234 30.856,26.124 30.777 L 26.863 30.711 26.057 30.682 C 25.307 30.655,25.264 30.629,25.432 30.316 C 25.634 29.937,26.253 29.871,26.611 30.189 C 26.812 30.369,26.814 30.356,26.624 30.105 C 26.315 29.697,25.671 29.737,25.358 30.183 M28.912 29.923 C 28.563 30.272,28.836 30.657,29.563 30.840 C 29.983 30.946,30.438 31.191,30.574 31.385 C 30.710 31.579,30.821 31.657,30.821 31.558 C 30.821 31.262,30.270 30.860,29.642 30.698 C 28.958 30.523,28.715 29.979,29.322 29.979 C 29.530 29.979,29.857 30.112,30.050 30.274 C 30.400 30.568,30.400 30.568,30.079 30.189 C 29.772 29.827,29.150 29.685,28.912 29.923 M32.371 30.013 C 32.259 30.124,32.168 30.601,32.168 31.074 C 32.168 32.292,32.891 32.783,33.574 32.029 C 34.442 31.069,33.273 29.110,32.371 30.013 M35.984 30.119 C 35.336 30.834,35.795 32.337,36.661 32.337 C 37.044 32.337,37.559 31.844,37.555 31.481 C 37.554 31.350,37.457 31.432,37.341 31.663 C 36.866 32.605,35.874 32.206,35.874 31.074 C 35.874 29.941,36.866 29.543,37.341 30.484 C 37.473 30.747,37.554 30.804,37.555 30.637 C 37.562 29.929,36.479 29.572,35.984 30.119 M39.785 30.073 C 39.448 30.308,39.413 30.466,39.438 31.631 L 39.466 32.926 39.565 31.615 C 39.668 30.242,39.848 29.936,40.505 30.020 C 40.807 30.059,40.847 30.209,40.891 31.453 C 40.918 32.217,40.994 32.842,41.059 32.842 C 41.243 32.843,41.089 30.260,40.891 30.021 C 40.655 29.737,40.237 29.756,39.785 30.073 M43.278 30.070 C 43.126 30.254,43.115 30.383,43.242 30.509 C 43.369 30.636,43.413 30.597,43.395 30.376 C 43.358 29.941,44.078 29.858,44.402 30.260 C 44.632 30.546,44.637 30.541,44.467 30.189 C 44.252 29.746,43.601 29.681,43.278 30.070 M46.821 29.987 C 46.634 30.113,46.689 30.130,47.034 30.049 C 47.486 29.944,48.000 30.187,48.000 30.505 C 48.000 30.586,47.640 30.666,47.200 30.682 L 46.400 30.711 47.139 30.777 C 48.055 30.858,48.347 30.624,47.919 30.151 C 47.582 29.778,47.211 29.722,46.821 29.987 M50.133 29.923 C 49.783 30.273,50.057 30.657,50.790 30.841 C 51.827 31.103,52.199 31.638,51.799 32.295 L 51.517 32.758 51.864 32.360 C 52.417 31.726,51.957 30.960,50.863 30.692 C 50.163 30.520,49.936 29.979,50.564 29.979 C 50.784 29.979,51.070 30.074,51.200 30.189 C 51.401 30.369,51.403 30.356,51.213 30.105 C 50.993 29.814,50.351 29.705,50.133 29.923 M23.255 30.216 C 23.131 30.365,23.080 30.911,23.117 31.690 L 23.175 32.926 23.209 31.629 C 23.235 30.595,23.302 30.298,23.537 30.161 C 23.699 30.066,23.746 29.987,23.642 29.984 C 23.537 29.981,23.363 30.086,23.255 30.216 M33.482 30.181 C 33.767 30.466,33.738 31.746,33.441 31.992 C 32.716 32.594,31.979 31.324,32.406 30.211 C 32.515 29.925,33.207 29.906,33.482 30.181 M41.660 31.411 C 41.659 32.244,41.688 32.606,41.723 32.216 C 41.758 31.825,41.759 31.143,41.724 30.700 C 41.689 30.257,41.660 30.577,41.660 31.411 M18.055 30.518 C 17.501 31.072,18.097 32.471,18.809 32.287 C 19.077 32.218,19.072 32.205,18.771 32.188 C 18.082 32.149,17.714 31.027,18.223 30.518 C 18.334 30.407,18.387 30.316,18.341 30.316 C 18.295 30.316,18.166 30.407,18.055 30.518 M38.119 31.088 C 38.119 31.776,38.144 31.842,38.264 31.480 C 38.346 31.237,38.346 30.872,38.264 30.652 C 38.150 30.342,38.119 30.433,38.119 31.088 M48.660 30.821 C 48.595 31.207,48.499 31.250,47.495 31.339 L 46.400 31.437 47.542 31.466 C 48.738 31.496,48.953 31.366,48.801 30.705 C 48.747 30.471,48.714 30.498,48.660 30.821 M49.352 30.590 C 49.350 30.694,49.450 30.865,49.576 30.970 C 49.858 31.204,51.399 31.680,51.287 31.499 C 51.242 31.427,50.867 31.282,50.453 31.178 C 50.039 31.074,49.623 30.856,49.529 30.694 C 49.435 30.532,49.355 30.485,49.352 30.590 M15.108 31.291 C 14.237 32.184,14.291 32.337,15.482 32.337 C 16.291 32.337,16.495 32.393,16.558 32.632 C 16.616 32.853,16.639 32.833,16.654 32.547 C 16.672 32.194,16.605 32.168,15.663 32.168 C 14.476 32.168,14.459 32.129,15.276 31.291 C 15.619 30.940,15.862 30.653,15.816 30.653 C 15.769 30.653,15.451 30.940,15.108 31.291 M24.460 31.158 C 24.460 31.482,24.495 31.615,24.537 31.453 C 24.580 31.291,24.580 31.025,24.537 30.863 C 24.495 30.701,24.460 30.834,24.460 31.158 M44.245 30.930 C 45.230 31.279,45.460 32.327,44.610 32.596 C 44.423 32.656,44.306 32.742,44.352 32.787 C 44.505 32.940,45.113 32.508,45.221 32.169 C 45.449 31.449,44.695 30.628,43.840 30.666 C 43.673 30.673,43.855 30.792,44.245 30.930 M45.662 31.074 C 45.645 31.528,46.175 32.674,46.401 32.674 C 46.451 32.674,46.364 32.478,46.207 32.238 C 46.050 31.999,45.867 31.525,45.801 31.186 C 45.688 30.603,45.680 30.597,45.662 31.074 M17.194 31.440 C 17.178 31.826,17.927 32.842,18.227 32.842 C 18.324 32.842,18.205 32.686,17.962 32.495 C 17.719 32.304,17.450 31.906,17.365 31.610 C 17.249 31.211,17.205 31.167,17.194 31.440 M35.035 31.681 C 35.031 32.017,35.781 32.846,36.076 32.831 C 36.196 32.824,36.129 32.739,35.927 32.641 C 35.724 32.544,35.442 32.227,35.299 31.937 C 35.156 31.647,35.038 31.532,35.035 31.681 M49.234 31.761 C 49.172 31.923,49.288 32.172,49.528 32.393 C 49.893 32.729,49.902 32.731,49.636 32.408 C 49.092 31.748,49.369 31.373,49.937 32.000 C 50.237 32.331,51.101 32.464,51.262 32.204 C 51.308 32.130,51.092 32.100,50.782 32.136 C 50.342 32.187,50.178 32.124,50.030 31.848 C 49.807 31.431,49.379 31.384,49.234 31.761 M26.779 32.000 C 26.640 32.090,26.337 32.175,26.105 32.189 C 25.720 32.212,25.716 32.220,26.054 32.286 C 26.258 32.326,26.587 32.271,26.785 32.165 C 27.239 31.922,27.401 32.069,27.107 32.459 C 26.896 32.739,26.901 32.741,27.187 32.479 C 27.656 32.052,27.316 31.653,26.779 32.000 M47.941 32.023 C 47.770 32.122,47.391 32.162,47.099 32.111 C 46.608 32.026,46.598 32.033,46.961 32.210 C 47.255 32.353,47.485 32.351,47.876 32.203 C 48.546 31.950,48.702 32.106,48.192 32.520 C 47.736 32.889,47.922 32.954,48.400 32.592 C 48.966 32.164,48.562 31.662,47.941 32.023 M30.364 32.455 C 30.159 32.668,30.052 32.842,30.127 32.842 C 30.292 32.842,30.904 32.187,30.806 32.117 C 30.768 32.089,30.569 32.242,30.364 32.455 M37.506 32.426 C 37.246 32.655,37.101 32.842,37.182 32.842 C 37.264 32.842,37.509 32.653,37.726 32.421 C 38.230 31.885,38.118 31.888,37.506 32.426 M130.989 51.661 C 131.476 51.695,132.272 51.695,132.758 51.661 C 133.244 51.627,132.846 51.599,131.874 51.599 C 130.901 51.599,130.503 51.627,130.989 51.661 M126.653 51.824 C 124.226 52.090,118.783 53.155,118.958 53.329 C 118.999 53.371,119.857 53.216,120.864 52.985 C 123.019 52.492,125.705 52.091,128.168 51.894 C 129.924 51.753,129.927 51.752,128.589 51.756 C 127.848 51.758,126.977 51.788,126.653 51.824 M135.326 51.895 C 137.745 52.101,140.377 52.499,142.451 52.974 C 145.073 53.575,145.157 53.589,144.457 53.315 C 142.877 52.697,136.619 51.684,134.660 51.728 C 133.818 51.748,133.933 51.776,135.326 51.895 M262.354 52.327 C 262.271 52.472,263.943 55.102,264.050 54.996 C 264.085 54.961,263.725 54.358,263.251 53.656 C 262.504 52.548,262.435 52.379,262.729 52.379 C 262.939 52.379,263.240 52.637,263.515 53.053 C 264.105 53.945,264.216 53.916,263.678 53.011 C 263.275 52.332,262.562 51.964,262.354 52.327 M265.597 52.589 C 265.426 52.942,265.430 52.947,265.662 52.659 C 266.416 51.723,266.404 52.526,265.648 53.642 C 264.886 54.766,264.313 57.095,264.798 57.095 C 264.869 57.095,264.926 56.617,264.926 56.033 C 264.926 55.030,264.973 54.904,265.768 53.775 C 266.232 53.118,266.611 52.497,266.611 52.395 C 266.611 52.040,265.787 52.197,265.597 52.589 M264.910 53.631 C 264.609 54.071,264.461 54.166,264.295 54.028 C 264.127 53.889,264.101 53.911,264.183 54.124 C 264.366 54.602,264.701 54.351,265.330 53.263 C 265.588 52.817,265.287 53.081,264.910 53.631 M266.702 54.019 C 265.993 54.783,266.132 56.538,266.925 56.843 C 267.097 56.909,267.054 56.798,266.803 56.531 C 266.185 55.873,266.251 54.636,266.936 54.024 C 267.223 53.768,267.384 53.558,267.294 53.558 C 267.203 53.558,266.937 53.766,266.702 54.019 M270.258 53.866 C 269.604 54.589,269.971 55.292,271.195 55.660 C 271.704 55.813,271.908 55.962,271.889 56.167 C 271.870 56.379,271.913 56.407,272.049 56.271 C 272.316 56.004,272.010 55.748,271.038 55.426 C 270.063 55.102,269.806 54.321,270.512 53.827 C 270.723 53.679,270.815 53.558,270.716 53.558 C 270.617 53.558,270.411 53.696,270.258 53.866 M269.021 54.085 C 269.665 55.088,269.511 55.321,268.168 55.376 C 266.869 55.428,266.546 55.739,267.242 56.266 C 267.493 56.456,267.505 56.454,267.326 56.253 C 266.871 55.743,267.081 55.579,268.190 55.579 C 269.627 55.579,270.098 54.509,268.968 53.810 C 268.850 53.737,268.872 53.852,269.021 54.085 M114.611 54.668 C 112.897 55.314,111.470 55.947,111.549 56.026 C 111.578 56.055,112.203 55.826,112.938 55.518 C 113.672 55.209,114.785 54.787,115.411 54.580 C 116.477 54.227,116.822 54.041,116.337 54.080 C 116.221 54.089,115.444 54.354,114.611 54.668 M147.116 54.236 C 147.459 54.389,150.712 55.615,151.326 55.823 C 152.386 56.182,150.516 55.326,148.976 54.747 C 147.379 54.148,146.175 53.817,147.116 54.236 M267.226 54.371 C 266.799 54.843,266.874 54.905,267.874 54.905 C 268.521 54.905,268.800 54.839,268.800 54.686 C 268.800 54.056,267.709 53.837,267.226 54.371 M270.717 54.308 C 270.602 54.607,270.770 54.910,271.042 54.892 C 271.186 54.882,271.183 54.855,271.032 54.794 C 270.916 54.747,270.821 54.601,270.821 54.470 C 270.821 54.151,271.564 54.161,271.832 54.484 C 272.124 54.837,272.677 54.809,272.660 54.442 C 272.652 54.266,272.613 54.232,272.562 54.358 C 272.447 54.644,272.087 54.623,271.832 54.316 C 271.564 53.993,270.839 53.988,270.717 54.308 M268.365 54.334 C 268.882 54.532,268.622 54.737,267.853 54.737 C 267.180 54.737,267.103 54.703,267.284 54.484 C 267.504 54.219,267.917 54.162,268.365 54.334 M271.747 55.110 C 272.025 55.207,272.347 55.362,272.463 55.454 C 272.603 55.564,272.674 55.562,272.674 55.448 C 272.674 55.275,271.776 54.894,271.427 54.919 C 271.326 54.926,271.469 55.012,271.747 55.110 M268.632 56.079 C 268.632 56.169,268.385 56.314,268.084 56.401 C 267.694 56.514,267.640 56.563,267.897 56.574 C 268.095 56.583,268.436 56.440,268.655 56.258 C 268.874 56.076,268.958 55.924,268.842 55.921 C 268.726 55.918,268.632 55.989,268.632 56.079 M269.228 56.095 C 269.288 56.193,269.198 56.440,269.027 56.642 L 268.716 57.011 269.095 56.690 C 269.490 56.355,269.604 55.916,269.295 55.916 C 269.197 55.916,269.167 55.996,269.228 56.095 M152.098 56.141 C 152.137 56.171,153.154 56.706,154.358 57.328 C 155.562 57.950,156.396 58.338,156.211 58.191 C 155.838 57.894,152.353 56.084,152.154 56.084 C 152.085 56.084,152.060 56.110,152.098 56.141 M109.937 56.685 C 109.497 56.914,109.137 57.139,109.137 57.185 C 109.137 57.260,110.804 56.473,110.975 56.317 C 111.184 56.127,110.636 56.321,109.937 56.685 M272.414 56.601 C 272.352 56.700,272.140 56.847,271.941 56.927 C 271.694 57.027,271.664 57.077,271.848 57.084 C 271.995 57.090,272.253 56.943,272.421 56.758 C 272.589 56.573,272.681 56.421,272.626 56.421 C 272.570 56.421,272.475 56.502,272.414 56.601 M107.200 58.196 C 106.459 58.616,105.663 59.117,105.432 59.309 C 105.022 59.648,105.027 59.648,105.600 59.300 C 105.924 59.103,106.739 58.635,107.411 58.259 C 108.443 57.682,108.800 57.432,108.589 57.432 C 108.566 57.432,107.941 57.775,107.200 58.196 M156.632 58.507 C 156.632 58.549,156.916 58.755,157.263 58.964 C 162.377 62.049,167.858 67.212,171.561 72.434 C 173.631 75.353,173.749 75.511,173.378 74.863 C 171.334 71.299,166.773 66.081,162.863 62.833 C 160.696 61.033,156.632 58.211,156.632 58.507 M103.387 60.617 C 102.602 61.166,101.850 61.751,101.717 61.918 C 101.540 62.139,101.612 62.119,101.979 61.845 C 102.257 61.637,103.034 61.081,103.705 60.607 C 104.795 59.840,105.054 59.621,104.871 59.621 C 104.841 59.621,104.173 60.069,103.387 60.617 M255.350 61.835 C 255.039 61.925,254.816 62.030,254.854 62.068 C 254.893 62.107,255.215 62.058,255.570 61.960 C 255.925 61.862,256.489 61.824,256.823 61.876 C 257.265 61.945,257.339 61.929,257.095 61.818 C 256.664 61.623,256.066 61.629,255.350 61.835 M100.376 62.937 C 97.333 65.540,93.903 69.196,92.149 71.705 C 91.313 72.902,92.010 72.156,93.169 70.615 C 94.402 68.974,98.566 64.639,100.463 63.021 C 101.019 62.547,101.434 62.157,101.387 62.153 C 101.339 62.150,100.884 62.503,100.376 62.937 M254.009 62.650 C 252.668 63.875,252.608 65.952,253.872 67.342 C 254.228 67.733,255.016 68.217,255.276 68.204 C 255.350 68.200,255.183 68.077,254.905 67.930 C 252.880 66.860,252.504 64.430,254.107 62.779 C 254.841 62.024,254.781 61.945,254.009 62.650 M258.171 62.449 C 258.392 62.628,258.721 62.955,258.901 63.176 C 259.082 63.398,259.173 63.465,259.105 63.326 C 258.902 62.914,258.469 62.464,258.107 62.289 C 257.850 62.164,257.865 62.203,258.171 62.449 M262.814 65.011 C 262.821 67.338,262.837 67.453,263.158 67.453 C 263.468 67.453,263.499 67.324,263.545 65.853 L 263.595 64.253 263.938 64.674 L 264.281 65.095 263.978 64.547 C 263.504 63.691,263.411 63.877,263.411 65.684 C 263.411 67.055,263.364 67.368,263.163 67.368 C 262.958 67.368,262.905 66.945,262.860 64.968 L 262.806 62.568 262.814 65.011 M263.341 62.782 C 263.441 62.850,263.989 63.601,264.558 64.451 C 265.926 66.495,265.906 66.496,265.968 64.424 C 265.997 63.449,265.967 62.652,265.901 62.652 C 265.835 62.652,265.759 63.390,265.732 64.292 L 265.684 65.931 264.623 64.292 C 264.039 63.390,263.471 62.654,263.360 62.655 C 263.220 62.657,263.214 62.696,263.341 62.782 M266.409 65.010 C 266.467 67.712,266.275 68.022,265.391 66.652 C 264.907 65.902,264.126 64.910,264.366 65.350 C 265.980 68.308,266.511 68.237,266.573 65.053 C 266.599 63.733,266.561 62.653,266.489 62.652 C 266.417 62.652,266.381 63.713,266.409 65.010 M267.688 64.404 C 266.093 65.999,268.277 68.628,269.927 67.099 L 270.400 66.662 269.914 67.015 C 268.729 67.877,267.368 67.166,267.368 65.684 C 267.368 64.268,268.445 63.615,269.726 64.254 L 270.232 64.506 269.834 64.169 C 269.201 63.632,268.369 63.724,267.688 64.404 M269.598 65.413 C 269.667 66.018,269.618 66.274,269.386 66.530 C 269.065 66.884,269.267 67.003,269.608 66.661 C 269.842 66.427,269.875 65.205,269.658 64.861 C 269.567 64.718,269.544 64.931,269.598 65.413 M259.124 66.501 C 259.000 66.890,257.777 68.042,257.487 68.042 C 257.379 68.042,257.338 68.089,257.395 68.146 C 257.583 68.333,258.671 67.530,259.042 66.930 C 259.243 66.606,259.367 66.301,259.319 66.252 C 259.270 66.204,259.183 66.315,259.124 66.501 M255.874 68.331 C 256.128 68.370,256.545 68.370,256.800 68.331 C 257.055 68.293,256.846 68.261,256.337 68.261 C 255.827 68.261,255.619 68.293,255.874 68.331 M91.258 72.968 C 90.458 74.053,89.328 75.943,89.722 75.537 C 89.945 75.307,91.797 72.421,91.721 72.421 C 91.688 72.421,91.479 72.667,91.258 72.968 M174.975 77.979 C 176.206 80.386,177.376 83.149,178.099 85.358 C 178.260 85.851,178.424 86.221,178.464 86.182 C 178.766 85.880,174.856 76.887,173.909 75.705 C 173.760 75.520,174.240 76.543,174.975 77.979 M88.860 76.842 C 88.121 78.162,86.685 81.185,86.763 81.254 C 86.795 81.282,87.433 80.064,88.181 78.547 C 89.621 75.629,89.826 75.114,88.860 76.842 M85.918 83.191 C 85.227 85.002,84.484 87.403,84.584 87.504 C 84.629 87.548,84.837 86.996,85.047 86.276 C 85.258 85.557,85.687 84.294,86.002 83.470 C 86.317 82.646,86.544 81.940,86.506 81.902 C 86.468 81.864,86.204 82.444,85.918 83.191 M178.797 87.495 C 179.298 89.789,179.851 91.982,179.860 91.705 C 179.874 91.263,179.113 87.951,178.874 87.411 C 178.695 87.008,178.692 87.011,178.797 87.495 M83.736 90.751 C 83.534 91.700,83.375 92.606,83.383 92.764 C 83.391 92.923,83.580 92.219,83.802 91.200 C 84.025 90.181,84.184 89.275,84.155 89.186 C 84.127 89.098,83.938 89.802,83.736 90.751 M179.874 92.280 C 179.874 92.396,179.986 93.375,180.122 94.456 C 180.259 95.537,180.397 96.800,180.429 97.263 L 180.487 98.105 180.517 97.145 C 180.547 96.208,180.104 92.301,179.951 92.147 C 179.908 92.105,179.874 92.165,179.874 92.280 M90.596 94.363 C 89.275 95.377,89.959 97.484,91.550 97.304 C 92.386 97.210,92.576 97.546,91.987 98.079 C 91.564 98.462,91.186 98.428,90.859 97.979 C 90.622 97.652,90.591 97.644,90.639 97.919 C 90.798 98.831,92.082 98.658,92.403 97.681 C 92.633 96.979,92.552 96.782,92.127 97.010 C 90.729 97.759,89.449 96.037,90.454 94.760 C 91.816 93.029,93.809 95.908,92.714 98.024 C 92.148 99.120,90.274 99.110,90.274 98.012 C 90.274 97.831,90.198 97.684,90.105 97.684 C 89.791 97.684,90.125 98.454,90.596 98.816 C 92.147 100.006,93.932 97.016,92.882 94.986 C 92.467 94.182,91.260 93.853,90.596 94.363 M94.292 94.498 L 93.895 94.848 94.311 94.582 C 95.101 94.077,96.505 94.446,96.505 95.158 C 96.505 95.451,96.090 95.340,95.871 94.989 C 95.515 94.420,94.316 94.752,94.316 95.419 C 94.316 95.502,94.434 95.401,94.578 95.195 C 94.907 94.726,95.589 94.705,95.832 95.158 C 96.044 95.555,96.674 95.613,96.674 95.234 C 96.674 94.322,95.058 93.823,94.292 94.498 M99.691 94.363 C 99.394 94.591,99.032 95.207,99.032 95.484 C 99.032 95.833,99.791 95.670,99.960 95.284 C 100.150 94.852,100.785 94.698,101.146 94.997 C 101.618 95.388,101.408 95.908,100.366 96.932 C 98.433 98.831,98.476 99.075,100.728 98.997 C 102.669 98.929,103.001 98.363,101.107 98.350 L 99.958 98.343 100.778 97.607 C 102.288 96.255,102.578 95.413,101.819 94.593 C 101.361 94.099,100.198 93.974,99.691 94.363 M103.184 94.455 C 103.031 94.625,102.906 94.871,102.908 95.003 C 102.909 95.134,103.006 95.053,103.122 94.821 C 103.599 93.874,104.758 94.341,104.758 95.481 C 104.758 96.619,103.596 97.107,103.122 96.168 C 102.990 95.906,102.909 95.849,102.908 96.016 C 102.904 96.386,103.445 96.842,103.887 96.842 C 104.786 96.842,105.272 95.390,104.664 94.522 C 104.340 94.060,103.573 94.025,103.184 94.455 M106.219 94.526 C 105.627 95.496,105.255 96.217,105.315 96.277 C 105.352 96.313,105.625 95.887,105.922 95.329 C 106.219 94.772,106.538 94.316,106.632 94.316 C 106.725 94.316,106.412 95.055,105.936 95.958 C 105.460 96.861,105.186 97.457,105.328 97.283 C 105.598 96.950,106.947 94.422,106.947 94.248 C 106.947 93.989,106.425 94.189,106.219 94.526 M101.727 94.776 C 102.271 95.468,102.067 96.070,100.880 97.267 C 99.633 98.525,99.633 98.526,100.968 98.526 C 101.586 98.526,102.063 98.600,102.063 98.695 C 102.063 98.795,101.444 98.863,100.541 98.863 L 99.020 98.863 99.210 98.484 C 99.314 98.276,99.885 97.645,100.479 97.083 C 101.622 95.999,101.798 95.534,101.279 94.961 C 100.888 94.529,100.294 94.577,99.904 95.074 C 99.564 95.506,99.200 95.632,99.200 95.319 C 99.200 94.382,101.097 93.975,101.727 94.776 M90.889 94.961 C 90.493 95.398,90.522 96.446,90.936 96.668 C 91.724 97.089,92.463 96.629,92.463 95.718 C 92.463 94.797,91.470 94.319,90.889 94.961 M103.415 95.062 C 103.173 95.698,103.469 96.376,103.958 96.306 C 104.287 96.260,104.337 96.152,104.337 95.495 C 104.337 94.567,103.714 94.275,103.415 95.062 M92.093 95.023 C 92.608 95.539,92.226 96.674,91.537 96.674 C 91.039 96.674,90.779 96.356,90.779 95.747 C 90.779 95.139,91.039 94.821,91.537 94.821 C 91.731 94.821,91.981 94.912,92.093 95.023 M104.221 95.451 C 104.142 96.403,103.579 96.452,103.579 95.507 C 103.579 94.927,103.632 94.821,103.926 94.821 C 104.224 94.821,104.266 94.910,104.221 95.451 M93.655 95.605 C 93.145 97.443,93.895 99.032,95.272 99.032 C 95.846 99.032,96.674 98.432,96.674 98.016 C 96.674 97.912,96.477 98.060,96.238 98.345 C 94.952 99.873,93.207 98.058,93.782 95.792 C 94.009 94.898,93.897 94.734,93.655 95.605 M94.161 95.958 C 94.147 96.347,94.383 96.469,94.568 96.168 C 94.797 95.799,95.961 95.981,96.325 96.444 C 96.517 96.688,96.674 96.804,96.674 96.703 C 96.674 96.204,95.920 95.802,95.121 95.876 C 94.636 95.921,94.297 95.877,94.250 95.764 C 94.208 95.662,94.168 95.749,94.161 95.958 M82.915 96.926 C 82.916 97.482,82.948 97.689,82.985 97.386 C 83.023 97.084,83.022 96.629,82.983 96.376 C 82.945 96.123,82.914 96.371,82.915 96.926 M94.611 96.519 C 94.448 96.613,94.316 96.768,94.316 96.863 C 94.316 96.957,94.435 96.915,94.580 96.770 C 94.988 96.362,95.639 96.436,95.857 96.914 C 96.309 97.907,95.399 98.756,94.604 98.083 L 94.232 97.768 94.552 98.147 C 94.962 98.631,95.570 98.633,95.906 98.152 C 96.639 97.106,95.679 95.896,94.611 96.519 M106.177 96.687 C 105.486 97.451,105.966 99.032,106.889 99.032 C 107.359 99.032,107.963 98.477,107.945 98.063 C 107.936 97.878,107.869 97.940,107.762 98.232 C 107.430 99.142,106.324 99.034,106.046 98.065 C 105.738 96.993,106.782 96.072,107.589 96.704 C 107.845 96.904,107.850 96.896,107.643 96.632 C 107.328 96.231,106.564 96.260,106.177 96.687 M104.514 97.574 C 103.863 98.737,103.790 99.032,104.152 99.032 C 104.377 99.032,105.177 97.879,105.044 97.746 C 105.009 97.711,104.837 97.948,104.662 98.273 C 104.488 98.597,104.280 98.863,104.200 98.863 C 104.033 98.863,104.011 98.917,104.719 97.558 C 105.435 96.185,105.284 96.197,104.514 97.574 M106.617 96.918 C 106.237 97.376,106.468 98.442,106.947 98.442 C 107.321 98.442,107.374 98.363,107.420 97.737 C 107.478 96.934,107.005 96.451,106.617 96.918 M107.284 97.684 C 107.284 98.246,107.228 98.358,106.947 98.358 C 106.667 98.358,106.611 98.246,106.611 97.684 C 106.611 97.123,106.667 97.011,106.947 97.011 C 107.228 97.011,107.284 97.123,107.284 97.684 M82.763 100.716 C 82.763 102.152,82.788 102.739,82.820 102.021 C 82.851 101.303,82.851 100.128,82.820 99.411 C 82.788 98.693,82.763 99.280,82.763 100.716 M97.546 98.568 C 97.582 98.817,97.716 98.947,97.937 98.947 C 98.158 98.947,98.292 98.817,98.328 98.568 C 98.372 98.258,98.301 98.189,97.937 98.189 C 97.572 98.189,97.502 98.258,97.546 98.568 M180.547 99.200 L 180.547 100.211 156.126 100.211 C 142.695 100.211,131.705 100.267,131.705 100.337 C 131.705 100.406,142.733 100.444,156.211 100.420 L 180.716 100.377 180.716 99.283 C 180.716 98.682,180.678 98.189,180.632 98.189 C 180.585 98.189,180.547 98.644,180.547 99.200 M98.189 98.611 C 98.189 98.749,98.076 98.863,97.937 98.863 C 97.798 98.863,97.684 98.749,97.684 98.611 C 97.684 98.472,97.798 98.358,97.937 98.358 C 98.076 98.358,98.189 98.472,98.189 98.611 M131.705 100.871 C 131.705 100.996,136.944 102.270,137.044 102.170 C 137.078 102.136,135.891 101.804,134.406 101.432 C 132.920 101.060,131.705 100.808,131.705 100.871 M134.905 101.011 C 134.905 101.080,145.205 101.137,157.794 101.137 C 170.383 101.137,180.648 101.080,180.606 101.011 C 180.563 100.941,170.262 100.884,157.716 100.884 C 145.170 100.884,134.905 100.941,134.905 101.011 M139.455 102.785 C 139.592 102.939,146.379 104.610,146.587 104.541 C 146.689 104.507,145.297 104.123,143.492 103.688 C 141.687 103.253,140.021 102.850,139.789 102.792 C 139.558 102.734,139.407 102.731,139.455 102.785 M82.911 104.505 C 82.913 104.968,82.945 105.138,82.984 104.882 C 83.023 104.626,83.022 104.247,82.982 104.040 C 82.942 103.833,82.910 104.042,82.911 104.505 M180.418 104.253 C 180.418 104.577,180.453 104.709,180.495 104.547 C 180.537 104.385,180.537 104.120,180.495 103.958 C 180.453 103.796,180.418 103.928,180.418 104.253 M149.068 105.166 C 149.189 105.288,153.300 106.293,153.374 106.219 C 153.435 106.158,149.408 105.095,149.113 105.095 C 149.049 105.095,149.029 105.127,149.068 105.166 M180.253 106.021 C 180.255 106.392,180.289 106.523,180.330 106.314 C 180.370 106.104,180.368 105.801,180.326 105.640 C 180.284 105.479,180.251 105.651,180.253 106.021 M83.071 106.274 C 83.071 106.598,83.105 106.731,83.148 106.568 C 83.190 106.406,83.190 106.141,83.148 105.979 C 83.105 105.817,83.071 105.949,83.071 106.274 M155.032 106.708 C 155.865 106.930,156.661 107.089,156.800 107.062 C 157.060 107.011,154.069 106.262,153.714 106.289 C 153.605 106.297,154.198 106.486,155.032 106.708 M159.916 107.885 C 160.749 108.105,161.505 108.263,161.595 108.236 C 161.783 108.178,158.941 107.445,158.617 107.468 C 158.497 107.476,159.082 107.664,159.916 107.885 M83.383 108.499 C 83.363 108.900,84.091 112.275,84.155 112.077 C 84.184 111.988,84.025 111.082,83.802 110.063 C 83.580 109.044,83.391 108.340,83.383 108.499 M165.642 109.318 C 166.661 109.587,167.605 109.788,167.740 109.765 C 168.012 109.720,164.363 108.791,164.010 108.815 C 163.889 108.824,164.623 109.050,165.642 109.318 M168.758 110.048 C 168.758 110.145,171.826 110.841,171.905 110.762 C 171.971 110.696,169.250 109.979,168.932 109.979 C 168.836 109.979,168.758 110.010,168.758 110.048 M174.257 111.432 C 174.363 111.476,175.462 111.760,176.699 112.063 L 178.947 112.615 178.912 113.107 L 178.877 113.600 179.056 113.126 C 179.291 112.505,179.390 112.559,176.813 111.904 C 174.854 111.407,173.653 111.185,174.257 111.432 M84.564 113.775 C 84.540 114.029,85.568 117.267,85.647 117.188 C 85.684 117.151,85.459 116.329,85.148 115.360 C 84.836 114.392,84.573 113.679,84.564 113.775 M178.034 116.013 C 178.027 116.136,177.673 117.121,177.247 118.202 C 176.324 120.548,176.237 120.808,176.567 120.244 C 176.987 119.524,178.209 116.182,178.126 115.979 C 178.076 115.859,178.043 115.872,178.034 116.013 M85.726 117.444 C 85.726 117.656,86.611 119.761,86.673 119.699 C 86.708 119.664,86.539 119.149,86.299 118.555 C 85.872 117.502,85.726 117.218,85.726 117.444 M86.907 120.351 C 86.910 120.623,88.711 124.246,88.903 124.364 C 89.004 124.427,88.622 123.547,88.054 122.408 C 86.951 120.196,86.904 120.113,86.907 120.351 M174.933 123.343 C 174.300 124.561,173.859 125.482,173.953 125.389 C 174.187 125.157,176.221 121.259,176.145 121.186 C 176.112 121.154,175.566 122.124,174.933 123.343 M89.518 125.469 C 89.903 126.226,91.607 128.814,91.797 128.931 C 91.936 129.017,89.517 125.158,89.316 124.972 C 89.263 124.924,89.354 125.148,89.518 125.469 M172.317 127.735 C 169.664 131.733,165.910 135.816,162.141 138.801 C 160.575 140.041,159.662 140.827,160.337 140.354 C 165.104 137.012,170.390 131.339,173.456 126.274 C 174.264 124.938,173.643 125.734,172.317 127.735 M92.478 129.918 C 92.794 130.370,93.341 131.052,93.694 131.433 C 94.046 131.814,93.868 131.520,93.297 130.779 C 92.064 129.176,91.679 128.772,92.478 129.918 M94.817 132.790 C 95.567 133.717,98.591 136.766,99.453 137.463 C 99.916 137.838,99.624 137.510,98.804 136.735 C 97.984 135.960,96.657 134.639,95.856 133.800 C 95.055 132.961,94.588 132.506,94.817 132.790 M101.053 138.771 C 101.876 139.519,104.938 141.711,106.021 142.329 C 107.093 142.941,106.667 142.608,104.674 141.277 C 103.655 140.596,102.253 139.599,101.558 139.061 C 100.757 138.440,100.572 138.334,101.053 138.771 M158.432 141.470 C 156.879 142.494,156.425 142.848,157.137 142.481 C 157.729 142.175,160.000 140.638,160.000 140.542 C 160.000 140.431,160.068 140.391,158.432 141.470 M107.032 142.916 C 107.463 143.247,111.674 145.393,111.747 145.319 C 111.777 145.288,110.652 144.677,109.248 143.961 C 107.844 143.244,106.846 142.774,107.032 142.916 M154.021 144.010 C 151.473 145.352,151.016 145.651,152.526 144.985 C 153.913 144.374,157.063 142.590,156.623 142.666 C 156.581 142.673,155.411 143.278,154.021 144.010 M112.505 145.670 C 112.829 145.840,113.284 146.027,113.516 146.087 C 113.747 146.146,113.529 146.004,113.031 145.771 C 111.987 145.283,111.634 145.215,112.505 145.670 M150.316 145.784 C 149.853 146.009,149.663 146.145,149.895 146.086 C 150.375 145.963,151.582 145.359,151.326 145.369 C 151.234 145.372,150.779 145.559,150.316 145.784 M114.863 146.585 C 114.863 146.718,118.072 147.730,118.278 147.662 C 118.372 147.630,117.737 147.388,116.866 147.124 C 115.996 146.859,115.189 146.608,115.074 146.567 C 114.958 146.525,114.863 146.533,114.863 146.585 M147.368 146.884 C 146.859 147.068,145.343 147.511,144.000 147.870 C 142.657 148.229,141.672 148.528,141.811 148.534 C 142.413 148.559,148.547 146.800,148.547 146.603 C 148.547 146.483,148.360 146.527,147.368 146.884 M118.568 147.758 C 118.568 147.883,121.760 148.612,121.862 148.510 C 121.906 148.466,121.352 148.301,120.629 148.145 C 119.906 147.989,119.147 147.817,118.941 147.764 C 118.736 147.710,118.568 147.707,118.568 147.758 M125.179 149.169 C 125.341 149.211,125.606 149.211,125.768 149.169 C 125.931 149.126,125.798 149.092,125.474 149.092 C 125.149 149.092,125.017 149.126,125.179 149.169 M136.168 149.252 C 135.427 149.338,132.869 149.378,130.484 149.342 C 128.099 149.306,126.175 149.305,126.209 149.339 C 126.589 149.719,135.737 149.637,137.782 149.236 C 138.786 149.039,137.952 149.047,136.168 149.252 " stroke="none" fill="#cba79f" fill-rule="evenodd"></path></g></svg>